<mxfile host="app.diagrams.net" modified="2022-12-28T08:34:29.127Z" agent="5.0 (Windows)" version="20.7.4" etag="kxfGQ1ffGFsMWVw78Zhe" type="github">
  <diagram id="HNLq0JXmGdHirnC3_MTy" name="Страница 1">
    <mxGraphModel dx="1909" dy="1049" grid="1" gridSize="10" guides="0" tooltips="1" connect="1" arrows="1" fold="1" page="1" pageScale="1" pageWidth="827" pageHeight="1169" math="0" shadow="0">
      <root>
        <mxCell id="0" />
        <mxCell id="1" parent="0" />
        <mxCell id="28zKGiVwG6CiP2PjTaSR-10" value="SERVER" style="ellipse;shape=doubleEllipse;whiteSpace=wrap;html=1;fillColor=#e1d5e7;strokeColor=#9673a6;" vertex="1" parent="1">
          <mxGeometry x="370" y="260" width="100" height="60" as="geometry" />
        </mxCell>
        <mxCell id="28zKGiVwG6CiP2PjTaSR-11" value="Mobile App" style="shape=ext;double=1;rounded=1;whiteSpace=wrap;html=1;fillColor=#ffe6cc;strokeColor=#d79b00;" vertex="1" parent="1">
          <mxGeometry x="120" y="360" width="120" height="80" as="geometry" />
        </mxCell>
        <mxCell id="28zKGiVwG6CiP2PjTaSR-12" value="Web App" style="shape=ext;double=1;rounded=1;whiteSpace=wrap;html=1;fillColor=#ffe6cc;strokeColor=#d79b00;" vertex="1" parent="1">
          <mxGeometry x="360" y="440" width="120" height="80" as="geometry" />
        </mxCell>
        <mxCell id="28zKGiVwG6CiP2PjTaSR-13" value="Telegram Bot" style="shape=ext;double=1;rounded=1;whiteSpace=wrap;html=1;fillColor=#ffe6cc;strokeColor=#d79b00;" vertex="1" parent="1">
          <mxGeometry x="600" y="360" width="120" height="80" as="geometry" />
        </mxCell>
        <mxCell id="28zKGiVwG6CiP2PjTaSR-15" value="DB" style="shape=ext;double=1;rounded=0;whiteSpace=wrap;html=1;fillColor=#d5e8d4;strokeColor=#82b366;" vertex="1" parent="1">
          <mxGeometry x="390" y="110" width="60" height="40" as="geometry" />
        </mxCell>
        <mxCell id="28zKGiVwG6CiP2PjTaSR-16" value="" style="endArrow=classic;startArrow=classic;html=1;rounded=0;strokeWidth=3;" edge="1" parent="1">
          <mxGeometry width="50" height="50" relative="1" as="geometry">
            <mxPoint x="250" y="350" as="sourcePoint" />
            <mxPoint x="350" y="310" as="targetPoint" />
          </mxGeometry>
        </mxCell>
        <mxCell id="28zKGiVwG6CiP2PjTaSR-18" value="" style="endArrow=classic;startArrow=classic;html=1;rounded=0;strokeWidth=3;" edge="1" parent="1">
          <mxGeometry width="50" height="50" relative="1" as="geometry">
            <mxPoint x="490" y="310" as="sourcePoint" />
            <mxPoint x="590" y="350" as="targetPoint" />
          </mxGeometry>
        </mxCell>
        <mxCell id="28zKGiVwG6CiP2PjTaSR-19" value="" style="endArrow=classic;startArrow=classic;html=1;rounded=0;strokeWidth=3;" edge="1" parent="1">
          <mxGeometry x="-0.3333" y="30" width="50" height="50" relative="1" as="geometry">
            <mxPoint x="420" y="330" as="sourcePoint" />
            <mxPoint x="420" y="420" as="targetPoint" />
            <mxPoint as="offset" />
          </mxGeometry>
        </mxCell>
        <mxCell id="28zKGiVwG6CiP2PjTaSR-20" value="" style="shape=flexArrow;endArrow=classic;startArrow=classic;html=1;rounded=0;strokeWidth=3;width=8.571428571428571;endSize=5.633333333333333;" edge="1" parent="1">
          <mxGeometry x="0.6364" y="-150" width="100" height="100" relative="1" as="geometry">
            <mxPoint x="420" y="240" as="sourcePoint" />
            <mxPoint x="420" y="170" as="targetPoint" />
            <mxPoint as="offset" />
          </mxGeometry>
        </mxCell>
        <mxCell id="28zKGiVwG6CiP2PjTaSR-21" value="" style="shape=image;verticalLabelPosition=bottom;labelBackgroundColor=default;verticalAlign=top;aspect=fixed;imageAspect=0;image=data:image/png,iVBORw0KGgoAAAANSUhEUgAAAgAAAAIACAYAAAD0eNT6AABb+klEQVR42uzdCZhcVZk+8Pc7t7q6sxFCQthkUZB9CaAIhKS6O4kQsnQSUtUJIC4o6Ki4jI4zjtoG932bQcEZwQxCUhWSVKeTgFm6KwHZEWQTRFYhkARIQtJLVd3z/Z/uoH/FJH1v17219ft79FGxu6vqq3PPec+5595rQERERIMOAwAREREDABERETEAEBEREQMAERERMQAQERERAwARERExABAREREDABERETEAEBEREQMAERERMQAQERERAwARBavp5thRrAIRAwARDTYR84vY9bE6FoKIAYCIBguFQLVh+HB7EYtBxABARINEPHXeGECiRiMfYTWIGACIaJDYifzBvf8p0ImzF8VOZkWIGACIaBCIaO1puwOAiDWmhRUhYgAgokFAxUz423+HXjRzyTmnsypEDABEVOUc0fq//neBCGzd11gVIgYAIqpiTUsa3gOVY//+nwkwbVZy0jmsDhEDABFVKWvtHnf+W1iuAhANMsISEA0Ok2+efOgwJ/8nQIbu6f/PqTSual7fzkoRcQWAiKrIMMcu2Nvg36tG7NdZJSKuABBRFWlKxsYB5l4AkX3+oLrT0s0bVrFiRFwBIKIKN3XV1FpAft3v4N/XI5iv9d0qmIgYAIioskV3dX8XkFM9/bDKGTOXTJzNqhExABBRBZu5eML7objK1y+pc3VLSwv7BiIGACKqzMG/caKIc53f3xPgpPtOXj+fFSSqbjzXR1SNg/+Sc04XrV0HlVED/BNPbTvQnpBpyORZTSKuABDR4Bj8ex2z/1Z8gNUk4goAEVWApiWN58LqSgD7F/q3FPq8HTL8hLYZbZ2sLBFXAIioTM1INk5R1d8GMfjvnh3IEU7Xri+wskRcASCiMnVhqr4pAlkkirog/64KulXdE1ckNjzDKhNxBYCIysjMxQ0fqVG5JejBv2+GoKgz4vycNwciqj4OS0BUwYN/cuKnIPJfAgkzzB9z3GPv2PpE6pl7WHGi6sFUT1SJFDIjVf8dA/l8kV6wy1h75rJ5Gx5n8YkYAIioBFpaWsyDJ3VcA5gri5o5BI+/Gs2+546mO97gt0BU+bgHgKjSBv+TN/yy2IM/du8HOGFMT/T/uB+AqDpwDwBRhYgn485fDnr816J4fwnfxvHHP/p2PLHk2Q5+I0SVjUmeqEIG/x7ZeoMoLi31e1GoQuXDrc3tv+I3Q8QAQEQhueLaM2teGbXfIgBzyuU9qWgOqjNbE5lb+Q0RMQAQUQiD/8sH7JcUxazye3faCdFp6XiGpwOIGACIKCjxZDzaI1sXl+fg/9eVAOxy1F6wLJG5nd8YEQMAEQ2Cwf9vIQDYboBJyxPt9/ObI2IAIKICBv8stiYBNFVQT7LVCupXzG1/lN8gEQMAEfk0ddXU2sjO7iUGmF557143ucbG2uZu+BO/SSIGACLyN/NPAZhZqZ9Bgb8Yi/rl89r/zG+UqLzxToBEHPyDnFG8TR1tn3PLpHfwWyXiCgAR9Tf4y+YlUDOjWj6TQp8XV2Pp+Zln+Q0TcQWAiN7iimvPrOnBlnQ1Df67ZxZyBCJm7bRk42H8lokYAIjoLV4aNeK7ArmgKj+c4mgHujaePO9AftNE5RjUiagkpiUnznRglgukqo9DK3jIRGx9enZmG791IgYAokFtZjJ2DGDuE2Dk4PjE2rFtl07NfDDTzW+fqDzwFABRkcWuj9WJyOLBM/j3zTXq9x+OZKw9FmELIGIAIBqURgwzP4HKGYPug6uZsf9W/A+UK49E5cBhCYiKZ2YqNs9AvjV4KyDjjn/s7ZEnUs+uZ2sgKvHRyBIQFccFyfHH1aLmXkBGDPZaWMHHV8Tbr2GrIGIAIKpqUxZOGTa0LncPICeyGn3cPNw5KxMbWlkKotLgHgCiIhhal7+Gg/8/cCIwN89KNp7FUhAxABBVpabUxCsBXMZKvJUMVdjl05OTj2AtiEpwBLIEROGZsaTxVGPtXYAMYTX2Rh/s7K45b81la3axFkRcASCqeOPT40cYq0kO/v3OQ8YNrcsv5OWBRAwARFUwqYWMzkavB3Aci+HJnKZkQwvLQFTE6M0SEAVvZrLhswL8gJXwk5lUIXpxazyziNUgYgAgqjizkpPOseJmRKWG1fAdAzpdK+e2zWt/iLUgYgAgqhjx5PkHZCV7PxRHsRoDXQnAc6bGnLl89rpXWQ2i8HAPAFFAWlpaTDe6b+TgX/Cs5Eg3Z2/orSerQRQePguAKCAjP+H8p4FcwUoEEgKO3XTQ8/knUs9sYDWIQjvOiKhQTalYPdSsZagOjopaqE5rTWRuZTWIGACIys7spRMOcfORBwQ4mNUIvIfa6hh7+tKLMn9hMYiCxXNsRAVoaWkx1nUWcvAPaxkAY1wXN8WTca6sEDEAEJWPh07KfB0qk1mJULupCVnd+mXWgShYPAVANEBNiydeqMasEBUG6bAXAkStqkxZkWhfz2oQMQAQlW7wv3nC4YhEHoBiDKtRpBAAvGjzdlzbxZmtrAZR4ThzIfIpnow7GnGSHPyLPls5zImY/2UliBgAiEoiK1svE5WzWYmSmDkrOfFyloEokFBNRF7Fro/VjRwmTwjkCFajNFSwC2rHtSYyT7EaRFwBICqK/Yfqpzj4l3jWohgGMTfw0kAiBgCiopj2m/NGqZh/YyXKIgSMz+qrn2EliBgAiMIfdGpq/lMgB7ASZZMCvj5jScNJLATRAA8hloCof003x46CY/4IoJbVKB8KvacWB56bSqRcVoOIKwBEwXPwdQ7+5TiDkbOyuvkqVoKIKwBEgZu+qOE04+gDvONf2a4DdIqVU5fPa/8za0HEFQCi4Cb/xn6Pg39Zz2OGqmN/CeWEhogBgCggM5KNUwAzhZUo90UA0zArNfFDLAQRAwBRwVpaWowR+21WojJYmO/Gk+cdyEoQMQAQFeSBEzsuhsoZrERlEMgB3XC+xUoQeT1miOifxJPxaDe2PG4g72A1KodCVYw5Lz13/e9YDSKuABD51oOtn+DgX5GrAAKrv4i1xyKsBhEDAJEvTcti+wvwRVaiYp0ycot+nGUgYgAg8idv/h3AaBaikjkLZi+dMpZ1IGIAIPJkWrLxMKh+kpWobAKMtPns1awEEQMAkbd5I/B1QIayElXRvX14xpLGU1kHIgYAon2amjz7FIG+j5WonjxnrP6IZSBiACDap6gM+fbuRQCqIo3TkhNnsgxEDABEe9SUitVDcSErUX0iYr53xbVn1rASRAwARP9IIQrhHeSq9vuVY1/af+TlLATRP+KdAImz/+SEZiCyiJWo6hSwyR0y/Ji2GW2drAURVwCIsHtpOPJ1VqLq5zqHmK7Oq1gHIgYAoj6v7L/fxwAcw0oMgggA/UI8ef4BrAQRAwANcuPT40fA8Ja/g8j+Wcn+G8tAxABAg9yYnugXoDiIlRhEVD8546ZGfudEDAA0WM1eOuEQFXyalRhsZKipsZ9jHYgYAGiQsnn5kCiGsRKDcBEA8jE+KIiIAYAG7SDgXMoqDNI1AMUwN5//V1aCBv2xwBLQYDN1cezsqJg7WYlBHAAFuxwn8o5lc9ZsZjWIKwBEg0TEyPtZBa4CaD7HPSDEFQCiwSKejEez2PoSgNGsxmBfBdAdtRo5IpVYu53VIK4AEFW5Hnm1iYM/7V4FkP26kLuClSAGAKJBMe1TLv/T33WA5lPxZDzKShADAFEV67v0S/S9rAT9bRUAOKxHt/KKEGIAIKpmNpe9RFT4XHj6xxAg+LeWlhb2hcQAQFTFPf1lLALtwXEPndxxIctADABEVWj2otjJgIxjJWhPrJpPsgrEAEBUjR28Ix9iFWhvBHjv7pBIxABAVDVi7bGIqsxnJWifIdGYj7EKxABAVEVGbcUFAhzMSlA/LosnJ49kGYgBgKhKqHLzH3kyPCv2gywDMQAQVYFpvzlvlIrMYCXIG/sxKG+RTgwARBVPItFmUdSxEuSJyrGzUw0TWQhiACCq9AZuLG/9S/7WAGA/wirQoJggsQRUraYvmfhOY80TAmE7Jz963Lx9W9vFma0sBXEFgKgCOdZ5Pwd/GoBaE9FLWAZiACCqQC0tLUah72MlaIDxkacBiAGAqBI9cNKGeoEcwUrQQAhw0qxk41msBDEAEFVew+bmPyqQ5QoSVXvQJaouUxZOGTa0Lv8ygOGsBhXg1SjGHJpKpLIsBXEFgKgCDKntnsvBnwIwuhOvXMAyEAMAUYUQifDWvxSICByeBqDq7StZAqom05OTjzCSf0ZUGG4pCD35XO6QlZfc/jpLQVwBICrrRJv/GAd/ClCtE6mZzTIQAwBRGYsn444AV7ASFGioNEiwCsQAQFTG8th8jkAOYCUoUIpJ8eR5B7IQxABAVKZcMVNZBQpBpEdrZrEMxABAVKZEwQBA4bQtozwNQNXXrlkCqgazl044xM07L/LhPxSSfBS5Q1OJ27ewFMQVAKIyYt3IBRz8KUSRrJg5LAMxABCVWwAAeMc2CpWqE2cViAGAqKx6ZohRrWchKEwC1M9eOmUsK0EMAERlYsYtDScCwo6ZwuZoPs+rAYgBgKiMVgBiLAIVpamJ8jQAMQAQlREGACpWAqiftWzSaBaCGACIyqIR63msAhVJRHN6IctADABEJXZBcvxxUDmUlaDisTNYA2IAICqxOkS5/E9Fz51TV02tZRmIAYCohFTsuawCFZeMiL7RxctOiQGAqKQBAOYsVoGK33MqTwMQAwBRqcSTk0cCehwrQSXoOqexBsQAQFQiWc29W1TYhqn4FEfNTMaOYSGIAYCoFETfwyJQyTKAmPeyCsQAQFQSzrtZAypZ/gSmsArEAEBUmjkYNwBSKdtfY6w9FmEdiAGAqIhiydjBgBzCSlDJVgBU9tv/VYchlBgAiIppf5XTWAUq+RqAurwRFTEAEBWTK3oqq0ClDwCYwCoQAwBRMRuuGAYAKoMOVM7jPgBiACAqIlGuAFBZtMQRo7YYno4iBgCiYrji2jNrABzPSlA5sAD3ARADAFExbBo98gRAoqwElcUaAHAOq0AMAETFaLQ2dwKrQOVCAd6QihgAiIojwgcAUTmtABw546bGg1gJYgAgCh8DAJVXCIjYd7EKxABAxABAgy0AqPA0ADEAEIVKIYAey0JQWTVLAVcAiAGAKEzTUo2HAjKClaAyiwCnsAbEAEAUaoNVLv9TOTq8aVlsf5aBGACIQuIAx7AKVG4EIpo1J7ESxABAFBIrOJJVoLIMAcY9mVUgBgCisDpZxVGsApVn2zQMAMQAQBQeZQCg8myZkBNZBWIAIAptmsUVACrXAICjWQViACAKwdRVU2sVOJiVoPIMp3p4bxtlIYgBgChgtTuyR4oK2yyV6fgvpreNshLEAEAUMJX8EawClTPXyfM0ADEAEAUeAIw5lFWg8l4FcBgAiAGAKPAAYPE2VoHKOgCIso0SAwBR0BzRQ1gFKu+UCrZRYgAgCr5vFZ4CoDJnGQCIAYAo8AAgygBAZd5GhQGAGACIQlgCYACgsibKAEAMAERBD/4ivAkQlX0z1QPiyXiUlSAGAKKANC2PjQSEHSuV9woARLrzr45iJYgBgCiomVUOY1gFqgS5SM/+rAIxABAF1lAjB7IKVAlqTZQBgBgAiIKSV+UKAFUGVxkAiAGAKLiGqlwBoMogLgMAMQAQBdZQDfcAUKUEAGEAIAYAoqAocACrQBUx/sMZySoQAwBRcAlgBItAFdFULYayCsQAQBRctzqENaAK6VXrWARiACAKLgBwVkWVgmGVGACIAmyq7FSpIrjKFQBiACAKjnAFgCqDAwYAYgAgCpA6rAFVSFvlahUxABAF16cizyJQJbAQBgBiACAKrlNlAKCKaa1crSIGAKLAGqowABARMQDQ4KMmxyIQETEA0KBjGQCoIghEWAViACAKavgHdrIKVAkUqqwCMQAQBdVQRXawCkREDAA06JYAGACIiBgAaNAR477BKlCFdKsua0AMAERBLQBYhysAVCGdqnaxCsQAQBTUCoDkGQCoUnSzBMQAQBTUCoAYBgCqCC6EKwDEAEAUlIiCewCoIjjCFQBiACAKTN5wDwBVBlUGAGIAIAquoeZcBgCqCKLgKQBiACAKbAXAuttZBaoErthdrAIxABAFZOXFt29TUT4PgMq/U1XzKqtADABEQRGoAFtYCCr/pmpfYxWIAYAoQBbCAEBlT+EwABADAFGgjVXtZlaByp2jLgMAMQAQBYwBgMreG1rDAEAMAERBcnkKgCpArjvHAEAMAESBNlZRrgBQuduZ+WCGNwIiBgCiIIliE6tAZe5FloAYAIgCljeRP7MKVOYp9QUWgRgAiAIWNdmnWAUqZ6rmL6wCMQAQBWzZnI2bAOVTAal8FwCgPAVADABEIeFpACrjAMA9AMQAQBRWF8vTAFS28io8BUAMAERhsFAGACpbjrjcBEgMAEShdLCwDABUlhSqnd3RP7ESxABAFEYna5xHWAUqRyL4y5rL1uxiJYgBgCgEUdv1BwB5VoLKLpyqPMkqEAMAUUhSibu6VPSPrASVYQRgACAGAKIwicoDrAKVXbsUwwBADABEIfe0v2cRqOzYPAMAMQAQhUktuAJAZceJ1PDUFDEAEIUpl6t9UEUtK0FlE0qB7UvnrHuGlSAGAKIQrb509Q5R4fXWVE4B4EFI738QMQAQhcrC3s4qUNl0pKI8LUUMAETFIGI2sApUPksAhhtTiQGAqCgBIJ9vZxWoXGTR+SCrQAwAREWQnr/xBQWeYyWoDPQc/nqOVwAQAwBR0VYBxHawClRqKrjvuivvz7ESxABAVKyO13IfAJVBEIUsYRWIAYComI1XkWEVqNRcya9kFagywytRBWtKNTwDxVGsBJWCAs+1JtrZ/ogrAERF74BVV7MKVLoZlKxhFYgBgKgErBoGACpdABV3HatADABEJTBEOtcC2sVKUNEHf6hqzuH9KIgBgKgUUom7uiDCqwGo6AR4aMXF619hJYgBgKhULFaxCFSCBLCWRSAGAKISUrEMAFT8dqfK8//EAEBUSq2JzFMq+ggrQUUc/rNd3dGNrAMxABCVmKikWAUqot+tuWzNLpaBGACISt+UeTtWKiLL8//EAEBUDtKJdY8B+hgrQcXgWt6AihgAiMoHTwNQMeb+0C1nPt7I5/8TAwBR2TRmtTwNQEXoNGX1ggULLCtBDABEZWLZvMwjKniclaAwucBtrAIxABCVG5WFLAKFOv7n7W9ZBmIAICq/2dn/7f4PohDyJdDRdnFmKytBDABEZWZlYv2LCvAObRQKq8J9JsQAQFS2nTTwa1aBQuCKi2UsAzEAEJWpIejq7aS3sRIUKLEb+PQ/YgAgKmN9jwgGl2opWJZ3myQGAKIKmKwBv2QVKEA9mrNJloEYAIjK3PLE+nsg9l5WggKZ/Ysu5e5/YgAgqhSKa1gECoID/C+rQAwARBUiO3zozRa6hZWgggiePe2RWDsLQQwARBVi9YWrewDcwEpQQaz9Fe/9TwwARBWmxnF+oaLsvGmg8rCWIZIYAIgqzdKL1j0t0JWsBA1Qa3r+xhdYBmIAIKrEKZxEvscq0ICI/RmLQFXbvFkCGgyakvV3AHIuK0He6WPpeMfJEChrQVwBIKrYvly5CkB+Z/8/5eBPDABEFS6dyKR7Z3SsBHm0rbOr9kaWgRgAiCp+NgeF6I9YCPLCQn+55rI1u1gJYgAgqgLZYUP/D6IvsRLUj54uN/JjloEYAIiqxO4bA8m3WQnaFxVduHb+WgZFYgAgqq5VgLrrIMrrumlvg781rvN9VoIYAIiqcBVAVL7FStCeiMrS5fPWPclKEAMAURUa+/qO/wH0GVaC3iqr9gesAjEAEFWp6668P6dcBaC3UGDd6ubMXawEMQAQVbGDt+24AYI/sxL0t85Q8F1WgQYT3gqYBq2m5IRmILKIlSAreGjF3PbTeec/4goA0SCQjm9MquAOVoIci29y8CcGAKLBQqA5az+nUHb8g3n2D326RsbcwkoQAwDRINK36UtkKSsxiHOgyjdSiZTLShADANEgEzHm3wD0sBKD0hPbx9qFLAMxABANQksvWvc0gF+wEoOPivvFTEMmz0oQAwDRIJXN1n0F0E2sxCAi9t7WuRuWsRDEAEA0iK2+dPUOFfl3VmIQjf+Q/+DOfxrcxwAR7aaQplT9ekDqWYxq/6rx29ZE+/msBHEFgIj6Lgu0Rj6hojkWo5oHf1Ux+AorQQwARPQ3K+a2PyrAf7ESVRwARFLpue13sxLEAEBE/yDbM+SrCvyFlahKPSrul1gGIgYAon+y+tLVO0TdK1mJqvSdtrkb/sQyEDEAEO1RunnDKgA3sRLVQ4Hn3CHDvsNKEDEAEO2T1JirIHiFlaiaCPDxthltnawDEQMA0T4tn73uVWj+U6xEFQz9gltaEx0rWQkiBgAiT9KJjYsBy7vFVfbw3yl5+znWgYgBgMjfQRKxH4dgKytRmVzoV9PzM8+yEkQMAES+LJuzcVMO+mFWogLn/sCjh76+88esBBEDANGArIp3pCH4FStRUfJicPl1V97POzsSMQAQDVxnV+QqALyGvHKm/9/gHf+IGACICrbmsjW7rLqX8FkBFeH+g7bt+AbLQLR3DktA5N2TS5576fj42yMAYqxG2U79O3uQO3/x++/ezFoQcQWAKDDjHp24QIF1rER5siKfvzVxxxOsBNG+CUtA5N+MmxoPMhH7e0AOYTXKavhfk45nzodAWQsirgAQBW7Fxetfyam5pO8ycyqT6Yy+7jj4EAd/IgYAolCtal7fDsXXWYnSU6iKxUeWXpThY5yJGACIwjfusYlXA3YNK1Hiyb/gB8ubO25hJYh8HDcsAVFhZi+dMta6ufugcjirUXwWyOw40E7ONGTyrAYRVwCIimbZnDWboToTUD5qtsgUeDkSyc/n4E/EAEBUEulE5sG8uFewEkUc/EVzDmx82ZyNm1gNIgYAopJZGd/4GwA/ZCWKNfuXTy9LZG5nJYgYAIhKLoox/2ZhV7MSYbO/WRFvv4Z1IGIAICoLqUTKrUPdpQCeYjVCm/s/6A4ZwdMtRAXiVQBEIZi1qOFo1+idBnIgqxFkj6UvIe+enZ6/8QUWg4grAERlZ/m89j9b41wEoIfVCGzm/wZUp3HwJ2IAICprK+eu2wjk369Q3pq20KFfNAdFPJ3IPMhqEAWDjwMmCtETqecffWfiCBiYelajkJmKfDLd3LGIlSBiACCqGE8mn9tw/ONHHgXIOFZjQL6RTrR/l2UgCjpYE1G4BBrVsZcDdhmL4dvCdLz9yywDEQMAUUVKJVJuFD2XAHYjq+GNCpZvO9Bezsf7EjEAEFV4CLirK4qaGYByI1t/gz+wLjesbh7v8U8UHt4HgKjIJt88+dBhTv52QN7OauzR3VHYyalEZidLQcQAQFRVpi+Z+E5HnY1QHMRq/IOH87lcbOUlt7/OUhAxABBVpanJs0+JypD1UIxhNfqW/f+4HbYhk8i8zGoQhY97AIhKZHXiroddF5MV+hqnIvpkp+tM4uBPxBUAokFj5pJzThetXQeVUYO0BH/a5Tr1a+evfYmtgYgrAESDRuvcO38v6kzru9f9IBz885AGDv5EDABEg9LyxLo7DWSGCnYNtpn/ysT6F9kCiBgAiAatZYn2jKP2AhXdwZk/EYWNewCIyszUJbF31Vi5TSAHVOlHfCoP4cyfiCsARPT3Vs/N3AfTMxmCrVU45XgWrp3CwZ+IAYCI9qB17p2/h5oYoJuq5TMp8BzytiE9P/Msv2EiBgAi2ot0Yt1jgDMZoi9Vwcz/z+LmJ3DwJ2IAICKvISCv4yH6ZAXP/R9zjK1Pz9/4Ar9RIgYAIvIaAuZnno1q7TkKe2fFDf3Qe9y8xpZelPkLv0kiBgAi8imVuO21WuC9gF1TKe/ZAm12yPCGtoszW/kNEjEAENGAQ0BmZxRjpwNYWOazflXgu3UYM6ttRlsnvzmi8sT7ABBVoJnJiZ+CmB+KSlmFeBV0A7iyNd6+kN8SEQMAEYVgWmrCJRGN/C+A2jIZ/p9R03NR3yWMRFT2eAqAqEKtjG/8jaq8F8CrJR/6gZX5XP5MDv5EDABEVAStzes3OI45SwWPl2bgV4XgO6c/OnHmyktuf53fCFHl4CkAoiowPj1+xJhsdBEUFxbxZV+F6iXp5o7b+A0QcQWAiErgjqY73jjotR2zXOC6Is3874GbP52DPxFXAIioTDQtjn0GYr4HwAmp13g2ql0nphJ3dbHaRFwBIKIykW7O/Aiq0xTYHsr4b/EFDv5EXAEgojI1NXn2KTUYskKAI4P6mwp7Z2s8Mx4CZYWJuAJARGVodeKuh13IeAD5YAZ/VTHmMxz8iRgAiKjMrUysf9FC7wribwn0pvTc9rtZVSIGACKqAAKzMoD5f5eLmi+ymkQMAERUIdRgVcF/A5JuS6x9ntUkYgAgogqxYu76PyjwXCF/wwIrWEkiBgAiqjACe2sBv57XXG41q0jEAEBEFSYPXVXA7P8O3uefiAGAiCpQtrt23ZvP6vdNRJ9kBYkYAIioAq25bM0u0YFdDigqm1lBIgYAIqpUIn8YyK8p5GUWj4gBgIgqln14QLkBLgMAEQMAEVWqrMUjA/m9vIm8wuoRMQAQUYUaLnhEoep/BSDHFQAiBgAiqlSpRGanAM/6/T23exhXAIgYAIiosonPfQDatfrS1TtYNyIGACKqYCo+9wGIcPZPxABARJXP35UACuX5fyIGACKqdI7rbwVAlCsARAwARFTxDty+8wlAs15/3gUYAIgYAIio0l135f05QJ7wvGIA8BQAEQMAEVUJz/sAVF0+B4CIAYCIqoECf/HeQRiuABAxABBRNbCwW73/LB8ERMQAQERVwQG2eP5hsdwESMQAQETVQASeVwC2AztZMSIGACKqAipmC6tARAwARINtBSDvfQXggIgVVoyIAYCIqkBPvs7zCsAbPbUMAEQMAERUDd58ul+Pl5+tdbgCQMQAQETVQ/RVFoGIAYCIBhkL2eJtBcDlCgARAwARVc8CgLeNgG6WpwCIGACIqJp4WgFwHW4CJGIAIKIqOvDV0wpAlJsAiRgAiKh65Pv+RUQMAEQ02A58x8vP2ZxGWC0iBgAiqhICcTz2EPuzWkQMAERUJayop2Nf1Y5itYgYAIioWg58FettpcAcwGoRMQAQUfXIeVoBMC5XAIgYAIioWlho1lMA0AgDABEDABFVCxV0e/xJBgAiBgAiqhYislgFu/r9OQj3ABAxABBRtVgxt/1RqJ0L0Rf2vVLAFQAiBgAiqiqticyt4x6JHWVgJ0DwU0A3/9MKgIIBgKhK8T7fRNTnimvPrHlx1LCpETiXA7gQQATQB9OJjtNZHSIGACIaBGYvnXCI65oPQM2k1kT7ZFYkPFNvnLpftHbXfNi/3nVRsiKmb3+G7dusKV19/1htp6j29P2ERHYB1tOVHD3GStT9xzs6WnFEZPc/M1YF0t8dH11XEXnNQF/rRtdrBkNfW5lY/2I513XmknNON7bmDMBxrOZ7YGo6gbwrVnZg95Uw2x1xrPfB0g6xijpvP61RNZFhf/1fBm5X3/eosi1v7C536NBnVl+4uocBgIhoEGtKxm4EzCWV9871DUAeA+RhCB4Vxe9Oe3TCfQsWLLClr+mkEwH70O5VrLLkQvAsgCeguFsgt5aidgwARESlmv0nzz6lRuoeFJXq2I8l2ArFbwG5VWpk1fLZ614tTQBouAXAnEoqnYVuMSIroPZn6UTmQQYAIqIqNjPVsEwUs6rxs6mgW2AXW6v/vaJ5w73Fet0ZyYlvFzFPVXioWg91f5Bu3rCKAYCIqNpm/0ti76qxco9Aqr8fFnuvAj88/ZH6ZNjL3DNTjV8S1a9VRYgCfgvYj7cmMk+F8fcdHoZERMV30uyjojDmBUA2CeDuvuui1FRpAjhMIHNfPujZGcfPPfLpJ5Y893RYr3Rs/PAXVM1mEbyo0B6BDAO8bt4rs6oBR0PwgePjRz71ROq5x7gCQERUheLJuPMGXjqmFpFTAHOKAuMFqC9koqaiOVVd6MDck4P7chTOdtd074jI0O1//3M2Z0UjGAPXHa3GGQPYwxRyilE5GdDjAIkGOrMV3Ghz9jNtF2e2FqO2s5dOGevm3OMFOg4G5yt0iuhAw5ZdBsXGv16p4artNAZ1qk6daH4YxBkL4GgVPVpU3gmgtvCVAFXAXNWaWP9fDABERIMiFJx3YA9qPgfo5wdyqkDFzm+NZxYV8h6uuPbMmi2j9js3D73AABcocFowpy10MxSXpZs7bit2XWcvmniCdZwVUBzt5/dc4Lq2RPuV3r+/s4dktW4iRN4LQZPf1/unECDygdZ4+0IGACKiQaIp1fhpqP7I56/1RDFmWCqRcoN8L32b7OB8VIDLAYwubCVArYW9um3uhqsh0GLWdPqiCWcY49znK8yonZ1uziwfyOu1tLSY+0/cOM0x7peh5t0DrFiXNebsFXPX/yGIGvBWwEREZW7cIxN+CtEn/U3vdHPQg3+vFYkNz7Qm2r+wbZd9GwQfevN69oHNQFWMo85XZy5pWHjFtWcWdf9D27yND4jg974GTDGvD/T1FixYYNua16+I6thzFO6newPaACo2xFj7c2gwk3cGACKiMtc7eLgqHT5/rSvM95T5YKY7HW+/PqpdJ0LtVwDtHHgQwKWbRg1PT101tbaohVXzgL9fsAUHqt5Q1prY8BOIvQDAtgFU69ymVOMsBgAiokHCwPW1C1whbjHeVypxV1e6OfM1uO7xENw28M9nptbs6l4Ua48V7e59rthN/moaCaym6XimQ1WaAM36zwD20wwARESDhIizw+f01i3m+0vP3/jCuEcmXgjgahW1A1wJmLX/FufnxXrPjtVcKWva2rx+g8L8q++FC8WEacnGwxgAiIgGA813luMKwN9bsGCBTSfaW8TaGRAd4Ply/fCMVMO/FKWkxtFSh6pajP45RH2dipDeOKh6IQMAEdEg4GpNp7/OXd1Svdd084ZVWe2O9V3qN5CVAOiPZyUbzyq7DBbAHoC36tuoaf3fuVDFvocBgIhoEBDRXaWerfqxOnHXw8baeghe8f1ZVWqs6A2x62NldQc/a5xQbmO8bSzaAPW1H8EITmUAICIaBPJq/Z0CUORL/Z6XzdvwuKjMHMgVAqI4YeQws6DM1gBCCVWZhkxeRdb5+37NoQwARESDgeNvQC/FHoA9WZ5Yf4+K+cBAflegn56+ZOI7y2b4D+EUwP//43K3z9ocwABARDQI1CDrc/ApjwDQqzW+PgXYawcQAaKOdb5X7SsAfZ9U3b/4ywtiGQCIiAYBxRDXZ+fultP7d4eM+CyAgTzWtmnmknNOL4fPEJWa0Grq9y6Don73hDAAEBFVpEjetT6nlLac3n/bjLZOqPupAYUfrf18ta8AWLHiLxDqnxkAiIgGxxqAW+mfIN28YRUEq3wPVCrxpptjR5X+E7jhBQBgiL+fNw8zABARUcUQlYHs7I/AMR8seQST8DYBGnV8XfIYUf0tAwAR0SBgTU1VPL6976oAYN0AksO80r/7uvA2AUIP9hxEgO01orcxABARDQLG5qumvxbYXwxg+n3srGTDmdW6AqCC4z3XT/RXqURmZ6GvGSlm8eLJ8w7MwcxcntjwvwP5/ekrpg81nZ3vUrhHiJixfedjxHldBE9sG23vzzRkwrnxhUKm3xI7zrH2NBfmCEfMaCh6INhqVf5oatx707Mz2yr9oJyycMqw2mj3cY7BO3s/ZwSyn4r0PaNbVbZB9VVj9Glxah5eNmfN5kr5XLOXThmr+Z4ZCuewdKL9aj+/23TzhMPhmEkCOdNCz1TIQbuTc98lVo+pyH0G9s7THom1L1iwwFZKTab95rxRTqTmxLzRMVG1YwAn2neCU20nxHnFuO6fxv2x/vlK+kx7csW1Z9a8NHLoKY6pORKqh6vBQQI4fTNqix3GYJOq3dTp1vxh7fy1L5XzZ+k2PRL1d5q4bEUxtjUrW7dCMcZfV4yZAO4vWQBAPsT7AOhkeHvM/zbj1Hw7mCAWdkeTbDysBjrNhZ0lIpMBONvHaK3Xwbq383bz+UshmAPoWaK7B6Q92AnYtMD8aHmiPZAGMis56Zw87AccQRMUB+3jm8sCslpFflOro9OpRCpbCQdhS0uLuffEjTEjOs0ROxFqTvcaChV4GYK1ovk21Jjbyi0AzV4UO1kdc6GqNqngbFExgL6RjneMhED3HVTPHtIpNXMiat6vIpN2/+6+WejTjthrenqG/XL1pat3lNt33Ru+s1Iz3QIXQPVdBvIODzOSboHe48KuN9ZZe/pjE+8sKBAoZFayIb68uT0Z1ueMtcciIzc750J0mkAbAZwKSNRjb/gKFHfkJb90qNa2pRJrt5fTdzh9UcNpjsGD3nt3XZuOd0wp1/6nKdn4S0A/7LMRdaQTHQ2BvYfFsS9DjOdJQTZbNzKM43vmknNOF1vn7YFA4n40Hd9wbdkFgN4B5Z6TbjvJ0aHjjdHxApwHxT/t3DSR/KHL5mzc532Ppy2ZNMFR+1lAp+1j0N9zZyxI1mnuE6nE7Vv8d5TxaFY2XwaVjwMyzu/v9w4EFvYzKxMbWsv1wJu1qOFoNfiXvnNqKocG8Cd7w9xKA/v9ZYnM7SXpHG+KjXEizgQXeoEjOhUqh+8xOsMekklkXt7T/zd11dTa6BvdV8Lgi/sOfPvsdF+wai5fkVi/phxmv6+MGjoHcD4KyAS8OfMd+PitzxtgYd7YhW1zN/zJV5tbNmm05vL/DTH16Xj7wcEPJpNOBOzlFvo+AzkwgD/Zo4LVRuVbyxPr7ymH49bXIFEJAWBxbBbELPPZCruyw4eMWn3h6p5SBIDO7sjwNZet2RV8+21IAZjb/9imN6+Id1wc1OsWFACmr5g+tKZr17st3PMgzrlQnAtg/37XL/bRCffOulXcq6F9qwWFdFebs6pNq5szd3kc+J0efflSMZGv7im0+GevPej1nZ+87sr7c+VywM1YPPHdRuQ/VKTJy6x2gO6G2i+lmzNrw5vNnj0ka4acqlbeDdH3iOI9ADzdLjSK6OhU4rbX/qktJxsuNtBvCeSIglfyoCqQH6Xj7Z/rb7UhlDC0YvrQSPeuT1jFVQIcFsqLiL0X1kla5DM7OuXhzAcz3Xt8L0tix0O12ai5SiAH7P4OuoamEnd1BbLSk2yIWcF/QHF+WPW0QJuY7q+0zr3z96VdAZhwhmMi91dLAIgnY8Oz6Lv5jb9T0QZnp+e2312KALBtlx2yt7Y+8PdQfz5EbvXwo+uj6Joe1LEDv4Xv7Xh3Sd17a1Qmqui56N55pkXv7NyBr25uF/5puTiWjB28n8gPVe18aBALEzI2KrJmVqp+1vJ4xz53nM5c3DA+iy3XiERODa67Nle+PGq/t8eujzUF3WB8dxxLJr7TseYb2pcwRSTcIek9KvLbpmT9DajRzwZxaiCenDwyK7k4+laUzBlZ4ARYRPrGVp+fZdTrW9/4+/8955bY2/Ku+YUA04JaEBNI7x/6bFOqoS6t7Z8oWghQyMxkw4ele+dXVeXQUM/vqekNX+82cLD/MORnJhteFOA1iN0GNftZQcSovgNWRrz1VzfvqtXCZ0yxcYD8yAL1YVfXANNh6y5oWtzwjW1j7ddD22vUDzdiQnoWXWmkEpmdTcmGhwH4usufuvnj+yYaJXBcdqebCXJVJxk7BiI39teGFXprV3fN3PRlwQ3+vgLAtOTEmT1i/q9GZb/d4XJg3YsKuv9hQFTIrFTDRxT4DrT/1QOfhqvK8tmLYucsm5d55J8+02/OG2VqnO8B+iHs7rSDnSQB791/GG6C4qJSzATjyXi0S175D8eaLwISlX6W1hTytIhugsoIFewnqkcBMmSAA+AHkcf5s5KNswtZQu0NL1mbz0DNIQWPWYLuv1+R6Z31511cI8DIkL6Cf5mZatjZivYvhB7ykpOPMCn3VyKYtLcArYLHRbFaxb1DrOxQOFkDHAaxp+juADTQx4tGBDgSvf/W3QtLRve6wJjPfCDTgw8WMmvE91XkIx5WsXYq9DER7LAqNX2fFXqE5z0Bb+0rBS37b5Epc25pvHjpReufK/bxHHFVIKgqCr1LIP5u82six5bq/R7y0nQ3qD2IU5fE3iVWWve1EVJFc2Llm7Vy4NdaL0sFvgEx4v0HnfdBsV/Bg6Lqjv9/MJ93YHeq5lfam7DDM9was2zab847a+Ult7/+d0s/k1XM9QK8LeT5w+yZqcYvtGL9t4s968/aLUscdfbVqW+D6PUQWZy+qOOet4aUeDLudJtXTxKLCwG9VICTfI64hyp0XdPi+rnp5o7bBjjTfB8ghwQSyN5se73BqAdbvi/AJ0P/IkQ/NzvZsGpZoj0T1kvsXgbPL4PKqL0ksmcV9j9Of6Q+uZdNfDcD+GLfJjMH34T2ft8hdfii9w00DM9KNp6Vhf4GwDF7W8VS4GUB/tdYu2hZc+bRPbTpaNa8+i5X7QUO5H3+T/fJua61G6cvmTjJ7z6IgnsSxzGw1RUARORxv61BFCULAB31HQYLCvsWpiUbDxPYzzlWPrGvMVhF77KufLRtXvtDodXf6w/OWDzx3WKcH4lifIEdgJW8Hi0RnKwq1/XTufdAtNMq8iIYXdh5a7ssHc9cFE+dXZeVId9W1U9KCLP+vX2OHmRPuzVxxxPFeLGZydgFAnPzvvdj6PUmUvPvni/nU8jMVOx8gXzH70xxd4rVRLo5s9z3wbJk0oSIddcOcNb21tnG8xFHx+ddJAXmnGJ1Ghb6dHd3zanhbB6KzQXMjQBq9/yZ7Z21qJu+p30Pex1oFzckrMGvRDEs8ACguLy1uf1X/j/nhGYg8uu9fU4ALgTfj6r9utfro1taWsx9J6+fb9S52stVEW/5JJuMtZOWzdvweLHaUd/+KNjf+Rgpy3oPQN9nSsWmq5oVPhPAhnS8IxbI8eNzDwAUC0RkVQ86u4Y4w3Zle/I7hkTQ/dY217Qstr9jMbzL7RlVo0NHGejBCpwI0Rgg5+178q2bIfLv6bntN4S9cux7AOzbiap1n4Dq/IEsD+97oMCuviVKzbeJRO/ddmD+yb+eb+tbzrZbTzCOzBDo5QPbqGc3KswRby5X7vknBA8Z1Qeg5jE12L3MZ3NDrXGOFkWDAc4a2GBkl6UTmTmhD/6piXMAs2gfV064VnDVinj7NQP5+7H2WGTEVv1PR50v+9xVvtNYu8dTMf0epDfHjkLEfEahH5A3T0EN0E4L7drbLvG+zXuCPwHylEJftLp7nunAvh1iTvd7zfJbZqb/2ppo/2Gg3/Xixokids1e26Pg2Xw2d8bfr3x5Xp5cHDs7KrIOkKEBroasHfdI7Hy/lxI2pRo+qdAf730CoG+I6MXL45m2gbytKQunDKsbkvu+Ufmoz+/0RScSOaNY98RoWtJ4LqzeUU0B4M2rNx71eTT9IZ3oOK0kAWDf7+uNN4/F2gL6iT86kXxjf1fJlSwA/C25LZs0WrO5D6s4H9vXgOrxYz8DlR9nc3U3eLnGsi8MYPOnjMg3/F4iuJeiP2cE1xgji/s7tzd76ZSxNp//IoCP+vmiewcXNXLKirntj4Y386+fBsGyfdVEgCuXJ9qvK/S1piUnzozALPIZAp/K53JnDWRA6jU+PX7E6G7nMhjn46I4IcDo2QGRhdvUrt7b1Sl/64DVvQJqLvG7gdZCnz7j0dg7g7qxzu4bFEV+D2D03j+WnVLI1RhvzroXBVTkdDZbd5nfa6ibko3vU9hf72O1zlXY6a2JzK2FvsHpixs/6oj+l69gO8BQMxCzk7HzLMzGagoA8eTZQ3pQt8vPaqxCn29NdBxZfgEgoN4I2A7RpKO6cFk8c0eYqwBS+BcYd7qwtdkR/NDvtdMKfQ0wLbUYfd1Abp7Td+4T6E39wwdWaH0e6n6lVg6+MZXwt8Fi9qKJJ1jHWeVnJUKhP2tNdFwVSuewaOIJrmPu2ucMWeyv0/HMBwJebUj5OTWjor9sjXdcUeARIrOW1DeqSu/McOZAT+VY2NVisv/p9/KuqUti76pRuV5UTvZ1sImdMdBZ6j8PjA1p7L4r2t46/0CWSft9nX8MHJ9VmJ1icDRUx+rucPi8a0zbyrnrNg7k+HZF1+w75LtfSic2fCO4VZWGD0H0f/y0KVfcr7bFNywIe2DYfTrMbqimANBrRrJ+s597N6jojtZ4x8hqDQBvGaH/DGt/bV3nuhUXr3+l7ALAWzrFu70PBpoykZpPFLp8dmGqvikCLPW5P8CF6I+i2v2VQq6pnL10wiFuPrLG++Y43ZSOdxwWdKLru4HNzq4HADlxX6nS1Jijl89e92qQrz0rNfFfVZ3v+6m9mu53B3VN9YxUbKpA0n5WgnqDp1Fcsby545aBB9++SxPX9F0O5z233NCaWP/BIFZ6BNK2775fLl7evP7mgmfFPq49d1U+1ta8/hfBzAzPP6AH2Yf62aT7VBRjTgr6zpuzkvVfU8iXfPxKj4V7worEhmfCXQHom/B0VFsAaErWP+RnX5FCtTXe4QTRj5Z9APhb6EE3VK/fDr16X6uUfgV2M5jVczP3QdXrtZnXpBMdiSDOna2Kd6ShZqGP9GihOi0d7/h8oTdUWDZn4ybH2nl9mxW9HZGHTF884fSgG0fNru6v7Gvw390X2B8EPfj3Wh7f8AMF/CwTO2KjPwnq9VfEM6tFvb9+7+whh+76QgZ/9F3DvHZ7VOsugKiP+8frlGBSu3y2nx/J9+RqVwbxWm3zNj4AwFNYc4x7clDfaxbZn/V7hY7gm2HcdrsGB36177SQd7UC55thDwI94d28q8SzXNnks/27pbisuqQlUtQJ5GP7w/ypd9IVT8adsgoAu78Y84yHDjiXz+W+FOTrusCXdt+P39MI8MKAL0nbUwiYl3nEKq72PvrVNAb52efcMukdgH6+v9CTF+dXYTXOWuSugmCrj2Y3Yeri2NnB9R/W82UyFvaHqxN3PRzE66YSt70mFld5Pz5w2O7vq4BZ4KKJJwBo7GeG9ECQ9yt3Rds8HlsnBTIjXNLwHoXO72dGtCuqNhVGe04lUq5r7BV9sy7v4a457CfVOaJSjYObqvjc8KZdpRuJcZsr+jUIvmOh33OB63r/bUVvBjQFsSsguhbAegD3q+Dx3ZsDAzNc1fl+N7Z0zF46oeDLowN9GqBCsv0FMwFeHugmsL1ZmVj/YlOyobeTmtP/96eBX4pVJ85/Z5H/kpcNcdbYMwINP677JcG+l78FuL23RmEdE6nE7VtmpBpaDPDfXn8navo2Ud4VSLuzTs7rySxXs0sDXQFp7rilKVn/WH8rMH97/Xz+VABPD/T1rESmof9j7NFgBx5ZCcWXPSSxowJ5Qavf7u8cvChuC+JxqHtd+Zi74U8zUw0/BPBFj7NSUfRdRfCRsN6TUWtQhYsAIu6uv95AyuMvdAbWfxo1jo+1BOO6n0kP4NLPvpvORZ2zjZrxKphT6CZmAznPzUfunZo8e2ohExoT8BfpoRuWUB6n6Krc4PFHhwQ/AK7dDsgyjx3FuKBed3cClPd5mJmtC/sgrtMx/wPBs95HbUnEk+cfEEzP6L1X7NxVG/jNW1T0Rh8/fkqBo8BkD2/o+SA/37iHJ97rZRZjVQu+b8CMJY2nAlLvYbaRCbtNu9nc9/tuluV5AqTxePLs0J7Xa8WpyhUAqBnl8zcCWwFw1DH+AoMM6NkuvZPeFfHM6nSi/Uut8fYTXZs/E9DrVTQ38MUIHBZB3brZi2Inl0UAKKXX63o6+s7v959ShobSWQCezrmK6pGBdQg5uczTKo76uHnIgENQKgtrf+qj+Q7JIjctkP5DPU8f3DCey2A00uG9r9vzUwr9jMf9j/9uoCtsuy9xk2c9dCYFBwCx9qMef3BD2G26b6VS7G98dMgjczp0VqgrANU4/kMP8PkLQS6pO6X4zG3zNj6QTnR8yGrkGIj9tUJ1gCsBB1rHrJh+U2xMRQQA1XDuZn1H0x1vQOVJD40tlIQeATze5U+GBjXzVWMu9fB5NZsbWpTHmebz7g3+zs+5gTzBzcI6Hmfq4cygavCk90FCBvx0vtj1sTpVHdv/azjBP9tArIfVHakt5CVaWlqMengkKoCd4x6t/0Mx2nRWcIO/Y9IN76mERqtzEyDgtz8M7GoLgb+aWhNsH9KWWPt836XZauoh+sIAE9RREjHXlz4AqCnpEpXAPt7/DDycFYAttdknvaa4HnQXHAD67ift4Tp0EWwKckNYvzMmqI8bssgUBBAIDRzH2+pLOCdQl89e96oKdnkLwHbUQF9n9H6RQ71cn66iwT/fQs0L/fdD2FLISzx00sZ3ebseXJ8qxo138ObVTepjT4XCnBXaCoCtzk2Af31MtOdpAxDYaTwLccqhBq3N6ze4OT1DYe8c4EA+fWaqMV72KwBAiI1YjJelz8gV155ZE8oKhMfNKY5FXaGv54hO8rjk8ufifrvGx/3+ZWxTalLBd/TzcQoAQV0+s4f30OmxPgMOoFnNeQs6wNsDn31K/zUWX5dE7mnwzHu9TLKoD+ERtYt9fIrj4snJI8Pp3qpvB2BLS4sB1NeqWATeV9w8tNmyqWnbxZmttcB7BxoCRPWbfvu3on94CfOBluptw84Lw8YOCaej8HbZkBpTW/BsQPXdHgecoj62VNX1d8c3zR9b+AqA9dzoR73+tAlpFtPp7b0O/BRUJO/tafCqckLgs0/VER4a218KrOKZHjuRp4vZpq2YO7z3AWJ61J4WxvvI2+rbBPjg8R1H+H2mjIp9MsgZi79jsCbU7yCVyOzUvDNbgYEcS8dk8fLcMl8BCHP0sZ4CQGe0c2g4+QNdRVxHOdVjKNlRzK9gRXzDs7tv8eyNK3hnoa/p+jg3+sLhY8Np8wKPlyYNfMlR1boeVwAOm7Vs0uiAP99+/bd/ubPAFxnnMeBsK2abfq02e+/ulWfPnephoQQRU32bACVijvXXx6pG1Q3yMlen3Gqy4uL1r1iVfxnYuBCZV8IA0P/yft/z1kJjtnv5qf1C2ggo8LYCkLd5LXymLcd6fFNvFPeI7s1B8nvvDVACWK42ng/i4TtfD2kFwOPmRy1gybHO+yVp+Zw9P+BD+0gPqxtrBvrnp66aWqvw/FyNncVs0n2n96A+9gG4B4fxPmrUVF0AUOA4n33sw6nE7VuCe/3y3FjZ1rx+BWB9H0+i+l4/l6KW4sOHFgDUeOwgjTM0pLfgaRAwkcICQN8eBul/N/ibDSJXgu/4fu+tQQq+m5XjYxlvW/eIUNq8VW8rAFrAjCM9O7MNoq97nNZMC+qzTb1x6n5AP3f5E7xy2qMTB/x8h8jOXYd6fgCPx/0WgX6/4mMjoJhQAoBKvvo2ASqO9zl6BHpPk3LaA/BPbQ7O9wbwiYZmNdpQzgEgvGRhraflbs3na0N6A93efixaUADYcuDQMV53tCtkaLG/BwMfNwSCHlz4gaKeB9XOkZ1h7QHw+jyIgl5fVR7wOBWYGtRNaaI1nWf1t1Tqwv15ITvzRZ1Dvf+0O6QEbdrHnTRlbChtrDqfBXCOv4Pdrg12kPV3Sq7bdBcthJ3x6IR1gG7y3U6M97sMmmATav8JXkK8n7UY5D3NNkwknPeg3u4S5VqjhXUE0SHeZy46tPizJdnqo2YjAhh8PbfjQ3uGhBMAxFvbK3TGIcAGj3UdlZXaSwI6sPq5M592Iif/XWDf4b2dGtmv+OOUedFHIM2GEwCq6xTAm1dLnOqjlWSjIoHeAErLOFT1BmoLXeX/Q5mjBuUKgOtjo04oA1/fv8KnuVytj8Hx4GLXQVU9P3VQ4echQnutu/cVgFx3WKcAPJ5qKey64yy6lvkYMr4yfcX0oYV10vEooB/qJ5T8pO3iTEHfo9F8jfc2bUYWvU37WgEIZ99NtZ0CyCI3xdcmPJG1QT//QXxcQYS+fRhOUcOnA3OP/7YqR5RvANDw9gAYK7aUDdqItwAgEdHCBhvp8j5rwJElKMRWHw2w4A09jo9Zdc3Q2pKuAFgtbAXgzQd/3O1xxDg80rXzO4W8Xo++PB/Y1z4NfXD343OL2YfYo4rfb1nv+w7EfSOcFYCaKjsFIDN9fgfXB95VlfnTlXLGPB5qVx1sA7XiYfwPMcWqW9qvy9vr521nQQHAVV+7oN8eZuja8yiXf8N7HtQAdvR6n1XX5HrCCQDqLQAE0uGo/baPvP2J6YsbPzqQl5lzS+xtIpEf7OOvd1ojlwbxTH6RGs/PL7Biji/6UKVWvU9EnJfCeA95v6dPy3h5e/f+FJnhY6q+NYqxrSF8scbfZCNS1L5UkHvZ/xwbneW7AhDmuCOmpCsAqt5ev87WFhQAznyi/jUfT5Haf9bihncUsw51kC1e7wUgKpsLP4a9H8Td+WgobV7hLQAEcd1xujmzHGLbvS/I2Gumpya2+LlL2Kxlk0bnraQA7OV+Atolgpkr5rYHck12N7o93zvCqB4b1h0d9/qaNbX3eb0XgDF4LqQQYnz+QqRc++purb2ot2/yPOmB/jyIoPnPx61xynlMc7uHveI/TJdxAAjzToBGbEkDgMDb6+cjhW0CXLBggRX1fqeovMF7iluJsV0CDPf23vIF39bVzx6ALgnngBd4u0mPBnTZkVW93OujagUijjpf7cGW3124uLHfS4RmJSedo3l7t6icvbfB38I0LY93BHZJVmTIqBc8Pc1z9ycaksPWcUUeshyv4a1bs+EEAONzE6CibAOAEfmYjx/fGYk4PwknVPkbA9UU93kMw6Ov+76M21p4vv17pKpWANSpMdASJgARLy9vCrwKYPexLX/yes93BxgP4KZilaELrx/mQKJefjbqmocKH3x7B1Vvx+V+0Vw4KwBi1NvOjmAePrIiseGZpsUTL4GYZfBYa4GcVSO6vilV/6Qokqp6v+vgj1GJZHP53GiRyHsAnaWwk/bajkWfdF13ftu8jgeCrF/bjLbOmcmGFwBve1YsZIqv+00UOhPLRd7h8eTlzhE49KlwOri8QPx02VKWs9vZyYaYBc713tfhmvTsda+GNGo45bwQ3pmL1EV8PrnGivtIiVYAPDwNUMNLUI64tSX9tjyeczM2pwGspPzexwE0rZhlcCT3Do/va/trB+GPAbyi544u69aEtQfA2wZQDe7GI+nmDatU7Hwfp4P+2k6PVciXesODY83jrmv/bMS5R6A/E2BfD5laGFU9s23exgdCajqP+Ah9U4qc7T2eRtP7UomUG84KQMRv2ynLCZ4V2+Kj73q5Fs43Q/xmy/o0eG2dM8z37zg1pQoAXpJ7iBvSrJQ2ABTxtpJi9V7vnSWOnLGk8dSivTfVo711qnZDpiGTD+AFPdfdcUNaAYDXK1CC7XBa4xuW5qxOVOjzIbbr3xnYCelE+/uDvgzrLbW53XuG0Qkzbmo8qIjH9jEe+7e7QnsH1l/faaX8AkBTMjYXahq8913yb6nE2u3hzdn8HY9Z1xb1FIC1cpy/8VWfXnrRuqdLFQCipWxceSltALAer3DIFXgZ4O5KOx3ez5n2taT5RVwIOcnjuL06oMp7XgFwopGQLgP0/F0Eviy7ujlzl5vLjwPwE9+rAXsNNNr7gTI50VnpRMf4ZYnM7WG3GwPJeM98UiMRvaSIh/fJHt9XW3hzVX+bAMXHHTKLYcrCKcMU8gMfH+C2dHz9jSG/LV81qi3yVQBWxdeTJY34a38m4Nl9nYc3GOIpAJQ0ABh4O0CDeBjQ8tnrXhXo/T6S9Af6niFQHKd4mMHlapBbEsxg5X1jX97Nh3QjIG+XiWlI9x5fecntr6cT7Z82bt+jgH+iwHb/wU1zFno71H7FWHnnikR7/ap4R7pYx8/rB+bvBXSzj5WfDxbx8PawgqabTn9s4p2hBQC/dwJUKasVgKF1+e+K55vU6Gabk/dDwt3U5XcToCBf3FAl3vdK9K1QiP2/kgUAI1pXygbmlvgUgIq3A7TO1mlAo84t3tsRDn75gGEzitRqT/HwMyuDeqqXn4PY2LBWAMTjHgAxYd6XYfm89j/3BoFaOEcCduNeZvevqehdgF3mQn8McT9qYCfUqh6wItExId2c+Vrv3yn28ZNpyOStYKmPVYCTZyQbQ98LEE/Ghquohz0AkizkeQj99y+u+Bs7yudRtzNTE+cA8PqIWxeKy1ZcvP6V0GfYPsfAYp5WmXrj1P1E9ULv7QN3rJ6buc/Pa0SCnQWhzvQ/XQut84uY/DAt5apX33W6/benfCQXSACwgqRAv+X1KWqipqWlpWV5mJ1ULBk7GIqDPLz5HwXY8jzv5M1H8iFtAlTP21viqbhJIRXqTau6THassc7b//Ed6X1Z1U+uTmTuDntmNfA27dxk1Pq4cZH9CoA1Yb6nrHFOFdvvyo3rOOan4c5WHZ+XD+nwcvhOL0iOP05g/sdHcPnk8uaO24rU4nxdBZCDFO021NHa7oug4vm5L2L1a74n7YGuAKD/N6sI7yoAtc6IUjZ0gfF4FYAE0vmuSGx4BoCPA0VOfeDEjovDrMFINR4Sq/6utXl9gA/18L6RpyYfToL3vgkQGPX60+FtFlXIrGTDx4w6vxfgbf9/dqCPRKENq5szd5Xr4N9r5dx1GwH9g48+57xZqfpJ4Y4R/c/CrOAWP5uvBsL1eQ8VFRw0ddXUkq6Kzrkl9rYoordBZZTHTvQ7yxPtPy/W+zPi77RKRM3hxXhf8WTcUcW/+viVdHoAoSnYpwF62AMQ5o2AXEFpE69YjwHABNYBq+hP/TV4uTrMTkGMzu8nACqMfDbgV/W87GMjZlgon9vHhswnosNDWaaatWjSsTNTDWsUuEYUw/6xX9WfhLuDP9Cp7s/8jc/yk9DadF+y0/420PY4rvly6IOV9RdeRcVEd2aPLtXXOPnmyYe6rtwmHu/tANHvp+Pt/17M92gVdf6agz2iGO+rS1/9iAAneQxNWx3HfmJgk/ZAO8H+i6nhnpcq6QoA1NtSvKkJLgCsmJu5FfB+TwBA3h7d2f2dcNL+pHdApZ9LfMyv03Pb7w627N7bsbUIJwCo91WdEWNGBHrcxa6P1TUlGxaosX/Y23X8Xm/NXA6iOnYhAM830+ntKGt2dX8ljPcyI9XQYLDvewC4ot9dPm/dk6F3L8b6brsu8tNK8R3OXhQ7eaiTvxOQEz3+yjfS8Y7PF/t9GsDX01IFiIX9nnqDvCP6PY8TQAurly69KPOXkgeA/8feuYdXVZ35//uufS4kISQRREofrLSl7Y9aL4AWFNhJAGkk5AKcE/09VB7rvY629fbUqW3GmelMW/RxOlWnWK2XQSDnREJCBC2QkABGbRUVdaz1MoLKRRAICUnO2Xu985wDM49ALnsn+5wAz/v5N/vsvbLW3u/6vu9a633ZkZpKXXYqA4MdARiElFIEtpT6UdKzdqxi+dayqkLPjwVaWt/f27EaBj4KQv3Yc8PoIuUpM6VEAGg4D6tndBzy7D0pixZclpultgFITIA9e8Hsm3uqCIBoOBqLE9/hToDhrkRfeNmOUCRkKHBfx9a2ZXDnv6bJvHzdtU0kumXWU7Oy0jl+JVHzClupzc52/HOMGdfUhhvvGRyfjb/kchAmFUdmpiwKYEbMUax0PRzMZQmbr5huqh3AfgnPDFFlZaUC9VQ45JgPNZi8NiVfiM52NoY6I0Vvk6Pnx9jyNF/Csws2bCLwMufvMCUc1sfnRs0izz76SP4cYpT1ckmXAb0wFUk9iHiE02t9KRKJBD7D6bV7PGiD2Wj6SqPmE8zJPSAOJga9qLSq8I40HgUdEMnjh8TrXfzEx8w1c6pnTPOqDV3Y/XcAXdCLMdtPGuXR8IsdaeoWsx82aUxmRuyhdFQETUxepRFzJbFaToCDzXK8U4Fn1FU0/nEw3rHSGjOXmIa5E5qkDFgpKX9dXD19XA5UI4BxTjx/IvrRqnDjIwOMgHjD6/9v89fJ2XqK77VvbTw7NV6YcnTfuMPr3AogJjjbIGIb47x+fgD+mwG4KawTJFBtabRgwGepi6rNSQQs702patbXpiSZTMKwMTmuD6/dKn7HdlY5bkOuUl8Z6PNy9mIBWC1yI/pAvHhX3rAPSyMFT5dEzbtLq8yy0siM8ZfWXpp9UqoAy/4BCC6OglGmwXZ94v8asDGuKpwLUot781w1q4p0HZdMfGNg9G89n9WiudUFK0KR2Wekom3lK2eNLI3mL84h9R6gyh3+rC4A6/x0JJjqZSKY2U+5f1VJxPyel3NHadS81tDGywR8q29bg06l6craUOPvBu64eKWmIubvAXWDQ6N9b21Fo6cq6nuRS78ZROBNJ0cbNdA04a3phV4eh0umuISKOhMqvLm1nWc1Xd3U6amRiEz+jp8yWo7fAOagRU8HYP+kP+fyk4U9CNVgjOhp8ifm22srmh5IiYp30e9H2oMNdeHGmV62YU6k8Ms+8Pu9huCPff/qh6AjPBDPsayq8EomXuadgOFWYnzMoJ0E/lQDuxSpT0ljtwY+iVHXbl9G3o76ufWH02mjyyPmVA3a4LTg0f9pbOCRrk7fbeuuWtfuvm/z52tFS3tyaBIGmLQ9v7aieU26PFW2VD1xsqjXAMeYHifQslXhhpcHcq/rl0z078rLvgxEVxDzvIT4cjjj7AX03bWhpkcHU1uW1cwYruN6s5MJt8cAEdFPAzz84f6WKS5aUxQ02jrnG+A7e400HcvfbG1d4VU9jgELgLmR6WMB+pmCusbFixgnTXcEaMTvvajxXFJVOJ2U/gOYvuFi0lvHrO698O3pLQMRAqHI5IwYZVwL5l8Dzs9sMvAWEe5Xhu/Zmnnr9nj1Yif7gnQ9QNnuHGkcJNb3K39giZP2hCIzc2Kwf8HEP6YeiiAlw1TQP6wNNS/x+gMuqZ5yIevglQp0q9OJ9wste1wrun+gtewTnvPwLv90EH5FTOe67O9PiLBUsa4/c3/bS4/c8ErctQGz7J3ElNaQPoM/J+BjEH9ks3rXB7xLwF/3BGOvbindcigVzyypmraIyPeY+zTKvIdJ/S7I/oej4ec/d+LJait+H0Df7+07YVBodbhhXTomKY7rmwH8xE3tfGeWnz8F03oQ/pIYP7b0uxe8k7+9O1tYvMwc4VcYxQbOscATiem7imiy46N9/2vzgQfh43+sLW86MBiTfvHq4kxfR8f5NusCpfhGMI3x4nsA6E+K7L8w6JV2y/9unpG3u7uCUMnaFYZ1tkHGJJt4GgFznC5BJPd4ER7dF4jf7uV35loAlC43z7ENdYkCTybQJQye4DQRTTcv4X4w1jPxVjC94TP49b52MyYG0d9xaIINdTGAiwC+xHl6yW57YDdYv0DEW7Q2XtSZWVv78nISfUAGz9AwZhJ4jtvJ9oRJkmkrE54nrRvtzOwXBuplFVWZk/1EzxLojP4pW2wg2A22RrPPH/yoc4jv4Jgde/SenNyxTNZ4kCoHeEGvqj+h9DUvrPUooUdRtTkpYKMICheBaRJAXoTyD2jwmwr8FjNvM4he7y0kmRh3VjyHlDGBwRcTJ9PuGgP3vtFOrF9l0Gua1br6iobVzsS3+agb4Z1SYXDEwLfYzPUZ8D/i9V6Py6P5pX7GMsee5gn9i/VgNIB0s7aMna1d9sGRWV3UqTLHEdvjiVUI4OLeIg0Mfpmhrziaf8NzEoJyRJdvNkhNAnQhgyYSp69aXTKyAU5GpZipHUgIeDrLvcA+LgIIWt2F2F3Phbf8NY1KlUoj5gwmdR6BL2DQhKPefjoyxdnJVMZAsi8VkWJgFLk8cvgFtinglppwY5PXDSWX4dalgEppAQ4NXrw6vPGu7j2Bgh8Q4bEUvzdP1IUbelwXL4vk/1OylGrqWhDTzNesrmgaUBGMec8UfsWy7eUENSXtkwHwJw3juvrwek8q1JUunzYGhu/DVH+8CQNYt6Axs6dEOaXR/FfANCHFHjYHYZ3lZDnGjJijcklt62n5ZdAg3q813felA62L3UY2ehU8VdMvUkqtAtPoNIsbzYz7v7T/0M+8/H9OjKSqlxToTJwW8GFNeIqJf1u/oOmddD+9pGr6zUTGg6d0DwLvgPS9F76Zn7IU08rdh+B8o1O/bQep1h7/puyUhzupj8pymlCW4hYEbEUDDvGsnN/w0aj9bSaB/znp1aflheXtFlkL68KNs72a/JN9bvjGpUO5JxR60dqinj1ARurffxDZhuHI42oKN+1iTfMTxvbkslyUpwi/3Jk3bF35ylkjvbrt6ormPwfYN56RTBRkp+mdfo6YJyacklRN/kfGXd15mkz+28D2TwMIjlkd2njTYEz+ocjkDCZVeQpP/W8wYVEQI86tCzWtSGXqdpeZpbRGio+6a429PXaLho9SfJilr2IPDJcVOfoz/NzpSUrRowbr5/OemfG4bevFDC7v93JN7y/Gu7ZWD2TQiD9GQwPf03E8BlQHQ6fF01tbtDbWszhFZzqS6Bq237EArKtoaC6pnjIVekiN44xraUIBpmXFW4qXmd+t//9Ne72459GlhVuLV0x7wlC+xQAKUxQN2mJp+vmaisbGVPdTZWWleo2aQydvguZeBRIT8ApDPaM0rUxHQqS+iCE455QTU8nNkVjG1PlE3YKWrel6rMu86LQr5caP7L09G7vmhwA8NOupWVkBoyMQHGJkAb4Ax61MVioYVyrTZ1tBizjTIF8Q4AzFGMJEmdBWUJPKZSQ3TWUb0FmAygZ4GEDZGpxHoEzF9Lc+3vgdAM5PZR8MRdDTNcajOcrnl0ZmjAf0zQB/fyD7FnBkqeYzgnrWYjy1JtS4MZX55UnHD7Ay0mDMaFtv/wczPiZgdGrbgF3R0PpWN79JGIziZeYk+NQvDeAanERV4BToq9pH1dcvmTjLSw/66C7oGSXVUy4EB28iYIGbTWk99P3HDF7q0/qpmiua/ytdffTatzeeB1YjTpEpP8bgVwiqBaw3sW201KWhap+7uZQmnPxaKrnX4iWAmhP9GMDIZi82xLvvK1ehlZAR13vPgUIuQ3UYBo45xhbv4nbNsWP+ibbRxqGmgiYLpwnFq4sz0d4+zlCaDMPXeqLnoNpiHR3HGLpMvxE/mfKwhyKTMzopmK+AOWB1CcDf6uMEg6XB2xVoGxFeYKLNAT38pe52uqZqZi6rnn6bxcY33L/gfFD1UaqXQW2J6yymlc+GGz7p6brLqwoLDKXD7GBjlkE6Dqg2F4qqk5R9iNm/tja84e3+dlX5CvNc26A/ENPkk8ve0Z21FQ33per2RWuKgsH2TtNmnglgChHO63OHNfEODWpRoJaYtl+8+O38l1MZbu2J0uXTxmif7z7VXTIp5iCgetr4OFSDu10WVQTXYoiZ2on4MJgOgXQrWLXa4A8Nog8I+kNm3wexoYH3116+tutkttGlVfmzQXSZfTThliJkUrIfk996DhErgA2wGnZU+A1hcMaRaxPvjKOSsm2aET8u4tUGUPzoPQ8QMTPDYsJ+Bexi1h+BsCNOtH2oHvnGYEz4AxIAwulJZWWl2nbe5nPiVny4AuXEFWX5NbcTGa2WsvaP3tf+36lc/xS8JXmOnRBNyXJP/y3N3ljXkK+tXbi2NV2i0YyaZ2VrPdogdYZW8CuNeDLUaut99tCcfenOaSAIJxsiAAThdJr8IwU3MfjfTjzOxh0gatTMbyimnUTotFkfJmV0EdtZICPXhpUDVrkGkMOgkUQ8DsmNjxTwyNj8MJ2lXgVB6B2fdIEgnPqYj5tDcrPoYQauPkbXE+9n1vcGQY9FQxtdL0OZjaYv9zPjG6D4NIYxlZgvA6hfO/s1MAeACABBkAiAIAheUByZebYBeyWAicf96SXls8pr5m3a6dWzrl8y0f9JXlaRj+haZip2t8zAHRe8ZQ4djHV2QRBEAAjCacXcSEGhIlQdnwyIwc91dPoX9CcXvlPKI+ZUC/RkX/Xyv4jy+c7yMvW1IAj9R0kXCMIp6vlXFd5IxM91kwmwdtT+QyWpnPwT1ISbNht+42IAjs8tW9oeJSMnCCIABEHoB2aj6SuJ5P+7QfwfJxYD4jcC0AvTdWpjVfmGfbCt0mRdDwewxRJ1FAQRAIIguOXS2kuzh32magh0ywmTazIrm3FjunNO1F65aQe0/rWTaw8pvVtGURBEAAiC4ILylbNGDu8KtCiguLu/E6huVXhDy2C0jQL+Rx3k57e+ub9tn4ykIIgAEATBIdcvmei3rdgqAr7d0zVMesVgtS+5FADuay/A65JQShBEAAiC4IJdeTk39FXa+bDlbx7MNjLovT4u2SwjKQgiAARBcAGBb+3jEjvPyBvU9XUmPtD7BbpeRlIQRAAIguCQUGTqmQDG9e59s2ob2jaomT0VI6uXFu4M0MhGGU1BEAEgCIJDYiowru8IAZFxuP3sQY0AAN/s6W824dG0VY8UBEEEgCCcDlggR/X9lfbNHqw2Fi0tGkag83uQBod8PuO3MpKCIAJAEAQX+OLWDifXEfQi8OCk9/b7OysABLud/kn95sgpAUEQRAAIguCYA6PwccKLdiABJpVFCkJp9/7XFAWJcGcP3v/bQR7+GxlFQRABIAiCS5oKmiyA1jm5lhUemhuZPjad7Qu0df5995sUuYNV18JoOBqTURQEEQCCIPQLWuXoMsYIBVU/J1L45XS0qrTKLGPie05sBjOgbqhb0LJVxk4QRAAIgtBPYkODEYAd1vWn8T7oP8+tmn5RSif/iLmAlVpOTCfYEWJ9d2244T9l5AThJHYrpAsE4dSgOGLeaUC5WE/nw0T6F11ZWQ+uvXxtl1ftKFpaNMwf6PgVgBsJRMd7/sx0z+qKxn+RERMEEQCCIHjA9Usm+nedkf0qMZ3r7pf8IRP9gx6SVV0/t/5wf58fiszMibG+jolvJ+CEuv5MHIe2r6ur2PSkjJYgiAAQBMHLKMCKaRMMZWwCKNPtb5nQTqzrmdQaUOe2eGbu271FBiorK9XWb2/8KgFTNakixTwXoIxu7w3eTkpdWbug4QUZJUEQASAIQgoorTLLQKoagDHAW9kM/oRAB5nQSuAOgA2wGgYgB+DRDoXGMvKrW+WsvyCIABAEIeUiIH82CFGAsgfRerwPzTfXVmx8XkZEEEQACIKQJkqqp1xIesiTAL6Tzucy+HOQeuBgm31f09VNnTISgiACQBCENBOKhAJd2HcbEd8OxohUPkuDPyPiB/YFrAe3lG45JL0vCCIABEEYdCFgDo2RuhrMVwE0ycNbWxp6nSb9NA3JqRnIKQJBEEQACIKQQspWFHxNE0wimAyYBHzFpaf/gQJtBulNygjU1cxbt0d6VRBEAAiCcMpFB6aeGUdgLCM+luEfS8S5X/y7zXofk/4UFNgeULH3auZt2im9JgiCIAiCIAinIVILQBAEQRBEAAiCIAiCIAJAEARBEAQRAIIgCIIgiAAQBEEQBEEEgCAIgiAIIgAEQRAEQRABIAiCIAiCCABBEARBEEQACIIgCIIgAkAQBEEQhJTyPwEAAP//5bGhjGuXBnQAAAAASUVORK5CYII=;" vertex="1" parent="1">
          <mxGeometry x="400" y="70" width="39" height="39" as="geometry" />
        </mxCell>
        <mxCell id="28zKGiVwG6CiP2PjTaSR-22" value="" style="shape=image;verticalLabelPosition=bottom;labelBackgroundColor=default;verticalAlign=top;aspect=fixed;imageAspect=0;image=data:image/png,iVBORw0KGgoAAAANSUhEUgAABLAAAAUjCAYAAADWpNyWAAAABGdBTUEAALGPC/xhBQAAACBjSFJNAAB6JgAAgIQAAPoAAACA6AAAdTAAAOpgAAA6mAAAF3CculE8AAAABmJLR0QA/wD/AP+gvaeTAACAAElEQVR42uy9ebwlVXX2/+xzbg803cwzooIaZ8EBE2eQSYZGMWnCIM4yBkXQmBiTXEdmcFZMohnUX4Q3MUYFQaQbZXAiAQ3GIQIKDQ2IKFM33ffU+v3RjdL0vffUsPeuvau+38/nfSN961TtU7Vq1X7W2espJwAAAADP7DH5xc0m5i/cZM6aNXNGE8PNBioGNuU21YQmipEtMufmDGQLi8LmuYEWmNx8V9hGbqAFhWmepI2dNNfJLZKKCUkycxtp4OY//DjObDOT3O//xebItPB3/7X2/yyUNGeGod49/T/btP9T0pSke9f97wclPbBuk3skjSRNObf272a6X9Jqmcyp+M26Ea8qBm6lCknOfivZKtngfpn9diA9MBq4lcNCdw/nTKx8cM3KlcsmD/kN0QQAAACw3oQPAAAA+s7+H75w3tTKiS3N1mw5mJpY5Ia2SSFb5DTYXKZNrLBFbqBNtO7/mrS5zC2StIlk6/6vNplp/7bBf5jH0dssdaeK+6mwE6v61+oDu1+ylZLuMek+ya00p3udFfea9IDk7nOmu53sbnODu53p7sLpbme6e2Jod68eje6mEAYAAAC5QwELAACgoyw556qN7lvzmy0LG2zpRrZVMRhs5QrbSk5bmtyWAxVbmtyWhbSlk7aWtKWkRdPuzGb8j9LkUbx6xKetwncq81erPyarN4iHb3W3ZHc76W5bu/LsbpO722ld8Uv2a3ODO50Vd05NDe8cTKy8bdnkofdxJwEAAEAKUMACAADIiGef9/052/zmjm0LDXYwc9sO5HYozLZzcttJxQ4yt62kHbS2GLVg7admrnCUqn14KF5NvxtfBax2ileVz2x7xatKG5utN1NcKdOdcrrNme405+6UbIVTcUdRDO7UwG4vRrp9MJxz59bX33/nBRccOuIuBQAAgBBQwAIAAEiAPSaXTsydWL39YGLwmMKKHZ1z27nCtjOnHWS2rTm3g5O2lbTNjDupWOWgeDXLKH0Xr2oPzlfxqtwHzBrsx8nWFbvulLRCpuUm++XAdGsxsJsld8tc2a2XTL7yDu54AAAAqAoFLAAAgAjsMbl0/sbzRjtMSbsMnO0gs+1Nbhep2EVyu0h6tKQJm61AUKuuQPGq8ijT8L1SVsWrCpsX0mon3SXZrU7uhmLt6q5bTcUNbqDbJmS3TmmLXy6b3HOKzAEAAAAPQQELAADAA/tPXriJ5s15nAbF44rCPcatLUg91pweve5/bzGuBhCreFXqKMkXr9btq5um7bNHQ8bFqwpxvkbSCsn9UtJNTnZDIXfjwIobhsM5N75Q19wyOTlZkHkAAAD6AwUsAACAkrzi3KWbPbBq9eMGcrs4aRcbuF1k2kWyXSTtXOq5ml3xqv64KF7Jf/Gq8j59Fa8qHth3nG/4kTUm3eykG0zFDc7cDTbQDQNzN6xZM+eGK0476G4yFgAAQLeggAUAAPAw9vrApVvOHdoTzOzxMvd4SY83p8c76fFaa4weSNR7E/ZKwbQ9u+JViR1l9MbB0htnUbyqGOfr/vVumW6U0w1yutGZbihMP52wqZ9c9v5Dl5PpAAAA8oMCFgAA9JIDT/3K5tKcXYrh4Kky9xTJnirpKZJ2KS/sm7dUUbyqsfcWfK+6WLwKEud5rDB8UE4/l3S9M7uhcO5HQ7nr56y898eXnPXq+8mOAAAAaUIBCwAAOs2Bp35r85Fb9VQ3cE9xpqfK7Cnm9FRJ20cT9SGEfaLFq+l307M3DlK8muGfs4jz2yRdL9MN5uxHA7nrpyZ0wxWTr7xRciYAAABoDQpYAADQCfaYXLpw/sajp7uR7eYGbleZnmJrV1RtWUXeZuoHNOsfKF7NMkrfxavag8v8jYPdb4+926SfOtP/mtP/2KC4djiYf92yycW/IvsCAADEgQIWAABkx0HnfGPHqSm3q1OxmzPtZtJukh4naRBe1PsU9tH8gEKJ+jG76XLxaoa/9rF4NfZUdHSF4doYXy7ZtabBdc7sukEx/O6y0w65iSwNAADgHwpYAACQNAec9Y3HFIWeO3C2u0zPXFes2go/IE/CPvni1bp99fGNgxkXrxrFef4rDG+T7NuywZVm+vZw3j3XLJt83SqyOQAAQDMoYAEAQDIceOq3Npdb89xiqOc6K55r0u6Stm2mr/EDCi3sKV7Jf/EqQJyzwtBbBFWN89WS/kvOXe4K943VK6euuPrcQ1eS8QEAAKpBAQsAAFphj8mlEws20m4a2POd6bkme66kJzykDvEDqi/qYwr77IpXJXbUxTcOUrzyGEHN4/xBSVfJ9I2Bc9/Y+qej711wwaEjngoAAACzQwELAACisHjyywuKjTb6Qzm9yORe6JyeZ6aF4US9T2GPH1AEUb/h3nnjoLfYpD026Tj/raSLTe7LU3OLC6+ePPTXPDEAAAA2hAIWAAAE4ZAPXLrl6uHgBXL2YpO9QHLPljSnjFRMa1UKfkDxhT3FK18xHiTOWWEYMs5Hkq5wpq9o6L70zff9yc94mgAAAKyFAhYAAHhhyTlXbXR/8cALpcHeVtjebq3Z+qCqVKSlqsyhKV5VHqXv4lXtwdEeW26frDBc9+8/ds6dr6L4wrdOPfRHPGkAAKDPUMACAIBaTE5ODr638MXPlNneJre3ZC+UNB8/oOn+GT+gSnu2piN8xKcTMm3vYntsozhPtHi13iet+b422HO9Iu2PnHRBYaPPX3HqYT/lKQQAAH2DAhYAAJTm4A9euu2a1YMDB872N+mlkrZoLup9Cnv8gMpvwBsHy23S5TcO0h4bP869rTD8rpN9fo5NfPYbp77yLp5OAADQByhgAQDArOx32mVPnRi6g0y2WNLzJA3wAyor6n0Ke1qqKo+S4lWkOGeFYdwYX+/Tq2W6xMz988T8rb64bHLPKZ5aAADQVShgAQDAeiw556qN7p96cC85O0jSgZIeVUHJVhZh+AHVF/UxhX12xasSO4pTvPIZ5xSvQsZ4zDgP1B57s6TPDG30mWWnHX4TTzMAAOgaFLAAAGBd0WrVARpoiTMdZNLG4YU9fkBNRH1rwj4dP6Aqwl6NzywrDP3EeIg4pz32kRSSviZnH/7WBw69RHI+vwgAAEBrUMACAOgpe0wunb9w42IfyS0x6RWSFo0XVvgBBRP2+AHxxsGGsckKw/pR1NX2WCf9n5n9/cT8uectmzzkNzz5AAAgZyhgAQD0iCWT589dtXDrA4rCDpXTYkkLy0s//IDKCXtaquKK+nrCvsaFrTwm2mPrx3jMOM+jeFUtzqf582+d7DOjoX30qvcd9nOehgAAkCMUsAAAesDicy57ajGyo5zc60zaprpYxA+onLCneBVf2Gdm2k57bKkxUaQNFedWSO5CG4zefeX7D/8+T0cAAMgJClgAAB1lv3O+tsVEMfdP5HSMCj2rgeDxJOrXfhA/oMDCHj+gmueO9thgcU57bKorDC8dDIq//eb7D7+KJyYAAOQABSwAgA6x5Pzzhw/cvNWBMr1B0v6S5uAH5EnY01KVmLCneMUKQ28R1IPi1axxfnkh+8BVpx12CU9RAABIGQpYAAAdYO/Tvr7p/ImJ15r0Fsl29iN48AMqp/1qnhSKV236AZW9sC3FeT+LV6WOQntssDh30tVO7l3fPO3Qy3iqAgBAilDAAgDImMVnfONZxWB4jJxeJbMF+AHhB5SusM/EtJ32WD8xnnCcU7wa+4FLC9k7rzrtsO/xlAUAgJSggAUAkBl7TC6dWLDQLRnI3mzSHyUieFRL/uIHNPYPFK9CCXtWGJY/FawwjBvnVunkBMrlJnNfNE39zZWnH3E9T14AAEgBClgAAJmw5JyrNnqgWPU6yb1N0s5hRH0jwRNQ2OMHFFLUhxX22fkBtRTjPuOc9ti4MZ5qnHuJ8ZFMn14zHP31dz5wxO08iQEAoE0oYAEAJM7Bp1+xqBiueb3J/blkOzQVPBSvmm2KH1Bbwp72WNpjU43zXrTH3u9kZ03MX3XassnXreLJDAAAbUABCwAgUQ7+4KXbjkbDt8rccZJtkqHg8aCv8QMqvwF+QOU24Y2DweKc9tjut8c6/dyZvf2K0w7/Ik9pAACIDQUsAIDE2Pu0r286bzjxdjmdJGnj7AVPQFFfXtjjBxRX1PsU9kn4AbUa57THeowg2mN9xfjSwWDwZ9869dAf8dQGAIBYUMACAEiEJZPnz31g4VavdRq812TbdFDw+FDDNYQ9fkBxRX17wr6LxasgcU57bGJxnm177Brn3CcWTD34zkvOevX9PMUBACA0FLAAAFpmj8mlEwsX2RFm7t2SHttxweNN2OMHlKqw74UfkIdwY4Vh6DineKVY7bE3FHLHX336n17MEx0AAEJCAQsAoEUOPOuy/Zzch0x6Ys8ETyMxnm/xauY/ULwKFecptse2FOcUrxKL8861x35+aliczNsKAQAgFBSwAABa4GXnLn3ssNA5Mh3Sc8ETSNT7FPb4AcUV9Y/4NO2xfmJ87Kno6ArDjrTHVj6z7eXyu2U68cozDvscT3oAAPANBSwAgIgsmTx/7sqFWx9n0vskLQwpePADanZY/IDaEva0x7LCMNU4p3hV/jy5CwcTa974rQ8cdRtPfgAA8AUFLACASBx45mUHyg0+LNkuCJ56G9NSVf9iUbxSh9pjfcY5KwzjxnjgXN4gzgOsMLzDOR17xWmHf5EZAAAA+IACFgBAYPY+7eubbjQx54xCdjSCJ7Swp3gVV9T7FPa0x1K88hhBvotXG/6flnO5zzgPnssvWDNYfdx3T33NXcwIAACgCRSwAAACss6k/e9NehSCJ7Swxw8orqhfty9aqrzFJu2xXY/zHq8wNN0s05FXnnn4t5gZAABAXShgAQAEYP8PX7jJxOoFZ5rsTZIcfkD11RF+QN4kM35AFcdEe2yZfVKk7WQuDxDnZpqS9P6rFvzkPZqcLJgpAABAVShgAQB45sBzlr3IFfY5STsheBoLHq9FgvHCnpaquKLeZ5zTHlv+VFC8SjnOe9Ae+/XRhB31nQ8ccTszBgAAqMKAUwAA4EvrmDvorKVvGRT2DfksXjXe2qfgoXjVRNh3yg8osqivday+tsf63leixatgp+ihHbZUpI2Ty+OuMHwE+wyn3A+f9/bPv4yJAwAAVIEVWAAAHlh81tKtzLl/ktkBaQl7WqrGbYofUFvCnhWGtMd6iyBWGOaZywvJ/c1VZ/zpBxp12gMAQG+ggAUA0JDFZy3b3Zx9Qaadkxc8FK9m+GdaquIKe4pXrDD0FkE9KF75jfP0VhjqKw+64auuOf3Q3zKjAACA2aCFEACgAQeds/RYObsyi+JVgzFZjMNUEjwUr+KKep/CnvZYilceI8h7nPtKb+kWaf18WZ8rDO2geTZ1xfPf/q+PY1YBAACzQQELAKCWDjB30NlLJ2X6hElz0hM8vtQYfkBNRH1sYR/kFD20Qwuwe/yA/OwrgfbYWKcmZpE2jVweaYVh+7n8aRoU//XCd3x+MRMMAACYCVoIAQAqsu+ZF288dzDvs5JeQUtVq4InvrDHDwg/oIaxyQrD+lFEe6xyfONg1X2NTHrb1Wcc8UFmGwAA8EgoYAEAVGC/c7+5/dyi+E+TnkPxKhnBU0PY01IVV9T7jPMUi1c+45ziVdwYby/OKV7N+vcP73jjnJMvuODQETMPAAB4CApYAAAlOeiMy5+goV0q6dHB/IAQPBGEPcWr+MI+syJtLu2xUVYYptEe2/sibQ9fwOGcvlisnjjy6nMPXckMBAAAJApYAAClWHzW0ieZc5dK2hHBk67gCSLqQwh783OxKF6J9lhfcU57LCsMU4vztZt+Vza1+KqzXn0HMxEAAMDEHQBgDAedfdmu5tzlonjlVewEFDz+TseMH/b5/keKV+U26Xp7rDzFeXgjeYpXIeNc3uK8Iy/geK4058rn/cW/PJ7ZCAAAUMACAJiFxed+81nS4FJJ22T1a33NMVmMw4QXPDPsAT+g+MLel0Q2r6FBe2yzOI8R4+HjPEDkJlak9ZNSE1hh6OzxbjS84oXv+NddmZUAAPQbClgAADNw4FmXPVtFcZmkrTxKO6X6a32nBI+Pk5KwH1BQMd5SkTa8qF/7wZgrDL3vK4f22BBnhRWGlcdkkWIz4grDbUdFcdnzT/ns7sxOAAD6CwUsAIBp2P+MbzzOucFXTdp0OsETS9T3V/Ck6gfUYHNaqmqcP1YYlotxn7crKwxDJAlWGHrJ5VuYc5c9/22ffymzFACAfkIBCwDgERxy5pXbDCeGF0naNpjgwQ/Iqx6t8c28HYjiVcg4l7c474gf0Ax7oD02fpyX/6pdfHtskH2VyeVOC83Zl5/3js/tx2wFAKB/UMACAHgYe5/29U3XDNZcItMTggqeRlN+fq2vJHgCC/sYoj68sA8QufgB+SsQ0B7rJzZpj/UWmy2vMFygQl/6o7d9fjGzFgCAfkEBCwBgHft/+MJ58+fM/ZKkXRE8/gWP933l4AdkAc4KfkCVx9RBPyDaY1uJcZ9xTntsuRifcYN5ztkFrMQCAOgXFLAAANYxXLPgI5K9BMHjXw331g/Iw+goXokVhtP+M+2xcWPcd5z7ShG9bo+dp0JffMGff25PZjAAAP2AAhYAgKSDzll6rKQ3IXj8n1v8gOp/vyz9gBpdaVYYjtuU9ti2oD020fbYjQrTV55/yudezEwGAKD7OE4BAPSdg85d9jwVWippnl9hn1lLVeaCx29LVRp+QL1vqcIPaIZ/pkgbN855AUcGKwzvcYXtfdXZr/oesxoAgO5CAQsAes3Bp1+xg01Mfd+k7RE8bQieFItXM/+B4lWoOPfZE5p5SxXFq8Ti3CqdnC6uMMzoBRx32WD4om+fcdj/MrsBAOgmtBACQG9Zcv75w2Ji6gv9KF6N+Whrgqf5YfEDakPU+45zeYrzXvsBVTg8xSu/CbTmh2mP9ZfL135sS1eMLnrRSf+yPTMcAIBuQgELAHrLqpu3/QtJLwwqeBpN+RE8EQSPv++HH1DLcY4fUNDDe47zoLFJe6y34MjwBRyPmZozuPjZ7zh/U2Y5AADdgxZCAOglB599+TML2bclzUXw5C54WJUSV9jTHptRS1XpA7HCMGIubxDntMeWi3EzLb130dyXXT956GpmPAAA3YEVWADQO/aYXDq/kP2zcipeNRhT1m8cpHiVmLA3j1t3vT2W4lXcODeP6Y322FjtsY32NUuMO6c9N7lv9Wck48d6AIAOQQELAHrHwkXudElPww8oT8FD8arG3vEDSleMZ9ce62k3IdpjzfNOcmiPDbCvvF/AsR5HPO9tn30Xsx4AgO7ArxIA0CsWn7Vsd3P6tqRBb1uqMvcD4o2DFfdMe6y32GSFYf2LRXusaI/1lcurxbkVpkO/c/ar/h8zIACA/GEFFgD0hiXnnz80p/PU5+KVH5VQU/A0PyzFqzZEvc84pz22XIz7jHOKV75yXfxcXit9RcjlWbXHOuf06d3f8fmnMgsCAMgfClgA0BtW3bzNCZKeieDpoeCpcCD8gGbZF+2xvr+Iv30lWrwKdooe2iHtsenGZjrtsYuGo+KLe5z0mc2YCQEA5A0FLADoBQd/8NJtTXo3ggfB0/j74QdU85D4AQWLcwuweYgirdfrxwpDn8ERf4Vh+Fz+iL88YdWcuecvWXL+kBkRAEC+UMACgF5go4mzJNsMPyAEj1/5iR9QuU267gckT3HOCsO4MR44lzeI86zbY8fuoaUVhmb73PzYNe9hRgQAkC+YuANA5zn4zG8+oxgU/y2zAYInprDHDyiuqPcp7K3SyYnXHmu0xzaI824Ur9aP83TaY3kBR7A495vLC3Pa/ztnvuoSZkcAAPnBCiwA6DzFcHSalFrxytcHfIr6FgWP733hB0R7bGqxSXtskDhPI5d3+QUcnWuPHbhC//Lsk/5le2ZHAAD5QQELADrN4rOWvlCm/fEDQvA02hw/oBrnDz+gcjHu83alPTb3XE57bP0DVbhtt5kzdJ/DDwsAID8oYAFAp7GB3ovgQfDgBxQ7zvEDKn8qaI+NH+e+MiNvjw2ay8O2x+75y0evfjuzJACAvMADCwA6y4FnXbafk/ua59IDfkD9FTx+Igg/oMpjwg+oXox3J84zKdLyAo5Wcnmpo9i0/7Bm4IqXXHXWa65mxgQAkAeswAKAzuLk3uVH8HjRdsIPKC3BE+vU4Ack/IB8fbNc2mP7usIwg1xOe+x6n5hT2OBzexx//kJmTAAAeUABCwA6yQHnLH2OpBcmLXj4tT5HwZOIqPcp7GmPpT3WWwT1oHjlM0Vk3h47dg9ZrDDceeX8Ve9l1gQAkAcUsACgk7jCvT15wVNzTAie1gVPy6Let7D3pdHxAxq3aborDFNtjw0QuTm8gCPz9tjccrlz7s3PP+VzL2bmBACQgcbjFABA13jFuUsfOzXSz0ya6KLgwQ+ofcHTrrDHD8hXjAeJ83z9gBKKcZ9xzgrDLIq0FU+G71zupBvud/aMH5z16vuZRQEApMsEpwAAusao0FvUp+KVP6UQTtTPLnh+K9n9ku6XdI+kOU5aaKbN5LRQ0tyAh68teNoR9vgB+RTitMfWH112xavGW7PCsFyc59kea9IuC8y9V9LJzKIAANKFFVgA0Cn2PfPijee6ebeabJN2Rb1PwZP9r/UjmV0vcz826cduYP/rbPCTNU43XPoX+/x23Ieffd7352x+993bD1zxRJme5Ao92Tk90UxPl7R1W4InvrBP1Q/IX5z7a49Np0hLe2wecd7Ft8cGifPsVhhWGlNh5l7wnXNe9W1mUwAAaUIBCwA6xeKzl762MH0GwRNS1Jfa1w1y7lIVdulQqy/96l8edHeI6733qZfuMtBob2faW7J9JG3WlqjPR9jTHkt7bKpxTnusrxgPEuc5FK+axrnpv3a6ed5zL7jg0BEzKgCA9KCABQCd4oAzly5zTi9B8LQieL5vzv3T0E38vwv/fM8Vsa/9HpNLJ+bPW/VCk3uNTH8iaWGpb44fUM2oYYVhMGHfsh9QO3GeUXtsH1cYjj0VHSrSmo7/9jlHfYIZFQBAelDAAoDOcOC5l+6i0fD/6uW2LguekMUrWyFz5zu5f7zoL/f571RiYY/JpfPnz1u1uDD3akn7SxqGFDxZ+gGxwjCCsA+/KoXiVahc7jPOaY9tEuMtxPndc1eveeK3PvL6O5lZAQCkBSbuANAdRhNvkKzF4pWvD/gWPCWOVl0d3GTSBwcLRp+86M0HPJhaKCyb3HOVpAskXbD/By58ypQGf+Gkwzd47vXKD6j8V+2qH5D3fSXQUhVR1AeM8wDXLrEVhrEeJjHbY2uflPRfwLH5g3PnfEDSm5hYAQCkBSuwAKATTE5ODr638CW/kPSorgieRP2AfipnH1i1cu7nlk3uOZVTjLzsvRc9cTR0f/W7QharUmpEDX5A4zbtlB9Q8Bj3Gee0x9Ie6zWXF25gz//2Wa/+DjMsAIB0oIAFAJ1g/zMue8Fg4K5A8IQQPCZJd8nZOxbt/Nt/vODQvM1t93nvJU9wrviwnF7mWfAIP6DyY8IPqMw+KV7VOnm0x0aI8x60xzpd/Z2zj3qB5FJcbggA0EsoYAFAJzjwrMvOkdxb44v6HggeZxe40dQJF73zgE75gez7vosXyxUfk7RTWsIeP6D4cY4f0NjdJN0eywrDXq4wjPACDnPukO+efdR/MMsCAEiDAacAALLHzEnukGC7jyLq4wueEvzYDWyPr71j30O7VrySpEvetd+Xh2vsaebso5IKX4InoRvDk6j3Gef4AQU9/MwBGiD3NYxNilferkD8FYa+gsk8xl6YFYbO7ANLlpw/ZKIFAJAGFLAAIHsOOHfZsyU9NpTgCS/qExQ8pn+Zs2rVsy/6830v73LsXDR5wD1ff+cBJw4K7SXTCh+CJw1hn2F7rGexaiGqLxb+m812IN44GCrO/V67xF/A0SDGa36JvNtjn/zLnVa+hpkWAEAaUMACgPwTWaE/RvB4EzyrnHT01/5yn1d/eXLxA32Joa/99f7LNDXY1UnfaEfU+xT25nFr8xqT+AHVF/adKV55S29df3tsSysMfe8r4fbY8rtw73n20ectYLYFAJCA7uMUAEDumLQYweNF8PxkID33or/Y5+/6GEeXTO53x4Nr5r9M0pka566StB+QL23X6fZY5eYHFOvUBG+PNc87yaE9NsC+YrbH+n/jYIPNg7XHzrqvHScWLjie2RYAQPtg4g4AWXPw6ZfsMBrOuWV8PsuspSpy8cqk70wV7sBvvHPvu4gqaZ/3X/QqJ31a0pzwwh4/IJ9qmJaq+heL9lh16O2xPuOcFYZyumul02N+cNar7+cJCQDQHqzAAoCsKSYm9lbXild+VEJ5weN04dxVq15K8er3fP2v9v+s3OCVklaGFfb4AfmE4lX9E0t7rGiP9fmU6lp7rGnLBWav5+kIANAuFLAAIGuscPsgeJoIHvvXOzfb/BV98rsqyyXv3O8r5mx/k34bRtjjBxRf2OMHFPUUPbRD2mPTjU3aY8t/3tzbnzp5/lyejgAA7UEBCwDyxczJaS8ET+1x/MMfrbrqyGuOec4agml6vv7OAy53g8Fekn6LH1C6Yhw/oGbn3IJdP9pjfQZH/BWGvm5Xn+s9W11huNPC3z54JE9GAID2wAMLALLlgHMuf7orih8geKoLHmf6ysoHJw5ZNrnnFJE0nn0+cOFLVOhiSfPSEvb4AdFS5S2C+tse29cVhrPe8rTHzqCcfvKdRTc8RZOTBU9GAID4sAILAPJNYKPiJa0JnprT6CT8gJyunnhw1Z9SvCrP1995wOVOeo2kwkcc4AcUU9RXPDDFK/+5yNenE2qPjTmAmCsMa5+UHNpj/QTzE//wnscdwlMRAKAl/ccpAIB8M5h7Xk6CJ5Ff6/+vGBR4XtXgkncd8AUnd2JjKY8fUOgvVH9f+AH5O+cdb49N4gUcdb9IX9tj/cX5W3kiAgC0JP84BQCQK2b6o5wETywxbjOLk98Mze13ydv3u4Poqccl79r/45I+6UPU88bBZhvjB1R/dNm9cZD22OCPEAuQD2qfouRXGBYv+MO3/NMzeCICAMSHAhYAZMnBH7x0W8l2QfCUFzzO7Piv/uXeNxA9zVgztdFbJV3bjqj3Geep+gGpUZz7PDB+QDX2bkEvfYu5XMnk8toHzm6FYbrtsW5gx/E0BACIDwUsAMiSYs3E85tMmPsneOy8r/3lvv8fkdOcZZN7rpKNDjXpXv9iu8Kn8QPy90XwA/JAe0XaOLmc9tjgcZ5Re6zJverZ7zhvU56IAABxoYAFAHniiueFmQR3UvD8aM6qB08maPzx9b9e/LOB00l1hH0sUY8fUEvCvn9+QKI91m9w0B5bf3QRVxguHK6efxRPQwCAuFDAAoAsMblnRRE8mRSvZhE8awbSYZi2++eSvzrg03L6f3GEPe2x+AF5i6AeFK98fcBnLi95NNpjlVF77LE8CQEA4kIBCwDyxPQMv4InxV/rfQge+8iFf7HPDwmYMEys0Vsl3Rde2PvS6PgBjdsUP6D2krqfXO4zzmmPbRrjHW+PfepzT/qn5/EkBACIBwUsAMiO/c795vZy2ho/oDGm7dLtU3LvIWLCcdHkAbeY3PsrCJ7gwj68qF/7QfyAIgh732eFNw5WHlNa7bF+Dkt7rMcYdzqCJyEAQDwoYAFAdkyMpp6B4CkheJw75dK/2Oe3RExYNp+69xzJfuxf1PsU9l1dYVjjwLn4AfXmjYO8gCObFYYVDtSj9tg/ffbR583hSQgAEAcKWACQIe5pfkS9T8GTnB/QFRf9+V6fJ1bCc8HkoavNDU7yK+of8elO+gG11FI16x7wA/Io7D2dy9i53Gec93eFYYwYDx/npdjaLZi/N09CAIA4UMACgOwws2f4mfJ3+Nd601/LOSNa4nDpX+1/saQrgohV/ID8FQjwA/ITm7THeovNuCsMaY8NEeeDgTuSpyAAQBwoYAFAdjinp/ZZ8JTYy3e+9pf7LCNSYut6dyp+QH7iPGbxCj+gMKI+XpzTHlsuxn3erqwwfMSFfPkz3vbPG/MQBAAIDwUsAMiRx3dP8Pj8tV6nEiLx+fq7XnaRpGu9lR6SKV6N+WhrfkDND4sfUEBRHy3OfaV42mPLHT6xFYZptMcunFfYQTwFAQDCQwELALJi/w9/c2uZNu2e4ClxtFJCz/73eauu/DKR0gLOmTM7vZX2mTJ/xQ9omn/GDyg+tMfm2x7bcPMQce47NmsWaZ3cYh6CAADhoYAFAHmxZvQ4BM/M+xmYnTU5OVkQKO2w6ZMeuEDSjTGEffgYX/tB/IDK7BM/oBAx3t/2WD+HZYVhxBg323+PyaUTPAUBAMJCAQsAssJZ8QQEz4z7eWDOYNUFREl7XHDooSOZPteesMcPqJyo93m74gfkK9fFz+VjPtpae2w+RdrOFK+aj3CLB357y/N4CgIAhIUCFgDklbRMj0PwTI+T/cd/vuPl9xIl7eJc8c+1owk/IN9fZIY9dMcPKI/ilc9LSXvsuE3TbY/1tJsQ7bE+dudG+GABAITWgpwCAMgJ0/QFLPyAJCvc54iQ9vn6Xy/+maTvVY4D/ID83S898gMKmm1zeOMg7bH+nizB22M7vsLQhA8WAEBgKGABQGa4RzeeMHdT8NyxavWcS4iPRKS/02fjiXqfcY4fUPmvgR9Q5VHSHtv4uTA+xn3GOSsMK47yybu/9dO78AQEAAgHBSwAyI0dETwbHtg5/fuyyT2nCI80GE3pfHlcyoQfkA9hj5l1ne+WRvHKZ+7tZntso30lWrwK+5wN1B5buL14AgIAhIMCFgDkg5nTIwpYCJ51/1XoMgIkHZZNHrhCpv8NL8zwAxq3KX5AbY0zs/bYAPuK2R7rf4Vhg81DFGm9Xr9wKwydG7yIJyAAQDgoYAFANhxy6je2kDQ/GcGTzq/1tqYYfJMISQtzWhpW2OMHVE7Ue1PPwg+onqhvdiYitce2+AIOP3HOCsO4MT5TnNsePP0AAMJBAQsAsmHNvMGjkhI8nsVqXcHjnK7/xl/tfTsRkhZu2gIWfkD4AdU/sdkVrxpvTXtsuTgPv8KwG8Urn+ltxptlp+ef8veP4QkIABAGClgAkA+jte2DCJ5HUGgZwZEew6nhUklFCcHjR1zhBzTNHvADKr3DEH5AtMf62RftsUHi3Msop9nfaDR8MU9AAIAwUMACgGwwaTsEz4YUzn2L6EiPiydf9mtJPyojeKpFDX5A5TbHD6iOqE/2jYO0x/q7+rTHBm2PNTkKWAAAgaCABQD54NzWCJ4NGaqkWTi0wY/wA8IPyKNkzswPqE7U0B5bfg+0x8aP81K8gEcfAEAYKGABQDYU0lYIng1PywOrJn5GdCSKFT9trC1n+yt+QNP8M35AXuOh6qcTao+NOYB8Vxgm1h4bIrLjF2mfuMfx5y/kAQgA4B8KWACQDc4VW4UWPBn6Af1y2eSeq4iORGN2MPipH+WEH9C4TfEDaibsI4j6Ept0+QUcfopXtb9ZLu2x3VhhOFg5//6n8QQEAPAPBSwAyImtQgueWGLco+D5CWGRLq7QT5sL+xRXGOIHFDq3dMUPqPyZoD22XJzTHhs3xuvF+Wg02JUnIACAfyhgAUA2mA22RPCsjzPRPpgwq4vVPwlSvGp9haE8xbnP4hV+QPGFva/MSHtsuTinPbaFmUelr/qwfLQbT0AAAP9QwAKAjBKWbY3geQROdxIZ6bJs8pDfSFrjSdo2iPMO+AH53hd+QFFXpVS6ELTHTvPPtMfGj/P6KwydEyuwAACC6EEAgEwwaTMEzyMLBXYvkZE899a70vgBBRP2+AHxxsGGY6I9tv7oetIe+wxNTqKzAAA8Q2IFgJxYlHPxKoTgcTa4j7BInnurX2naY8sJe/yA4op6L8Le8wd85vKSR4u0wpD22DbjvHHIbvzcX+3yGB5/AAB+oYAFAFnw7PO+P0eyeT6nnF0QPDYoWIGVOE66r9qVpj123KbptlThBxQ/zjvQHmt+nwu0xybSHjsxtTNPQAAAv1DAAoAs2Or+Xy3yNbfvkuApCrECK3GqtXnSHjtu05jFK4t0anjjoDrUHuvnsLTHthHjPuPcZOYexxMQAMAvFLAAIAuGxZxF3RU89RXH0LnVREfiuMGDZQWPT1WMH1CZD+MHFOK7scLQR5zTHhs3xh/xaT/tsbvwAAQA8AsFLADIowZgg0XNBU/3/IDM3EKiI/ngXVQ7bPEDmmYP+AHFF/blv2q84hUrDJvGeYwYDx/nAa6drxWGTrQQAgB4hgIWAORRA9Bokff5eEDBE+vXejcQBazUMS2KJ+zxA2oq6vEDaibsw8f42g+ywjBCnPuJxEf8R6/aY1mBBQDgGQpYAJAFI7mNchI83vc1w6aFbBHRkTwL++sH5Kd4hR9QG6Lep7BPsT225NGiF69YYRg3zoO2x+KBBQDgGQpYAJBHsnJuTvuCJ8Ff640VWKlj0iaVLm6nVhjKT5zjBxRZ1D/i0378gDzEuc/iVUtF2ln3QPEqfpz7upTT5vIt9njtZ+bzFAQA8KgJOQUAkEURoCjm4Ac0zR6s2IToSJcl558/lLSgguCpHRH4ATUT9jFEfXhhH+DaJfbGQT9hS3ts6DgPGps5rDBc908rF01txZMQAMAfFLAAII9kVWsFVvcFj3PuMURHutz1k4WPleTCifq1H+yuH1Cc4hV+QCFEvc84T7E91s9hLVIEssIwVJzP/uFiOEEBCwDApybkFABADphpIn/BE8APyPREoiNhCv2BJwU/Y5B02w/I1+1KS5WvXFd+6663x+ZTpO1M8cpbeovYHuuMAhYAgEcoYAFAFliNFVh98AMypyfKzBEhieKKJ3oKs2k/hB9QfVEfW9iHEfXr9pWHH1DtfdEe2yzOY52a4O2x5nknEVYYmmlrHoQAAP6ggAUAWVBtBZb16df6Rft94OLtiJBUA/eRK7DwAyq3eYffOOhb0WfkB1RnTN1tj/UZTD7bY3uywjBSe+ygcKzAAgDwCAUsAMiFkgWs/v1a7wZGG2GquIcXsPADahLn9b4GbxyMK+xpjy0X4z7jnPbYEM90X+2xRgshAIBXKGABQB51ALO5CJ6Z/u6eTYSkx5Lzzx8OpGdVFTyNoqqvfkAVDoQf0Cz7Cu0HVOFDXWyPbbSvbNpj5fc85d4e6wYLeBoCAPiDAhYAZIGNXYHVZz+gwZ5ESHr86scLdjNpc/yAxm+KH1Bb40z3jYOxTlJrL+AIeErabY/t2QpDG5ux5/E0BADwBwUsAMgCN6uJe9/9gOzFe0wunSBK0mLo3EvxAyor6r2pZ+EHFFvU1xP2s+2nDy/gCHUg2mNDxXm9UTgKWAAAXqGABQBZYCrmhJcF2QqeRfM2evBZREliMWvFnj6DBD+gMvvED8hXriu/Ne2xHnN5ozjvRvHKZ3pLoT3WUcACAPAIBSwAyIUJBM8sFKKNMCHWrYh7gR811uf22OaiPrawDyfqO+AHFCXOaY8NfWpiFmm9jLLNFYYmClgAAB6hgAUAuSSrCQTPzDi5xURJOkwM799D0ibNw6y7fkC1v19WfkBhRH2ufkCzHYX22DIfpj02boz7iHNaCAEAPGtCAID0MT3SAwvB84jPPX/vUy/dhUhJJV7tVc0vLH5ATQ+EH1AoYe/32mXdHjt2D7THxo9zX5mxeZHW0UIIAOAVClgAkEdBwOQ6I3jC+AG5CRsdQaS0z+LJLy+Q6ZU+YpL22PrCHj+gWT7dmh9QhQ/14gUczWI8dpwHfMK3VqStdCHqXU60FgCAR0iqAJAZ3fQD8iF4zOnVxEf7rBzoFZIWNQsN2mObCvtYpwY/IIVZYZhDLvcd57m0x7LCsAIFD0UAAI9QwAKAjOiuH5AXwWN6wstOvWh34qT1KH1Vs3ClPbbch/EDiivqZ/gr7bF+cnnFA1G8Chnn8hbnKa53AwDIGQpYAJAJBYKn1DEGJxAr7fHS9174OEn7NAkS2mPL7BM/oBDEKV4p0VxOe2z8OA8QuYkVaQEAwC8UsAAgGxA8ZebZdsTLTr3osURLOzgVfylpord+QL73hR9Qp/yAfpelIuXyIPuiPTaxOO96eywAADwcClgAkDcInkf+4xwz9zYCIz57TF74KJkdhR+Qp2+GHxBvHGw4Jtpj64+O4pVSqCECAMAjoIAFAPmC4JnpH9+w3/u/tj0BEpfhYPR2mebWvaC0x9Y/EMWrkMLeVwLLvD127B5oj40f575CNtIKQwAAaAwFLADIE/yAZvvH+TZwbyVI4rHH5Fe3k+mN3sOZ9tixB8IPaJZR5uAHlEt7rHl+INEe26/2WAAA8AIFLADID/yAxu7Hmb3lZe+96IkESxyGKk6XtMCr4KE91s/3ww+o5qlJ0Q+I9tgKAZpYnPe4PRYAALxBAQsAOk5vBc/cYug+wvUPzz7v+dIL5HSUV8FDe2wg+dkTP6DGW3f9jYMt5vKKB6J4Ncsoe9oeCwDQZyhgAUBeIHiqCJ599jn1okMImnAsOf/8YWGDj0lyKQse/IDqf78s/YCsyZ9542DQXB50hSHtsfHj3OKELQAASKKABQA5gR/Q2AM98l+duQ/te+bFGxM8Yfj1/270Z5J2bU/w4AcUWtgHTWh99QPKfoVhnOJVKwbntMdWHhN1KgCAeFDAAoAOwq/1D2MnrbEziQn/7DH5pcdLek97ggc/oAqKPDFh32M/oE68gCN8LmeFYf3vll97LAAAlIUCFgB0DPyApuG4fU696HBiwx/7f/jCeUM3OF/SJu0IHvyAQor6sMIeP6D4cU57bLn95d8eW/nDra8wBACAKlDAAoDe0UfB48x9fN/3XrwzV98Pq39dnCPpme0IHlYYhhb1+AEpAT+gLrfHNtw8RJz7js0cVhhSvAIAyA4KWADQIfADmmWjzWxgX1gyef5c4qQZe7/7P/9Yzo5vR/DgBxQ1i+AHVHlMabXH+jksKwzbiHGfcZ5veywAAKwPBSwA6Aj4AY3byEm7/3Zik48SK/XZ8z1f3tXkPp2y4MEPqP7o8ANSAn5AvIAjZIyHjXPzmN663h4LAAB1oIAFAB2AX+tLKxVnb9r3/RdNEjPV2fd9/7HTwPQVVfK9wg+oiaiPKezzKF75vJT5vnHQ+75oj23ltJfaSQ7tsQAAEA0KWACQOQieGoLnb/d9/4UnEjvl2esD/77l1Gh4iaRHeYkn/ID8bW6h8oHHvIIfkLfg6O0KQ99PONpjK4+J1VcAAO1DAQsAMgbBUx937r4fuPAVxNB4Fk9+eYHWzPmKk57kTfB4jvMsVhhWVH/4AYUS9vn6AcXP5awwjBvnXW+PBQCAplDAAoBOg+CZ8RNDmfvCvu+/6DCiZGb2mPziZg84XSzpj9oRPB3yA6pwIPyAZtlXJ/2A0mmPbbSvRItXwU7RQzukPRYAACJBAQsAMgU/IA+CZ66kz+/3vgtPIp42ZI/Jr243dBPLJL2wHcFDe2zoU4MfkBLwA+IFHB5yecVj9WyFIcUrAIDOQAELADKky35A0X+td+bcufu8/2unEVe/Z+/Jr+wy4YpvSdq1HcFDe2ywysGMtwp+QFXGlN4KQ3mKc1YYxo1xn3Geb3ssAACUgwIWAGRG1/2AGmzeQPA42Tv2e/9Ff7fH5NL5fY+wvd79lT3N2dUmPT5lwUN7bP0Tix+QEvAD6lB7bIU470bxymd6S7M9NtCXBQCAhlDAAoCMwA8osKh/45yJVVftd+rXHt/P8DK313u//BbJLpa0TdWz10U/oC4Wr8KKUfyA4p942mPL3SrhirReRpnLCsN2EwwAQO+hgAUAPaTLgqfhr/VOzxwV9l/7vu/CP+1TROwx+eWt9nrvV76qQh+UNKc9kdLl9tiGm+MHVOP85Vu8oj22/uhoj1UW7bEAAFAdClgA0BkQPH6G5UyLTPrXfd534Sf2mPziZl2Pm73f/ZUDhwP9t0z7py548APyJpnxA6o4JtpjI+Ty3rTHeklRM/81g/ZYAACoBwUsAOgECJ4ggufYuRPz/nfv91/4apm5rsXMPpNf2mHv9375n83ZV2R6VOqCBz+gZsIQPyAl4AeUTntso33l0B4bIrJbKtJWuhCdao8FAIBHQgELALIHPyBPk+ZpRL1J2znTP+3zvouW7vWBC5/ShXjZY3LpxF7v/fJbisHgx2Y6Cj+g6f4ZP6C6wj6WqO+iH1DM9tiuvIAjTpyzwjB+LgcAgOmY4BQAQM7gB+RR8MyG00sGha7d530X/WsxKN73jXce+NPcYuXZ531/zua333a46b53yvTEZqcOP6ByH8YPKK6on+GvGfgB0R7rMZd3vnjlM0XEbY8FAIBmUMACgGxB8EQXPHMkO2pQuCP3ed+F/+YGw7+55J37/Tj1OFkyef7cuwcbHWa33/Yuk57g49rhB1Rmn/gBBcl7Vf+agR8Q7bHRc3kbT+xKXzVmkdZPLqfaBQAQAwpYAJAlCJ5WBc9A0hIrRn+8z/su/JLM/eOvt9n6omuOec6alGJk78mv7CJnr/61c2+Q7FG+BI+/4hV+QKHjPJy2xA8o/omnPTZALo8U57THAgCAHyhgAUCHQfAEFjwDSYfI2SFb3HnH3Xu/78ILJPcvl75r/yvauuL7T164yZrB6BUmd5RJe0nORfm1PsC+8APyJpk9Xz/8gHwGB+2x9UdH8Uq8cRAAoGdQwAKA7EDwJCl4Nneyo2V29D7v++oNki4rCvuGhqOl3/irl98eKhb2mFw6MRzct7s591Jn2mu1iudJbr5/wYMfUNMD4QcUUtjLW5xn3R47dg+0x8aPc18hm+kKQ+pbAABeoYAFAFmBH1AGgse0i0m7OOfeqGLC9n7vV/9Hzl1tsp+Yc/87WFP8ZPOnPPCLCw49dFTlCHuf9vVNi6lVTxwUepKzwZPMFU833f9iyW3iyp5z/ICm+WfaY1vIZB41cJ5+QPm+gCOx9tgQsUl7rP/YBAAAL1DAAoBswA8oS8HjJD1dZk93kpyZNHS6+ycbP7j3e796g6T7JP1W0j2S7pOzVet2splMC8200DlbJLkdtPrBbQdya//sbN2u+yp4aI8td6vQUlVlTLH8gGiP9RZBPVhhmGJ7bPk5i2PqBgDgFQpYAJAFRbHWzQjB0xnBM0/Sk2fc17r/u/aauw4IHvyAgt1IwWPcp7DHD4j22M7l8sBx7itFpPgCDgAAqMqAUwAAvQTBg+CJKnhKHA0/IOEHVPY4rDAMmsuDrjCkPTZ+nKfYHgsAAHWggAUAHQE/IARP1wUPfkCtxCZ+QN5iM+4KwzjFq1YKmqwwrDymtNpjAQCgLhSwAKAD4AeE4Om64KE9Nn6c4wfkNUv3tT22NysMzePWtMcCAMD0UMACgMzBD6gTggc/oOC3BO2xbcS47zj3lSJS9AOiPbbc/jJoj+WNgwAAEAgKWACQMQieuKI+oOBpdKXxAxq3KX5ACeQo2mP93S9R2mMbbh4izn3HZg4rDDvVHgsAAE2hgAUAmYIfUCvnHD+gyIIHP6BytworDKuMKWs/IFYYZp3L+9seCwAAPqCABQAZgh8QgqcPggc/oLgx7jPO8QMqL+p5AUf0XO4tvdEeS/EKACAuFLAAoNvwa31Coh7BU17w0B4bN8Z9x7mvS0l7bNBc3tf2WPO8kxzaYwPsK1YuBwCA30MBCwAyA8HTiuDxfe3wA/IneHrkBxQ0NvED8hYcvV1h6PsJR3ts5THxxkEAgG5DAQsAMgI/IARPRMHjOTaz8AOqqP5YYRgqzmmPLRfjPuOcFYben8OiPRYAAPxCAQsAMqHwKHh8zYwRPAieFgUP7bHevxvtsTHivKUWxMRzebBT5DWXB36o9rU9FgAASkMBCwB6Ab/WI3g6JXiya4/1tBv8gJKNzZjtsZ1/AYfX60d7rM/gwPcKAKBdKGABQLfADwjB03XBk6UfUE9WGOIHFDyXs8Kwg7m8wZiybo8FAIDKUMACgO6AHxCCp+uCBz+gxOKc9ths2mMrxHk3crnP9JZme2zMAVC8AgBIAwpYANAN+LU+IVGfruDpoh9QF4tXCirqaY+N8IXq74v22CBxnkYu7/ILOCheAQDEgAIWAORPdoIn/V/ruyp4YonxmH5Atb9fVn5AYUQ97bHNNqY9tv7oaI9Vf9tjAQCgNhSwACBvshQ8HoaF4OmX4GGFYUIx7jPOaY8tn8tpj40f574yI+2xAADgBwpYAJAvCJ7EBA9+QPgBeYwg/ID8fKgTfkAdbY8NEdktFWnj5PLM22MBAKAxFLAAoKPgBxRf8Pj6qgiecZviB9QszmOJevyAWorzXNpjWWGYbC7H9woAIE0oYAFAnvRV8Pg+ifgBpSt48ANKLM5pj6U91mMu5wUcLeTykkejeAUAkCwUsAAgPxA8HRU8+AGVi/GaX4L2WPyAGlxt2mNTzeWBIjeHF3B0oj0WAACqQAELAPICwRNZbMcUPL4G57N4hR9Q6DgPpwnxA4p/4mmPjZ/Le7zCMPtcDgAAVaGABQD5gOAJInhiifrWf63PRfD0uj2WFYZlx0R7bLNcTnts6rl8zEczbo8FAID6UMACgKxB8CB4Hvkh/IDqH4j22JBxLm9x3kU/INpj24xzXyHLCsPoFwQAoGdQwAKAbEHwIHhKfxQ/oLEHwg9ollHiB+RPqZtn1Z9De2yI2KQ91ltsxlphCAAAzaGABQCZg+BB8MQXPN73RXtsYnGOHxDtsd4iiBdwtJLLSx6N4hUAQFZQwAKALEHwIHj8Cx78gEKrtOyKV423xg+oXJzTHptvLveZIrr+Ag4AAGgKBSwAyA4ET+6Cx2fFBj+gcoenPdZjaij5Z1YYlrvlU1xhSHts/DjvenssAAD4gAIWAGQFfkBdEDy+Jv74ATUV9bTHNovz8KJ+7Qe7u8IwTvGqFb8/2mNjPdkD5XI/hy2YtgEAeIUCFgBkA35ACJ60BQ9+QPHjnPZYrzm2r+2xvVlhSHtsNi/gAACAaaGABQDdBz+gjhWvUhU8zQ9Le2wbMe47zn2liG76AdEe22ac+7qUtMfGz+UAACBRwAKArEDwtCp4Gl0dBE9QwYMfkJ9rhx+Qv/uF9tjEcnnAFYa0xyr1SAIA6AoUsACguyB48APKSvDgBxQ/zmmPzWKFIe2xtMc2PVr04hVlLACAEFDAAoBuguBB8GQneHzFOSsMQyQJ/IB8xDntsXW+G+2xMeK8pRW5AABQCQpYANAj8ANC8KQlePADajPOfV1K2mPHbUp7bOyYDJHLI7THBthXFi/gAACA0lDAAoDugR9QfwQPfkCl9kN7bKg4pz22nKiPk8tpj80jl/MCDgAAqAsFLADoFgge/IC6Lnhoj6U9tunRcvADYoUh7bFRcjlvHAQAyAkKWADQHRA8CJ7eCh7aYyuPkvZY319khj10dIWh93oF7bHxTzzFKwCA3KCABQDdgOIVgqcPgof2WD/XDj8gf2OK0h7bcPMQce71+tEe6zM4smiPBQCAWlDAAoD8wQ8IwdMHwUN7LH5ADa523n5ArDBsPZc3GFPW7bFj90AZCwAgJhSwACBv8ANC8KQmePADSizOaY/Npj22Qpx3I5f7TG9ptsfGHEAWKwwBAKARFLAAoIPwa33Oggc/oPqiPnachxP1tMdG+EL195Vde6yn3QSO8zRyeZdfwOGneIXvFQBAe1DAAoB8wQ+ok4LHjxjFDyhqnPuOTdpjvV0B2mPrj472WNEeW+2bAQBAYChgAUCe4AfUL8HjWaziB+QtgmiPrTgm2mMj5PK+voAjiVw+5qO8PRYAABpAAQsA8gPBgx9QHwRP7/yAzFcoCT+geO2xjfbFCziixnmcXE57LAAAhIMCFgDkBX5A+AH1QfD00g9I+AF5OklZ+AHxAg5WGDYcUxbtsQXTNgAAn1DAAoB8wA8IP6A+CB78gPADanDtaI/1mMt5AUcLubzk0bJ9AQcAADSBAhYA5EGB4OHX+sQED35ACca5L21Je2y5OKc9Nj68gKOLL+AAAIByUMACgIzBDyi+4PE1UfdZvMIPKHSchxNl+AHFP/G0x8bN5T7jnPbYLrbHAgBAeShgAUCm4AeUu+CJdZLwA/ImmT1fP1YY+gwO2mPrj47ilTq2wrDFXA4AAEGhgAUAGYLgyVfw4AfU9EC0x4aMc3mLc/yAyhye9ti4T0ifudxnnHe9PRYAAHxBAQsAMgPBk7fgwQ+oibDHD2iWUeIH5E9VR/EDSqw9NkRs0h7rPzazy+UAAOATClgAkBEIHgRPHwQPfkAhYhw/oJbiPJf2WF7A0UIuL3m0DrbHAgBAPShgAUD2IHj6JHjwAwpWOQge4z7jHD8g2mPJ5Y3DlhdwTLOH8CsMAQCgPhSwACATEDwInpJHww9ItMeWPQ4rDMdtmu4KQ9pj48c57bExnmEAADAzFLAAIFvwA0LwdEfw0B4bKs7Dx/jaD3Z3hWGc4lUrBU1WGFYeU1rtsX4O6789lqoWAEAoKGABQHfBDwjB0/SL4AeUUIz7jHP8gMrFuM/blRWGIZIEL+BoKZcr4k0PAAC/gwIWAGQJfkAhRL1PwWOJCp7mh8UPqI0Y9x3n8hbn+AGVOTzFq0gPugC53Gec0x4LAADNoIAFANmB4Al17vi1PivBQ3tsy3FOe2zTGKc9NlSc0x5bLpf7fLhRvAIAiAEFLADICgRPM8ETXtTHFzze94UfUGJxTnts3n5A7edy2mPbzuUljxa9eJVIkRYAAEpDAQsAsgHBg+BpX/D4Clxaqjze9SW3ZoVhuTinPbbOd6M9Nkact+xVRfEKAKB1KGABQBZQvELwtCV48ANqM859XUpWGI7blPbY2DEZIpdHaI8NsK/evoADAAAqQwELALoBfkDpCh78gPxtTntsjfOHH1A5Ue8jada6GpEeCbTHVhkTL+CofyCKVwAA4aCABQD5YwF2g+DxJ3g8X8y8/YB442DcOKc9tlyM+4xzVhiGeHDRHttSLq8Y5xSvAADCQgELADoGggfBk4DgqXAgilezjJL2WO+5bvo9dPSNg7THthTntMcCAEAYKGABQN7gB4Tg6brgoT225pXGD6jc5h1+46Dv2KQ91tsVoD0WAADqQAELAPIFPyAED4Kn5q1Ce2yVMeEHVP9ArDCMmMsbjIn22DxyOQBA36GABQB5guBB8PRB8OAHVGNr2mPLxXkifkCZrTDsYntszAHEao9ttC+KVwAAyUIBCwDyg+JV64IHP6AIggc/ID8fpj12mn9OsT3W5yMhXJynkcu7/AIOP/2p/l/AEf7uBgCA8UxwCgAgBwrZt5y50zf8i/Ox84f+P084b996uv9Z78iF1+vhR8eWG5Nz3oNplu9URLnkrtIYzc9XdZ5js/AZ9a70jooqfyl9Oe0wyT3m4eec9thmN735OUC1T9EeW3lMtMfWP1D0xWQAAEABCwDy4NK/2v9iSRdzJgDANy98x/nPkbPHPKQ4aY8ts0/aY0NAe6yPOE+xPRYAAHxACyEAAADAOMWJH1Cp/bTSHhsiDlpqA690IWiPneafu9UeCwAA60MBCwAAAAA/oFCHn2UjPAzLnY0UX8BBeywAAMSHAhYAAAD0nGJ2YYof0NgDUbyaZZSdfAGHPMV511/AUQgAAPxBAQsAAAB6D35A9YV9N4pXgaIpMdP25jHuM859LvGjPRYAoA9QwAIAAIBeU3jRxPgBhT41vHFQYd446Pli0h7rOzYBAOAhKGABAAAANBK4+AEFOrGz1AYoXnk567THjj0QxSsAgHSggAUAAAAQWH/iB1T/++VRvPIZYnm+cbCL7bGKFOMAAFAOClgAAAAAtfUnfkD5Cvv2TNsrXYgMildB9pVA8YpyFABAWlDAAgAAAAgkxvEDalYG6NcbB/0WirJ+42Au7bGsvgIAiAoFLAAAAIDK+hM/oNCivl/FK18fWPshizgA2mN933sAADATFLAAAAAA8APyI8aTL14FCprE3jgoL5eV9tjQcQ4AANWggAUAAADgUdQH2VcOfkAW4KzwxsHKY7JIsZnFCsOE22MBAKA6FLAAAAAAfGrwvvoBeRhddsWrxlub1wvLGwfrH4jiFQBA+lDAAgAAAIgq7PEDKreLFItXPi8lbxwct2kX22MBAKA+FLAAAAAAPIhx/IBSFfaZvHEwk+IVKwwBAKAtKGABAAAANBTj+AE1KwP0642Dflc5WYzDVIpzn8UrirQAAPB7KGABAAAANJC3+AE1G1O/ile+PrD2QxZxALTH+r73AACgKhSwAAAAAAKJ8Vr76pEfUFjfqwDXLrE3DsaKzXzbYxtuTvEKACApKGABAAAA1FTD+AF5GlYObxxMrHiV3hsH5SnOeeMgAABMDwUsAAAAgDrSGD8gdfuNg+Zxa5+m7SkWr/JZYRizeFWQJgEAvEIBCwAAACCIsMcPKMIp2nCHFmD3vpfAZfLGQe/7yq49NqHQBgAAClgAAAAAVWQnfkDN5LkFk/qZvHEwk+IV7bH1R0fxCgAgDBSwAAAAAErKTvyAmo2pX28c9HvtLMZhKsU57bEBbxUAAJgGClgAAAAA+AEFV+Sx3jiYRvHK5+As6gBitcc22lcO7bEAAOAdClgAAADQc/ADCn1qYpq2exllLm8c9HwxY7bH1v5mubTHBizSAgD0FQpYAAAAALGFfV/9gHJ442AuxavW3jgoT3FOeywAAFSDAhYAAABAY2GPH1B8UR+geNV4a5+m7SkWr2iPjR/nAADwEBSwAAAAABoJe/yAWrgyHk3bfX3VfN846H1ftMcCAEAAKGABAAAATCdM8QMSbxwse/5SfOOgtRPntMcCAEAgKGABAAAA1BL1fjQyfkAV95xc8crXB9Z+yLzuz0ecm8eIpD0WAADqQwELAAAAoLKoryhY8QNK7SpX+qoxTdubhlrZD8RcYVj7pPSyPRYAAGaCAhYAAACAH2VdaVP8gGrsva9vHPR8MWmP9RZBrL4CAIgIBSwAAACAUMIePyBfV6bDxasxH23tjYPyFOe0xwIAgB8oYAEAAAAIP6Am3y+P4pWHUz3bXzN442AX22MVKcbDxzkAAIxjglMAObP/B7659WDOaFsrRtubtI2c22Rg2qQY2OYyt4lkm0jaRHKbSLZw3YRjIGnTh+1mvqSNwgqewtNEEMETX/CYR+3qV/AUsQSPx32NuyX64Qfkk+J3+0zHzDpCS5V/P6BF+AGlKsbbM22PlctjvnHQ+74SKF61UtDMsHhlt59ylKQPoR5Sv1B6QNKD6/7rPjmtWffv98rcKjm7S9KvZe7XcnaXnH4tV9ylqYk75Fbd7Lb/yJ2cROgyFLAgWfY98+KNJ0aDXcy5x7mBdpH0ODP3KCdtK2lHSdtIa+aaSXJO7iFR76abWFg+Bqi+95WD4PE+Bwz0a73vV6znIniitlThB1Q3zmOJevyAWorzXvoBpfjGQb/3cNZvHMylPZY3Dj407nmSNkdhJM/mMwafsw3/t0mygTQoJM2VrTjlfkm/kNxNcnaTCv1Cshtl7ofa/pc/c+6CEacYcoYCFrTO/qcvfZRzo6eZ9Ay5wVOc7Aky7SLTdhpobWFqXY520aogCJ6ogsfr9UPw+AwO/IBSFTz4AcXN5X4Gjx9Q7rncZ4rwWbxK5wc3VosDtM7Gkp4i2VNkD4knt/b/3v7oVXb7KddL+qFkP5QGP9CaOf/tHnXqXZw2yAUKWBCNZ5/3/Tnb/ubeXTUsniNzT5f0NMmeLhWbS79fQRXk13oED4IHwVP9aAge4QdU9ji0VAXN5fgBJZLL/a4wjPUwoT021dgEiM58mZ4t6dlrK1omTayWrTjlBpmu1EBXqCiu1Hbn/sg5bhpIEwpYEIyDT79khzWD4bPd2iT5At1zz/M10AKZCyB4hAFqg8kgb+9B8CB4chE8+AH5zL/WwfbYbvgBdXmFYYrtsX4OS3ssQLbsIqddZDpKbiDdfsoKu11XyHSxhsML3dZn3MopglSggAXe2P+Mbzxu6PRSk14quRePpB1cBwWP933hB4TgyVLw0B4bP85pj/WqwfEDUq9ewJFELh/z0b7+4FbhQBSvAKKwnUx/IulPNBrJVpzyIzn7sjS4VNssXObc5BSnCNqCAhbU5uAPXrrtaLV7seT2ltM+kna2bAUPfkDBKge5Cp5cile0x/ZE8NAeGz/OaY/NN5dXOzm0x7aYy2mPBciBp8jcUyR7h26/705bcfJ/yOxz2m7Tbzk3WXB6ICYUsKDC09zc4rO/8Rwrhgebs8WjNdp1Jlf1ylNs/IAQPKkJnkZXml/rETypCh7aY2mPTTg2aY/1Fpv84ObzkUDxCuBhN8XWknuTnHuTbr93ua04+d80cBe4bc6+gnMDMaCABbOyx+TS+RtvrBe6gS22s5e+srDBo9Z7hWscvYHgQfAgeCIIHu/7wg8osTinPRY/IG8RRHtsK7m85NGiF6/4wQ2gp+wouTer0JttxcnXy9lntGrep91jTrubUwOhoIAFG7D/hy+cN1gzfz+ZO1yygyQtNEPwxFAcCB4ET38Ej6/blRWGIZIEKwxbyuUVD0QuD5XLfeZe2mNzyeUKmssBuoxJ0lNl7izNW/1+u+2t52to57htPngt5wZ8QwELJEmTk5ODaxa+5Pnm3BJ70A6X09Zp/lqfquBpflgED4IHwZOf4OmiH1DlD7PC0F8upz02kVweoT02wL7yXS3ecPMQcQ4Ade+ceXLuKBXuKLvt5Cvk7GPa9v5/c+5TazhX4AMKWD3noLMv27Uw97rvSYdK2l5mkvP90M9T8OAHhOBJTvDQHltqP7THhopz/IDK5XKf6pn22NxzOT+41T8QbxwESJkS94jTCyX3Qq1Y+Atb8dZztXLT89zOk6s4d9AEClg9ZI/JpfM3XuQWy+xoM+3tPEwGw08E4wse7/vCDwjB01TweI5N/IBSFTy0x3oNSfyARHts7Fw+5qP84Db2QBSvAFKmai6xx8j0Qc3/7V/abSefqyn7sNvp3JWcR6gDBawesf9Zlz5l4Iavlrk3yWwLBE9KgifsRBDBg+DJVvBUOBDFq1C53GfupT02l1yuLHJ54IcqP7j5y+VBV4t72g3FK4AAeWS9z2wr2Wma0Fvs1reeqfunPu6e8JEHOa9QBQpYHefZ531/zrb33LNEzp3kpN3HP5wRPAie+t+vi35AXWyPRfA02w/tsaI91te910s/INpjfV4B2mNTnbMAdI3Kq65m22J7OZ2jhRNvtdtOfpe2O+dfnOMGhHJQwOooB59+xaJiuOb1dt99J8u5RyN4ui548AMKJXjCxziCpx3B42FYtMdWHhPtsfUPxArDUHHOavHyuZwf3AD6idfi1cPZSbJ/0oqTTrBb7RS3w4eu4FzDOChgdYyXnbv0scNCx45szTGSNis/i0fwxCxe4QeE4EHwIHjCxDntsfgBJZzLvaU3VovHWi3eaF/ZtMcCgJ/npNU9xnPl3Dfttrd8QaPi7e5RH7mFcw8zQQGrIxx47uVP1mj01xrpUElDBE8owdP8sPxa34aoR/DEFDz4AbUZ576+Ku2xQXN5X/2AzPNOclgtHmBf/ODmcc6iAHEO0AlCF6822N5J7jANhwfbbW95j7a79SznLhhxHeCRDDgFeXPguZc/+aCzLvtnjYofSu5wVS5eVctV+AF1VfDgB5SU4KE9NgPB4zE28QPydgVoj60/OtpjFWa1OD+4jT0QbxwESG3ObBU3NS+5YB0LJHeaVuz4Xbv1pGdxPeCRsAIrUw4899JdBqOJd9ioeIPJNSha4QeE4PE0LASPP8HjWawieFIVPLTHeg1J2mNFe2zsXD7mo7TH9iSXA3SFaC2DZXiWnL5tt73lHK367aTb+R9XcX1AooCVHYvPvHxnc8V7NXKHm2yA4EHwIHgQPAieHAUPfkDx4xw/oFbEEO2x6cYm7bEAUDt3WOCb2SRpjqR3aP6mB9stJx3hHvXBa7lOQAErEw489VubD+ZOvcOseIuk+bNOmhA8wg8orODJo3iF4EHwJC548ANKN5fzAo7EcnmXf3BjtXjo3ELxCsBn3rCwx5h++ydraFfbbW+Z1Habn+ncZMF16y8UsBLn2ed9f852997/OudG7zVpG++JCsETSXF0S/AEfYjiB4TgwQ8o+1yOH1D9A1G8Chnn8hbnWa8WH7sHfnAD6Aeprbqa9TPzJZ2m2+7ey+486TVu6w/exvXrJ5i4J5tPzB101tI/2eG++/7XOTtPsm0QPD0SPBVPBoInVJzTHlsuxhE88eOc9ljaY1PN5YEerryAw59IjPKDW9fbYwGyFppq2ai93pjW/nkfrbH/suUn7s117CcUsBLkoDMuf8KB51x+sZy7wKTHIXh6KHgqHAg/oJCCR57iHD+gLAWPd81Ee2z8E097bNxc7jPOeQEH7bGpzlkAcqbOqqsoflez/3n9G3o7Ofc1W37iO8zkuKb9ghbChFhyzlUbrbQH3yHZXzhpHoIHwdMfwSP8gBA86Qker9ePFYY+g4P22Pqjo3iljv3g1mIur3ggilcAbZOkUXvFTX73D0M5d5pWnPhMWzHvDW67s+7n+vYDVmAlwoFnXnbgSlt9veT+VkGKV/gBIXgQPPEFD+2xCJ6McnmDOMcPKEIu7+sLOJLI5XHnLF1sj1WkGA8f5wA5UrVlMIFVV9PezNPldPenstVX2e1v3YXr3A9YgdUy+5++9FHDCfdhSYdkK3hanQi2JHjwA0pM8NAeix9QHwRPmu2xMQeAH1DCsdnSnCVOLme1eJQ4931WKF4BKDOj9hn+PHb7Z2g0+q7dduIfu+0/cjnXvNuwAqtFDjx72ZLhhLtO0xWvvD30ETz4AfVB8Pj6qgielARPrFPDCkPhB+Trm/XSD4gf3Lw+Gfu6Wpw3DgL4n2fna9Re/TtIW8rcJbb8xMO59t2GFVgtcPAHL922GE18UtIrws69EDwIHgRP3oKH9thwk6gYgof22Li53E/I0B6bey73mSK6+QIOVosDdJ0erLqafgdz5fQ5W37io92OHzmdOOgmrMCKzIFnL1tSjCb+RzMWrxA8CB4ET/w4xw8IwRPgHu60H5BYYdgwzvPP5YEiN4cXcNAem1QuB4Amz8LUVl01HpOT02l264kfMpuk1tFBWIEVif0//M2th2vsE5L9cXjBgx8QfkAIngh6A8GD4Amcy6vHeZxc3uUVhon4AdEe2/KcJcXV4n4Oy2pxgK4SunBV5zMWOA/Muv2bddtdW5sd/RrnPrWG+OgOVCUjsPicy14yXFP8d5zilc9JMH5AKQmeWKcGwSPaYxE8CcS4zzinPbZcjPu8XWmPDfHd+MGtxTlLhQNRvAKITYxVV56LV6aQxauHOFy3zfui/ezEecRId6CAFTSXmDvw7MvfYTb4hqQdETwIHgSP5+kq7bHB5z4InjZi3Hecy1uc0x4bIZf3tT3WmvyZH9yC5nLaYwFSFZvqmVF7nTEdqI3ti3bja+cTL92AAlYgDjnzym0OOufyrznZaZKGeQke/IAQPJkInkZXml/rETypCh78gGiPTTg2aY/1Fpv84ObzkUDxCvpGnVVXVnH/Ka66qvUd9te8RRSxOgIFrAAsPvPyl04N1lwrad9AaSiw4PE1OAQPggfBEysDhBE8ifgBZSF4aI+Nm8v9HJb22DxyeV6rxUseLXrxih/cALpD743aa2xvL9O8hV+ym9+6EfGTNxSw/M5G3EFnX/63NrCvm7R91clg+xPBrgse/IAQPAieaoLH1+3KCsMQSYIVhi3l8ooHIpeHnLP4SmA+c3lLc5ZZ99DRH9woXkH/xKaqtQwGb89TPaP2llaCmfbVYM2X7PrJucRSvlDA8sSSjy1deNA537xAssly5xU/oPiCx0feQ/AgeBA8uQke/IDECkOfuZz22ERyeYT22AD7yne1eMPNQ8Q5QK/AqL32d1j/n/fRZr/6jNkkdZBMmeAUNGf/M77xuJWr3H9I9rRWBU8SE8ExH8UPCMHTdcFDe2yp/dAe2yzO4+Ry/ICixLnv5zvtsZXHxA9u9Q/EGwcB2lVw02+a4qortTOm6f/5CN16592S/oz4yg8qjw1ZfM5lLxkOh1dLaqF4heAJl/g9TgR9Cx4LcFYQPP4Ej+fYxA8oVcFDe6zXkMQPSLTHxs7lYz7KD25jD0TxCiA0GLU32n72BH+C3fJnf0WM5QcFrAYcdPayk80G35C0NYLHp+Dh1/pglQMED4KHX+sTinGfudxniqA9NkouT94PqJ322Mof5gc3f7k86GpxT7uheAW9AaP2RonQSvzB2fvs1j87mljLC1oIa7Dk/POHK2/e+kOSTkDwhBA8JY6G4BF+QGX/jODJV/DQHhs/zmmPDXr4kHHuOzZz+MGN9lh/8dDLH9wAUiR04arOZ0K3DHr8DlWTu9nH7ZbjlrtHfeKrxF4esAKrIvt/+MJ5D/xym89L7oR2RoDgwQ8oYTFOeyyCBz+g7HM57bH1D8QKw1BxTnts+VzOD24A+YJRe+3vMOtXm/UYQ7nB523FsU8j/vKAAlYFDjz1W5sP1yz4unM6FMGTsuDxU7zCDwjBg+BB8ATP5Y23pj02WC6vGOedyeXe0hvtsbFWizfaVzbtsQBdpkJhyZRoy6Cp1ZbBZud1E42G/2m3nbg1sZg+FLBK8opzlz7WzR1dJelFrQueZIpXqQoeX3mQX+vjxjiCJ6bgwQ+ozTj39VVpjw2ay/vqB2Sed5LDavEA++IHN49zFgWIc4BkwKi90fbeJum2s4rRv9vPTpxHTKYNBawSHHDu0t1GhbtK0pOSEDxJTAQRPPEFD35ASQke2mMzEDweYxM/IG9XgPbY+qOjPVZhVovzg9vYA/HGQYD4qk2N7wWM2ise44VaMPVR4jJtKGCN4cCzLnv2YOQuNWn7XARP+IkggqcdwZPiRJD2WARP1wUP7bFeQ5L2WNEeGzuXj/ko7bE9yeUAKVG1ZbDF9rxZb9CWVoKZz+/8yM+4N9ryE15PjKYLBaxZOPjcy17g3OAyOW2J4EHwIHgQPAievgke/IDixzl+QFFPkfc5i69xslo8lVwe89RQvIJ+gFF77e9Q36i94vb2Mbv1hGcRq2lCAWsGDjjr8hcXxeAiSZu0NxFE8OAHVP/75VG8QvAgeBIXPPgBpZvL8QNKLJd3+Qc3VouHzi0Ur6D7YNQeJvEFWQk2X2ZfsBtP2oy4TQ8KWNNw0JlL9xg4+6qkRe0mOQRPXMXRLcETNDbxA0Lw4AeUfS7HD6j+gWiPDRnn8hbnWa8WH7sHfnADyAeM2httH2XV1QY8XnMf/GczOeI3LShgPYIDz7zsQA3cRZIWIngQPPW+BoInbpzTHlsuxhE8rebyxlvTHhssl1eM8y76AaVTvOIFHOU272h7LEAnwai90YPdv1F7le0Xa/mxJxPDaUEB62EsPvPyl7rB4P9Jmo/gQfD4PEv4AYUUPL7UGH5AWQoe/IBainPaY0OfmphF2jRyeZdfwEF7bDtxDtAmGRq1T7vqqotG7VW2d6faL4/fnXhOBwpY6zjgzMv+0Ab2JbVavELwIHhSFjzCDwjBk57g8Xr9WGHoMzhoj60/Otpj1bEf3FrM5RUPRPEKoA2dkohRe6MknJtRe4nt1/7nHA3sn+zmt25EXKcBBSxJB5xz+dMHg8GFarVtMLDgwQ8IwYPgUS1ZgODpieDBD8hrSOIHpF69gCOJXB53ztLF9lhFivHwcQ7QFhi1hxFokVeCbfjxJ2vw4GnEdxr0voB10BmXP2FgdomkLbohePADKp8bETxx45z2WPyA8hA8+AHFiHP8gFoRVi3NWeLkclaLB4/zXFaLA7SVYyttilF7gMl48+9gM05uTrSbjzmAOG+fXhewXn725TtpaF+XtF3TJMWv9QkKHt/7wg+I9lgET2sxiR+Q8APy9c166QfED25en4ysFhdvHARocr9j1D5+qJFXgo0/nJNzf2+3nLAl8d4uvS1gHfLRS7ccyS6V9Jh2hRl+QAgej4LH6/VD8PgMDgRPqoIHP6C4udzffJf22Jxzuc8U0c0f3FgtDpADGLWHmbRGXglWPgluLzf6MHHfLr0sYC2ZvH7u1IMTF0j6AwRPRVmA4EHwtBbnPis2tMcieHzHua/MiB9Q0FyOH1ACudz/nMVPLqc9NnScA3QLjNprf4f0jNrLfwfTEbb8mJcT/+3RvwKWmVu16M5/MGnPdgUPfkD4ASF4IuiNbgoe3/vCDwg/oNRiEz+gxOKc9tgsfnDrZXssQBtzW4zaGya4ZufVx3co9fGZvoP7uN140mbcC+3QuwLWQedc/n6TXtW+4PE1CUbwpCR4Yp0aBI/wA0LwJBDjPuOc9tjac94AuZz22PrfjR/cWpyzVDgQxSuAGLoEo/YASVvBjNrLf+cdNGfV+7kf2qFXBawDz7789ZL+EsGD4EHwRBQ8tMcGnzcheHLP5T5TRObtsWP3QHts/DivppPC5/L4c5YwwtZzLqc9FiAwGLU3Sm55GLVX2f+xdutxL+K+iE9vClgHn7Vsn4Hsk90RPPgBIXgyETyNrjS/1iN4UhU8+AHhB5RwbNIe6y02+cHN5yOB4hXkCEbtYZJbskbt5esoRfF39rMT53GPxKUXBaxXnLv0sYX0/5k0J6zYjil4fA0OwYPgQfDEygBhBA9+QPHjnPZY/IC8RRDtsa3k8pJH4wUc4o2D0G8waq/9HXI2ai9/jCdqo9Unc5/EpfMFrCXnXLXRVOH+XU5b+pgMtj8R7LrgwQ8IwYPgqSZ4fN2utMeG+G6sMGwpl1c8ELk85JzFV4rwmcvTeQFHF4tXChbjALHAqD3MJDUjo/byY3qX3XrCY7hn4tH5AtZKW/1JSc9MRvAkU7xKVfD4ypkIHgQPgicnwdNFP6DKH2aFob9cTntsIrk8QntsgH3lu1q84eYh4hwgOzBqb7R9d4zay45pgYqp07lv4tHpAtZBZy87WdKrkxI8SUwE4woe/IAQPMkJHtpjS+2H9thQcY4fULlc7vNB2nU/IF7AEX/OIk9x7rN4xRsHAUIqMTWOb4zag48pzqqrR/KndsuxL+X+iUNnC1gHn3vZC5x0Wm6CJ/xEML7gCfPA8DgRDCF48ANKW/B4jk38gFIVPLTHeg1J/IBEe2zsXD7mo7THjj0QxSsALwWKR2yKUXuAJK0EjdorxIV9xL5/9BzupfB0soC1/+lLH1UUg3+rZ9qO4PF5M/NrPYIHwYPgaSfOaY+NH+e0x5bbH+2xqc5ZssjlQVeLe9oNxSvICozaa3+HThu1V9ze6SnaVsdxP4WncwWsyUkbDOe4f5K0LYInpOApcTQEj/ADKvtnBE++gof22Phxjh9Q0MOHjHPfsUl7rLcrwA9uqc5ZAEI+3zFq95/MumLUXuu6TdrNb9iCeyssnStgfX+TZe+UqeUeVPyA8ANKWIzTHpup4EmkPdZ/lqQ9tsaY8AOqfyBWGIaKc9pjy+s9fnADSEarldoUo/ZyQ+2sUfv45/Haj20uDd/O/RWWThWwFp+1bHdn7m8QPCFlQVrFK/yAEDz9ETy+bldWGIZIErTHtpTLK8Z5Z3K5t/RGe2ys1eKN9pVNeyxADmDU3uhh3V+j9rFzznWcZLce/Wjus3B0poC192lf39ScvtCu7xWCh1/rExY8tMdmJ3jwA2ozzn19Vdpjg+byvvoBmeed0B7rb0x9/cFNAeIcwHvixKi9YRLz9J0zNWpfb75pM31svqb0Hu63cHSmgDV/zsTHJO2ci+DBD6irggc/oKQED+2xGQgej7GJH5C3K4AfUP3R0R4r2mN9zlkqHIg3DgL4el5h1D7+q7VQ4GvbqH2a5/C0OB1ltx79LO67MHSigHXgOZe/RnJH5iR4wk8EETztCJ4UJ4K0x/ZK8FS86VlhGCrOaY8tn8vxA2otlzfemvbYYLm8YpxTvAJoWKDAqD1UUlanjNrLfWygkb2X+y8M2RewFn/oikc7sw8jeBA8CB4ED4Kn2oHwAwqVy33mXvyAcsnlYZ+ztMfGP/G0x8afswCoxXsYo/YAE2x10Ki97P4PsFve+Efch/7JfwXW1NR5kjZpbyKI4MEPqP73y6N4heBB8CQuePADSjeX4weUWC7v8g9urBYPnVsoXkE+YNTeKHlh1D7jM7jad3CT3Iv+ybqAdeDZl7/epJclkRwRPJEUR7cET9DYxA8IwYMfUPa5HD+g+geiPTZknMtbnGe9WnzsHvjBDSC+NsOo3f9EFKP2mt95P/vlG1/EfemXbAtY+537ze2d7CwED4Kn3tdA8MSNc9pjy88ZEDyt5fLGW9MeGyyXV4zzLvoBpVO84gUc5TbvaHssQLKkZtSe6qorjNqrzjGbfWf3N9ybfsm2gDWnKD4maXMED4LH11nCDyik4PGlxvADylLw4AfUUpzTHhv61MQs0qaRy7v8Ag7aY9uJcwAfOSBFo/aqNxZG7ZkZtZc7htPedvObXsJ96o8sC1iLz7n8CEmHIHgQPAieUOOkPRbB41HweL1+tMf6DA7aY+uPjvZYdewHtxZzecUDUbwCqPt8wqg9QCJWf43ay25sf8296o/sCliLz1q6lZl9CMGD4EHw9Enw0B6L4Ek1l/sNEvyAIuTyvr6AI4lcHnfO0sX2WEWK8fBxDhA2a6lx/GLUHnxMXTBqL8devJHQH9kVsMy5UyVtlbfgwQ+o3EQQwRM/zmmPxQ8oD8GDH1CMOMcPqBVB1tKcJU4uZ7V48DjPZbU4QKPoxKjdg8jy8J0xai89JtMp3Lt+yKqAdcA5S58j6fV1gxg/oAQFj+994QdEeyyCp7WYxA9I+AH5+ma99APiBzefwcFq8fqjo3gF6YJRe+0xYdTecF7Z+Dq80m5645O5h5uTTQFrctIGA3Mfqzxm/IAQPKkJHq/XD8GD4OmD4KE9Nm4u9xMytMfmnst9pgjaY6Pk8uRXiwM0udswavc/8cSoPeJ1GGiok7mXm5NNAev7myw7WtJzETwIHgRPyoLHZ8UGwYPg8R3nvjIj7bFBczl+QAnkcv9zFj8plfbY0HEOkHReK7UpRu0BJhnCqN3L9q+x5a/biXu6GVkUsPY756otZO698QUPfkD4ASF4IugNBA+CJ3Aurx7ncXI57bHB4zzD9the/eDWSi73c1jaYwEiz1FLbYpR+/ihYtQe9TqszxzZ8C3c183IooA1x1afptLG7fgBIXgafj8ED4InkOJA8LQR4z7jnPbYcjHu83alPTbEd+MHtxbnLBUORPEK+gtG7WEexhi1R70O0zHS0fazIzfhHq9P8gWsxed+81mS3tApwZNJ8QrB0yPBQ3tsaB2C4Gklxn3HubzFOe2xEXJ5X9tjrcmf+cEtaC6nPRYgwH2KUfv4oWLUHvU6zLipSc4Wad5GR3Gf1yf5ApaNitPLjZNf6xE8CJ52phL8Wo/gSVXw4AdEe2zCsUl7rLfY5Ac3n48EilfQ5jMbo3b/CQqj9tZiY8bcam8xmxxwz9cj6RN34FmX7SenvRU4xMMJHl+DQ/AgeBA8sTJAGMGTiB9QFoKH9ti4udznvJn22NRzOT+4+dCG/OAGEO3hMmsxAKP28YfGqD3qdZhx0w22f4Ju+eV+3Pf1SLaANTlpA+cGH6gzGWx/Ith1wYMfEIInVcHDr/V5Cx78gOLmcp9xTntsvrncZ4r3Wbxqac4y6x4oXgH4B6P2Rg9gjNob1ARirLqa8dph5l6TZAtY31u07AhJz2pF8OAHFPyZhOBB8IQRPPIU5wie+IIHP6CAN5mniZjnXE57bCK5nPbYcpt36wc3gDTyGEbtDR/Anr4zRu3+50zjtnf72k1vfDJ5oDpJFrCWTF4/dyA32ZrgSWIi6DM34QeE4EHw5C14aI8NFedxcjkrDKPEue/nO+2xlcdEe2z9A/HGQegXGLXXHhNG7bM+W6Ndhxk3Lb29k9Nx5ILqJFnAWrXwzhNMehyCJ57gCfOw8TwR9C14LMBZQfAgeER7bDsx7jPO8QMqF+M+45wVhiGSBD+45TFnoXgF/QGjdk8PXw/7x6jd/3Ok4v5d8Wq79egF5IVqJFfAWvKxpQvN6Z0InjgTwXYET9iJYL1jIXgQPAkIngoHongVKpf7TBH4AUXJ5b5XGHakPbbyh/nBzV8uD7pa3NNuKF5BdDBqb7Q9Ru0bPlfTNmov85031dTUoeSGaiRXwFq50h0vaSsET+C5HYKn8ffDDwjBk4/goT02fpzTHhv08CHj3Hds5vCDG+2x/uKhlz+4Afi+LzFqHz9UjNqjXodZY7XReT2a/FCNpApYe0wune+cTkLwIHiCTgTxA/ITmwieaf45kfbYENNN2mMrj4n22PoHYoVhqDinPbZcjHdrzkLxClqd02LU7iMhefjOGLX7f4Z4uA5Oz7NbXrsbuaI8SRWwNl6kY03aHsGTiuDxU7zCDwjB0x/B4+t2ZYVhiCRBe2xLubxinHcml3tLb7THxlot3mhf2bTHAsQCo/baY8KofdZ5Y7TrMOOmnq9D4d5AvihPMgWs/T984Twn97aogieZ4lWqgqf5Yfm1vg1Rj+CJKXjwA2ozzn19Vdpjg+byvvoBmeed5LBaPMC++MHN45xFAeIcoHExoG7BwfP2GLULo/YQc+IyJ9IdhZl7eZIpYE1MLXiDpB2jCp4kJoIInviCBz+gpAQP7bEZCB6PsYkfkLcrgB9Q/dHRHqswq8X5wW3sgXjjIHQbjNobbY9R+4bP0vyN2suwqUZrXkn+KEcSBaxnn/f9OYXp7akJnvATQQRPO4InxYkg7bG9EjwVb3pWGIaKc9pjy+dy/IBay+WNt6Y9NlgurxjnFK+g22DU3igJYdQ+47M02nWYNVYDF1pNryGHlCOJAtZ2991/lJMei+BB8CB4EDy9EDwVDoQfUKhc7jP34geUSy4P+5ylPTb+iac9Nv6cBaCBWMeoPdQkWRi1h3puRCu0vtSWv24n8sl4kihgOWdvCTsRRPDgB1T/++VRvELwIHgSFzz4AaWby/EDSiyXd/kHN1aLh84tFK8gLhi11x4TRu2zPkejXYcZN41+HQaa0qvIKeNpvYC1+JzL95XpGVESK35AkRRHtwRP0NjEDwjBgx9Q9rkcP6D6B6I9NmScy1ucZ71afOwe+MENoF60YdTufzKJUXtrsdEod3qKJedeayZHfpmd1gtYZiFXX+EHhB8QgidkuaSzgof22MTinPZY/IBSzeU+0xs/uOX7g1ti7bEAYdVbjWIARu2eJw7CqN3z9lELrTN9xv5Ay1/7h+SY2Wm1gHXQGZc/QdLLEDw9FzwVDkTxKqTg8aXG8APKUvDgB9RSnNMeG/rUxCzSppHLu/yDG+2x7cQ5QN3nDEbt44eKUXvU6zBrrCZQaB1h5j6OVgtYNrCT1h8DggfB0wfBE+Da4QeE4PFyhnu2wpD22KCPStpjc87lYz5Ke+zYA1G8gm6BUXuYByxG7VGvw4ybplRodYfa9UvmknNmprUC1ivOXbqZc3o1ggfBg+DpiuDBDwjBk1EubzAm/IAi5PK+voAjiVwed87SxfZYRYrx8HEOEKsYgFF7mDFV+ThG7VGuw/hEvoU23mgv8s7MtFbAmhq5oyUtRPBkIHjwA0pM8NAeix9QHoKni+2xMQeAH1CqYry9OUucXM5q8Shx7vusULyCIBGGUbsHoeRh/xi1+39OtGTUPusu1/2HGxxO/pmZVgpYk5M2kNOx011Y/IASFDy+95WNH1AGv9YjeDojeGKdGvyAhB+Qr2/WSz8gfnDzGRy9XS3OGwcheTBqb7Q9Ru0bPjcxah+TxNf7h1fYzUs2Ig9NTysFrP9aePleknb2O/fCDwjB41Hw+J4E0B6L4KE9NvtcTnts/QNRvAoZ5/IW57THRsjlFK8geTBqb/RQxah9xudmtOswa6xmUWhdpNGCA8hF09NKAatw9gYED4IHwdNWnNMeWy7GETztxLmvzEh7bNBcjh9QArnc/5zFTy6nPTZ0nAOEy00YtXuYPHr4zhi1+58HZVZodTqMnDQ90QtYh3z00i0l9wr8gBA8sx0IP6CQgsfX4DogeHzvCz8g/IBSi80c/IAybI/t1Q9ureRyn3qS9liANIoBGLWHGVPVBy5G7cGvQ6nkPe4z7kD78esXkZs2JHoBa2rVxKslm4cfEIIHPyAEj1/BQ3ts/DhnhaHP4KA9tv7oeAGH+MEt4FNqtgNRvIK8wag9zAMVo/bWYqNRjkzKm20jLTDaCKchegHLBnotfkAIHgRP7Bj3Gee0xyJ4fMa47ziXtzjHDyhCLu9re6w1+TM/uAXN5bTHQm/AqL3R9hi1b/isxKh9TOKu+mu3HUKe2pCoBayDzl32PBX2jLQED35ACJ5MBE+jK82v9QieVAUPfkD4ASUcm7THeotNfnDz+UigeAVhZ41qHHMYtXv5zuOeJa0btae66qorhVY7kLcRbkjUApYVD5m34weE4EHwIHjamoTN9M/4AcWPc9pj8QPyFkG0x7aSy0sejRdwiDcOQjLzVIzafSSZsN953HdIxqhdGLWP3WWjMS2ULdiHvLU+0QpYe0wunT8w/YnXmTmCJ7jiQPAgePojeHzdrrTHhvhurDBsKZdXPBC5POScxVeK8JnL03kBRxeLVwoW4wChigEYtYcZU5WPY9Qe5TqUyvvmI/ZoI3wE0QpYixbZgSZt6m26ih9QaB2C4EHwIHgyFDxd9AOq/GFWGPrL5bTHJpLLI7THBthXvqvFG24eIs4BYqUtjNpL7gaj9tZio9HzP9WWwRk52GyPCZLT74nXQmjuT2M+jPm1Pg/Bw9t7Mhc8tMeW2g/tsaHiHD+gVHJ5a8932mMrj4kf3OpP4JizQKfBqD2UyBNG7Z6375JR+/jtt9AvH/MSEtTviVLA2vfMizc26QD8gGJM+7v8az2CJznB4/li0h6bquChPdarRuhre2xvVhjSHkt7bKq5HGC2oMOoffxQMWqPeh1mjdVeFVoPJkn9nigFrDmDuYeYtDGCp/7G+AEheBA8/gaP4Gkjxn3mcp8pgvbYKLk8eT8g2mMjfKFAcxZ+cANoFHAYtYeY+Aqj9lDPgl4WWheTrH5PlAKWM/0pgqfBGUDwCD+gsn9G8OQreGiPjR/ntMcGPXzIOPcdm7THersC/OCW6pwFwFcxAKP2MGOq8nGM2qNch1KJOkqhdWf7xZFPIWmtJXgB68BTv7W5ye2L4Omb4MEPKFSch49xBE87gsfDsGiPrTymtNpj/RyWFYZ55HLaY33kcn5wA6gVbBi1l9wNRu2txUajfJidUXuJAw4OInmtOxPBjzAx9UrJ5iJ4Qgke/IAQPAgeBI9oj/U5Ml7AMfZAncnl3tIb7bGxVos32lc27bHQFVyYny/qBpfDqD3YZEAYtXvevl9G7SW2p4D1uzMR4Rh/0u5EED+goIKnwoEoXiF42hI8FK/ajHNfl5L22KC5vK/tseZ5JzmsFg+wL35w8xjnChDn0CLuwWSGYjaPYkCZQ2PUHvU6zLgphdZH3L/Pt1tevSU5NXABa98zL95YTnsEzcUIHgRPbMHj+9rRHhtJcXRL8ASNTfyAvAUH7bE+Hwm0x1YZEz+41T8QbxwEbzitTmg084JOgpIrBtR5aGLUHvU6zLgpb8ScZqhDTbmXkVQDF7Dmat6+kuaHnAyGnwgieBA8CB7fCTsLwVPxpmeFYag4pz22fC5nhWFrubzx1rTHBsvlFeOc4hX4fQ4ktALLlS1gYdQepUCBUfs0m/baqL3MfbMfWVWaCLnzwhWLnRyCB8GD4EHw5Cd4KhwIP6BQudxn7sUPKJdcHvY5S3ts/BPf5dXinnZD8arDWDorsKxMAStGMSD0TZfaqqvq86JoRZzsjdo9x1JKq66mZx8zOef6/cAItgJrcnJy4OT2R/CkJ3goXiF4EDwInnDjxA8IP6Bm5zycHxArDH0GB6vFU52zQEo404MJDWfe7FGJUXuYAgVG7eM3xZutXKzadvrla57S97warID1nUUvea6k7TopePAD8jcRxA/Ij+ChPRbBk0Sc4weEH5C3COpve2zrP7i1kMvH7oEf3CBTUvLAcjavl8UAjNrX3x6j9jG7TLzQWhT79D2tBitgDQodVOvmzkHweL6R8/YDanciiOBpNibaYxE8tMe2kcvxA2pT2HexPTbmAPjBLVxsQvdwSmgFlrm5wQsUGLULo/aym2LUPn6o0/zBub37nlfDmbg7HYzgwQ8oX8GDH1Dygsf3vvADoj02tdikPTZInKeRy7v8gxvtse3EOaRIId2dzGDW88DCqD1KgQKj9mk2TcCofdpCaypG7eP+YHvY9Uvm9jmvBilgvfzsy3eS9HQED4InX8Ej/IAQPOkJHq/Xj/ZYn8FBe2z90dEeK9pjfc5ZKhyI4hWExsndldBoFgQpBkiZ+AdV3X+KLYNVn3/WAaP2AMWr2NehUqF17DE21kYL/qjPeTVIAWuNir0QPAgeBA+CB8GTquChPdZrSOIHpF69gCOJXO5Tq/WzPVaRYjx8nEPi/CqdoRRbYdQeoUCRklF7G9dhxk0xai8XqyWO4crUWrpLmBbCwu2J4IksePADSkzw0B6LH1Aeggc/oBhxjh9QfNor0sbJ5awWDx7nuawWh6QpNEpnBZazrTpbDMCoff3tMWofs8vMC61OvfbBClLAcs5empvgwQ8oQ8GTy6/1CJ7OCJ5YpwY/IOEH5Oub8QIOVhg2HBOrxeuPjuIVDItBSi2EW+dZDKiTODBqj3odvOk0jNpLHuO59vMlm/Y1r3ovYL3s9MueKOlRuQmeWGIcweNR8HgFPyAETx8ED+2xcXO5z/k57bH55nKfKYL22Ci5PPnV4pALa0bDhApY41ZgYdRea3uM2qfZFKP2ckOtfR0mNNhoj77mVe8FrInhTO2DCB4ED4InZLmks4KH9tgE49xXZqQ9Nmguxw8ogVzuf87iJ5fTHhs6zgEk2bxB8eskBnLH8QslN7/R/YdRuzBqL7MpRu3lvlrDMbmit22EEwGmfHs1vUAInjwED35AIQWPr8F1QPD43hd+QPgBpRab+AElFue0x2bxg1sv22MhJ0y6/ZpPHbMmicGM5m6VVzEgqHBTnFVXCj+mpApXLceGtzyeS3ur620By+8KLDMnaY9wk2AET0qCJ9apwQ9I+AEheBIQ9T7jHD+g2vOeALmc9tj6340f3Fqcs1Q4EMUraImbkhmJua2mj1aM2ivPfTBqn2ZTjNoDPLDHbG9Psv87bKc+JlavBawDzly2q6Stogke/IAQPKkJHtpjQ+sQBE8rMe47zuUtzvEDipDL+9oea03+zA9uQXM57bGQh8j6RULD2SrtYkAdgYNRe9TrMOOmGLWPH2qg6zCc6OUqLK8FrMFALwkjePADQvBkIngaXWl+rUfwpCp48APCDyjh2KQ91lts8oObz0cCxStIaAWWs+3SLgZg1F71eRftOsy4KUbtAYRX1THt0cfE6tUDy6QXhBE8vmYkCB4ED4In8E0WWPDgBxQ/zmmPxQ/IWwTRHttKLi95NF7AId44CH5vKpfSCqxd8A8KNbePtOqqjesw46aRr0OpP6f2UoEIY3L2wj6mVt9vIXw+gifQRBDBg+CJKnj4tT7sQxk/oKYXlhWG9Q9ELg+Vy32mCJ/Fq3RewEHxCnqFczelMxbbeWwg98o/qMSYvK+6qjkma+k6zLhpai2Dqb4RM8pKsF3sliMf1bfU6q2AtfjMy3eWtCN+QPgBIXi6IHjkKc4RPPEFD35AAW+y5vuiPTYxMmuPDbCvfFeLN9w8+dXikDvOrbkpmcEU2iWLYgBG7etvj1H7mF1SaNWah3fA9QNvBayRsxfya303/YB4e0/mgof22FL7oT22WZzHyeVdXmGYSHtsiLIJ7bGVx8QPbvUncMxZIBGm7hmObkhmNG6aAhZG7cKoveymGLWPH2rk4u9Dh+thG6E3Dyxn9gI5X7Nkfq1PSfDEOjUIHtEeG1zwNNicFYY1zh9+QLXn7AFyOSsM6383fnBrcc5S4UAUryAhfvJ/H3nzgykMxG49eoGkbZMtBnh7OsYwag8tkFJcdaV2YqO1WI0Rrx5j1dyL+pZc/XlgOXtBdwUPfkBhkwTFq+4JHl/PCARP3Bj3Hee+UgR+QFFyue8Vhh1pj638YX5w85fLe/mDG3QBk/thOmpv/i7Sw5YZZOEfVHX/KbYMVn2+5V68CtQyGPs65PdGzKfbja/drE/51UsB6xXnLt1M0lO6K3hKHA3Bo175ATW60giefAUP7bHx45z22KCHDxnnvmMzhxWGtMf6i4de/uAGXcG54n8SGs0u02vtlvyDZt0NRu3RrsOsm2LUPn43yRRaB3Krn9+n/OqlgDVV2PMlDRA8uQke/IBCCZ7wMd51wYMfUPw4pz2WFYbeIoj22FZyecmjRS9e8YMb9A9nls4KrMLtwlvbShcDIhYoMGovt0uM2sd+3Prlg+XFA8tML0DweAxa/IAQPL0XPL5uV1YYhkgS+AG1lMsrxnlncrm39EZ7bKzV4o32lU17LMDMTEkJrcCyJ8UT3nUmea23YLUzJmvpOsy4aUtFzVk36bk3W9lYdf3ywfKyAsts/Osb8QNqUfBUOBDFKwRPW4IHP6A249zXV6U9Nmgu76sfkHneSQ6rxQPsix/cPM5ZFCDOoUvc98Nt77gpofHsFq8YkJ1/UMMx1fwO1sJ1mHHTFlfkzTjkFleCtdYy2OCNmKbd7cbXzu9Lgm1cwHr2ed+f46Td258IxhU8Xfy1vqZSSVPw+BYEtMdGUhz4AdWZ/OAH1Gxj/IDqj472WIVZLc4PbmMPxBsHIWG+r8nJIomZrE0OJHsq/kHK0Kg9cGEpilF7Va+rSNehe4XWebKp3fuSYBsXsLa5795nS1rgbVLCr/UZCZ4UJ4L4AfVK8FS86VlhGCrOaY8tn8vxA2otlzfemvbYYLm8YpxTvIK0sauSGcryOx8vaWH0AgVG7bM+04J/51KbptYyiFF7o0Kr648PVuMC1mBM+yCCB8GD4EHwBBM8FQ6EH9CYB6bnKQLtsZ721Us/INpj45942mPjz1mgq5jp6mQGM5zYNa1iAEbt0a7DjJti1B5AXKn9Qqv1xgeruQfWLAUsBI+PSRPFKwQPggfB43uc+AHhB9TsnIfzA6I91mdw0B6b6pwFOoxNFINvpzMa27VctKe4kiVkMSDSmCqd2lRbBhtch1K7bHHVVQotg/4KrS8wWzLsQ5L1YOJuz0tS8OAHlJzgCfh0RvAgeIQfUOwY95/L8QOqfyDaY0PGub9rl/Vq8bF74Ac3AHP6yTWfOuZXCU2Rd41SoMCofdbnWZjvjFG7fxGSsFH7eDbRTXOe3oc826iAddAZlz9B0nZJCh7PNyh+QAiekOWSzgoe2mMTi3PaY/EDSjWX+0xvvIAj3x/cEmuPBage11cmNR432wos/IP8P40wai83ZIzagxRarR9thI0KWIWKFyB4EhI8FQ5E8Sqk4PGlxmiPzVLw4AfUUpzTHhv61MQs0qaRy7v8gxvtse3EOXQdJ5dM+6Dd/NYtJLdTsAIFRu0Nn2MYtUcdUx8KrU69MHKfaJSkK7ndI3jyFTxdnwjiB0R7rMc493r9aI/1GRy0x9YfHe2xoj3W55ylwoEoXkFOFMPBN5IZzJzi+SpyKAaEzfXRCibJGbVHvA6l/txiMc1ajo3SH298HV7chzzb1APreQiePgieFCeCCB4ET9cFD+2xXkOSFYbq1Qs4ksjlPufN/WyPVaQYDx/n0BN+8oOPvunGZEazXjsRRu3BxoRRe4ldYtQe6Y2Y29kv//RxXU+0tQtYe5/29e7tyzsAAIAASURBVE0lPQnBgx9QvoIHPyD8gPIQPF1sj405APyAUhXj7RVp4+RyVosHj/Nc3h4LvcCcXZxYin2h1wIFRu2zPsPCfGeM2j0I7HjXYbrtYxdaR8PO+2DVLmDNG07s/tDn8QNqSaLiB4QfEIKntZjED0j4Afn6Zr30A2KFodcnI6vFxRsHoW3cyCVTwLKb37qRpOd0shiAUfs0m2LUPn6ofSm02h91PdfW98By9tzxGgs/oN4LHq/XDz8gn8GB4ElV8NAeGzeX+5zb0x6bby73mSJ4AUeUXJ78anHoGavXDEffTEfhrflDmZsbdhLXOf+gys+v4N+51KYpGrWrnTHhzSZJz+16sq29AssK2x3Bg+Dpt+Dh1/ryzxEET/w495UZaY8Nmst73h7rLXJzeAEH7bFJ5XIAz/Oqb13/8RPuS2hIL2p808/6wI7YFhbPP2j89skZtbfUnjfjLltcCcYbMdfi9HRbcdTGXc639U3cndsdwYPgaUPw4AeUoODxvS/8gPADSi02aY9NLM5pj2W1eB5zFugHA7mL0ppSDF7k4abPoBgQaUwYtZfYJUbt7RdaJZlN6P6pZ3Y739Zg/9OXPkrSjggeBE8bgieWqEfwIHjixTkrDH0GB+2x9UdH8Uod+8GtxVxe8UAUryBnptzoi6mMxWxyYrwPDv5BYTQIRu3BrkO4h66yM2qfMVbXxavTH3Y539bywBoM7blWdvKNHxCCB8GjWrIAwdMTwYMfkN+Je7hcN/0eaI+NH+e+QpYf3ILm8qA/uFG8gpSw7/3wE8ffkMxwlt+5uwaDRe0WAxpsn9Kqq6C5O8VVV1U3aXHVVRvXoVa8RvLfWv/h1mkfrFoFLJPbfcOTix8QggfB4+1YtMcieJqMEj8gf7kcP6DEcjntsfzg5vORQPEKfDC4IK3huAP93ewYtQf/zqU2xajds3hS5kbt62+/4cc6vQKrngeWlazqIXgQPAieJARPuAfqdP8cp3hlkU4NKwxFe6yvb0Z7LO2xTY/GCzjEGwchNYYj/XtaI3IH+CkGYNTeaoECo/aK8Rr6uiVk1P7w+dX0H3uM3XD4tl3NuZULWJOTkwNJz0HwIHgQPG0LHn6tD/dQiCF4AhSvGm+NH1CwXF7xQOTyULncZ4rwWbxK5wUcFK8AKuD0/Ws+dczPUxmO3XnS9pJ2azZxw6i9UZHF21wbo/bxQ+2pUXu5Qmtn2wgrF7C+s/CFT5K0iX/Bgx8QggfB4z0kETzqVXusNfkzKwyD5nLaYxPJ5bTHltu8Wz+4AQTMT2m1D64pDpTkZhXGGLXXKQbEKVBg1F5hqD03ah+/bWcLWJU9sAYa7v57aYIfUCqCh7f3IHi6I3hojw0V5+FjfO0HWWEYIc79ZknaY2uMKa3V4j51gs/iFXMW6DSFc6MvJDakA9bWrzBqr/qc8r//OvMPjNr9x2qMeG3DqH1sLuisD1blFVj2O/8rfq0PNhGsIXhinRoEj2iPDS54GmzOCsMa5w8/oPJzKFYYtpbLG2/ND25B5ywVDkTxCjrEpf/9sT/7RSqDMTt6jqSXVlt11UKBIiX/oKDf2SpumqJRe+7Fq1S92Wp8h8rx6p5rNjlQB6nzpZ6LH1CD+64tweNhdAge4QeE4Ekgxqd5uPq+4/EDmmYPHV1h2JH22Mof5gc3f7m8lz+4AUjm9OmkBrR8zoslbVptAopRe5iCQ9VnMEbtngWTemDUPm5Mm+qmn/xBF3NvpQLW/h++cJ6kp6cpeEocDcEj/IDK/hnBk6/goT02fpzTHptLLg8b1ZmsMKQ91l889PIHNwBJ0q83f2Del9JSdYOD8i0GRBoTRu0ldolRe0ZG7WPmO0UnfbCqrcBas9EzJZuH4Omf4AkqxvEDylTwxCle4QcUQtT7jHP8gII+Sjznctpj287lJY9Ge6woXkHKmLPPLvvH161KZjw2OZBsSXLFgFIfx6g9ynUYO2SM2vMzah/7nTvpg1XJxN0V07jZ4weE4EHw9FTw+LpdWWEYIkngB9RSLq94oM7kcm/pjfbYWKvFG+0rm/ZYgDA4DT+T1IBW/OrFknb0XwxosD1G7TNsilG75wlkpHhN0ah97MaswJLsOd0VPL7uQQRPXFGP4IkpePi1vs0493UpaY8Nmsv76gdknneSQ3tsgH3xg5vHOYsCxDmAJDl9/9qPH31tUmMyOwyj9uDFgPrfAaP2UMUA9duofSy72s1LNupaCq5q4v4cBE9uggc/oKQED+2xyQmeoLGJH5C34MAPqP7oaI9VmNXi/OA29kC8cRC6iJk+lNZ4jp4jG/yxH3GPUXsY7YhRe7mhYtTu+TrM0Ui7dS0Hly5gLZ788gJJf4DgyU3wpDgRxA+oV4Kn4k3PCsNQcU57bPlczgrD1nJ5461pjw2WyyvGOcUr6Cbu1qlfbXF+UkO6Zc4+km2VfjEg0pgwai+xS4zaO2PUPnb/g875YJX2wJpatPAZriiGCB4ED4IHweMlDjorePADih/n+AFFPUVec7nPcdIeGzSX97U9FuBhONNHrr/g0NVpDWpw2Ppxj39QlO88dtMWrsPYP0e6DuEEkvBmq/oZ65wPVukClitGu0oOwTPtHiheIXgQPAge3+PEDwg/oGbnPJwfEO2xPoOD1eKpzlkANuCBOcM1f5fSgOzG186Xs5dTDIhVDCi7KUbt43dDoTXSd35W1xJx6RZCJ7crfkCeAjeHX+v9P2IRPAge4QcUO8Z9xjl+QE0PRHtsxFzeYExZrxYfuwd+cAOoi3Pu09/92J/dldSg5iw6SNImrRQoMGqfYVOM2sfvBqP2iNfhCbbiqI27lIsHFU7Hrt4Fj+cgydsPqN2JIIKnx4KH9tjE4pz2WPyAUs3lPtNbmu2xMQfAD27hYhMgAIWN7MPJjcrZGzFqj1oMmGVTjNoDTBqFUXvj7QdaufrpXUrGpQpYk5OTAyc9A8HjQfBUOBB+QHkIHvyAMhQ8+AG1FOe0x4Y+NTGLtGnk8i6/gIP22HbiHGDaoPvCtecd+7OkhrTiz3aWbJ+0igGRChQYtZfYJUbtvTFqH7/Nbl1Kx6U8sL676IWP10gLETwpC56EJ4L4ASF4UhM8Xq8f7bE+g4P22Pqjoz1WtMf6nLNUOBDFK+g4RSH7QHKjmrI3yZXvpsE/KMT8AqP2crvCmy3qddggg9XppEuXckmvGOyG4Eld8KQ4EUTwIHi6Lnhoj/UakrTHqlcv4Egil/ucc9Mem28uB5g18L7wg08e9z9JDckmJ+T0mvJ3ToN2pFT8g8w6sOrKc4thK6uurMJQW/Dfshauw5h5U7TrMOOm3VqBVaqA5axK1Q7Bg+DxKXjwA0Lw5CF48AOKEee0x7ah3Noq0sbJ5awWbxrnsU4NxStoiTRXX932q5dL2iG/YkDNMWHUXiIpYtTeY6P2WTY1yekZZkuGXUnKJZedlq3a4QeUpeDJ5dd6BA+CJynBgx9Q0rkcP6DEcnmXVxiyWjx0cqd4Be1h/5ra6qt1CeWYPIsBGLU3HhNG7cKoveymv9t+gW7U47uSlQclz8Gu/i8ygicZweP3iYofEIJH+AHFjnGfcU57bNMDUbwKGefyFudZrxYfuwdWiwN4YDRwxftSG5TdftwukvZqrxgQqUCBUXuJXWLUTqF1plh9xGcK7daVxDy2gLX/B765taQdETwInjwFD35A5WIcwdNOnPvKjLTHBs3l+AElkMt9xnkH2mPN58RYPW2PBRgbxJ/5r4+f8L/JDWtqcPTMGg7/IK9jsoeSeMstg9OuumppJVhrLYMUWsttOsP2rjsFrLFvIXTD1btJDsGD4Al6+4cTPL4GR3tsloLHAkQ2fkDpxibtsYnFOe2xrBbPY84CMA33DUeDv0ltULbibRtrtPKN3oU6b22rVgyIeY5SWnXVxnWoFa+8EXMaOvMmwonxmwx2m/2EIHgQPHVu4vwET6zYRPB4FDxerx8rDH0GB+2x9UdH8UodW2HYYi6veCCKV9AXTDr9mk8dc1tyA5t64Gg5t2XaxYCaY0qqGBCjCFLHqF3tjKk1r6vq84lo1y2v4pWkHrUQOjdbtQ7Bg+DpuuChPRbB4zPGfce5vMU5fkARcjntsS3m8vhzlnCiymMuD/qDG8UryJblEyN3TmqDsu8fPUfOvWX9mwP/oDDFAIzaxx8ao/ao12HGTUvvf3u74fBtu5CgB+PPje3aScGDHxCCp+mxaI9F8DQZJX5A/iYU+AEllstpj+UHN5+PBIpXED0b/sU1nzrmgeQGtsOcwyQ9Jk4xIFKBAqP2ErvM3aidQmu4WK36HdZ0oo1w1gLWHpNL50t6UicFj+99IXgQPKnFZgLFK4t0alhhqA75Afmbd+EHlH4u5wUcTWO8W3MWileQwNz2e9d94pjPpTk0nexFGGPUPs2mGLWXG2pqq64ijakrhdaOvIlwVg+sjRZNPVmjwUT6ggc/IARPqoKHX+vDPVBiCJ4AxavGW7PCMFgur3ggcnmoXO4zRXTzBRwUrwCCMJIbniC55ILPbvuz/VUUuzW62TFq91sM8Lk9Ru3CqD1ErD7iM846sQJr1gKWK4ZPXv9E4QeE4EHweA9JBI961R5rTf7MCsOguZz22ERyOe2x5TZntTiA1yzm7GPXffzo76U5uOLtaRUDaop1jNoD5FCM2oNtn3Xxarrt3W5dyNWzthC6onhSmNjupx8Qb+9B8CB4chE8tMf6zL9xVxgm0h7rP0vSHltjTLTHBnqU9HLOAh3ntompwd+kODC77fjdZdqzdk7GP2iGYgBG7Z4FvjBq97x9daP2cd/5D+zmJRvlnqxnLWCZc09qS/CESVbtCp5YpwbB0yXBQ3ts/DinPdbrxLuv7bG9WWFIeyztsanmcoAqzyo74ZpPHfPbJAdX2HvDFAMiFSgwai+xS4zaKbTOFKter8OEVo+elnu+HvcWwif7FTz4AYW7ITIVPMkUr1IVPPIU5wieuDHuO859pQj8gKLkctpj/XyY9lh/ubyXP7gBlMTpwus+edwXUxya3Xr8CyW3X+WbEqP2aTbFqD2A6BFG7aHmAYH27wbZ+2DNWMBacv75Q0lPwA8IwRNU8DS60giefAUP7bHx45z22FxyefDYzGGFIe2x/p4svfzBDaA090xpdGy6wxu3+mqaYkDr5te2NjlmXwzwXFhqZdWVVRhqCwU+Cq3TbBr4OhR6Uu5Je0YT95U3bbaLZPMQPAge/IByFjz4AcWPc9pj815h2H4upz227Vxe8mjRi1f84AbgHWdv+Z+Pn3BzikOzW4/fV6Y9/BYDgjz9IhcDqm6KUfv43WDUnka8RrgOzp6ce9qesYA1csMnOTP8gPwfHsGD4IkoeHzdrqwwDJEk8ANqKZdXjPPO5HJv6Y322FirxRvtK4cf3CheQbv8x7UfP+4fEx7feygGJF4MyMXryt9EUHFWXSn8mPpaaHX5r8AazDI7ezJ+QPUPRPEKwdOW4OHX+jbj3NelpD02aC7va3used5JDu2xAfbFD24e4xygPe4ozI5JdXB263GvkOkPp7+D8A8av2lqRu0t+m9h1L7h9n1+I6bpsXbr4gU5J++ZC1jOnhRD8HTx1/pOCR7fggA/oEiKo1uCJ2hs4gfkLTjwA/L5SKA9tsqY+MGt/oF44yD0EJPc63/wyePuSHJwNjmQaXLs3Yp/0DSbpmrUrvDXodJQMWqPeh1m3LSVQutAqyaekHMCn2UFlntyDMETJhg8TwQRPPgBdV3wVHzAscIwVJzTHlt+LsYKw9ZyeeOtaY9NZc5C8Qr6iX3y2k8c89Vkh7f89qMkt+usxQCM2j0VAzBqDzOmKh+n0BrlOjycYpi1D9bELH97YvcET9iJIIIHwZOt4KlwIPyAZtkX7bG+v4i/fWXjByS/54n22HRjM7vV4p52Q/EK2uX6YuON357q4OzO1y/SaveBZsWA0Dc6Ru1h5gQYtQfbHm+2R/45ax+saQtYB5yxdDvTaPMuCB5+rUfwIHgQPOHGiR8QfkDNzrkFu360x/oMDtpjU52zAFTiPlfo0B+c9er7kx3h6vnvkrQDxYCsigHtXIdKf8Kovf1YbTk2Hr7JTFZRmTBtAcvZ6Mnm6sZXl/2AEvu13jsIHgRPHwQPfkBxc7mfkGGFYQdzeYMx0R6bx5yF4hUkNss97trzjv1RsuP75YmPk0ZvqV4MiCSMUykG1M4nrLoKM2+n0Np+rJb4jK33v7MuYE3rgVXUrsp13Q+o3YkgggfBg+BJJc5pj8UPKNVc7jO9pdkeG3MAtMeGi02AmJizD1/3iWM/m/Qgh6NzJZtX7Ybtin9QleFj1B5g4ieM2kPNa1N7I6YkZ080WzLMNZ/PYOI+eHKvBU+FA1G8ykPwdNEPqIvFKwWLcd9x7uur0h4bNJf3sj3WOt8em9YLOGiPbSfOASrxnak7t3x7ygO05cftLdniaroao3b/Y8Kovdb2GLVPs2mqhVaTpPn6WfGYXBP6DAUsexKCJ4Tg6fpEED+gfNtjExQ8vmOT9lhvV4D22Pqjoz1WtMf6nLNUOBDFK+gpd0y50ZLrLzh0daoDNJuckOnccMWAmsI4qWKAlGbLYEtjshauw0xzhOwKrYHHZC1ch1J/fsQ/DC3bNxEOZvjCT/J9QRE8noaF4EHwIHhainGfcU57bPlcTnts/Dj3lRlpjw2ay/nBDWBcLK6SGxzyPx8/4eakB7r8jhPl9LRwxYAaK1+SKwZEWL1TaZctrgTLpmUw1UJroFiKWmitUryacQVftj5YG5i47//hC+dppXZE8CB4Qt14CJ48BA9+QLN8Gj+gYGe58b54AUfUOI+Ty2mPDR7nubw9FqBaOL7p2o8ffVXSg7z1hMfIivfw1raZNseo3bOoEUbtoZ7z2b0RszsFLHff3MfYcKbWwnQFD35AbQoeX18VwZOS4Il1avADEn5Avr4ZL+BghWHDMbFavP7oKF5BUph793WfPOaz6Y+zOE+mhe0WA+rMl1IrBgQYk7V0HSrtKjWvq0hjspaug7d4DV1oLfWZ7rQQFgPbOUfBUztA8QPCDwjB01HBQ3ts3Fzuc45Ge2y+udxnisi8PXbsHlgtDhAEp/Ov/eTR70l9mHbL8a+Wab/2iwEYtXsoBnjYHqP2qvOeaNdhxk2TNmof97kueWC5xyJ4EDxxBQ9+QOViHMHTTpz7esTQHhs0l/e8PdZb5ObwAo5c2mOj/ODW9fZYgMpcudkD814juaQD2m49eivJzvIu7rMuBkgYtXuf6Amj9lDz2AyM2mfDaQv72ZKtc0zyGxSw3EC7IHj6IXj4tT5BweN7X/gB4QeUWmzSHptYnNMeS3tsHnMWgBL8z5rVEwcv+8fXrUp+pMXExyRt3U6BAqP2crvEqB2j9pk2zcSofex5HWW5Cmuw4URuthVYCJ4uCZ5Yor71X+sRPD0SPKww9BkctMfWHx3FK3VshWGLubzigSheQU/5+XDk9r3+H97469QHasuPXyzZoa0WA4K1DFbcvkvFAF8PCmvhOkw3J+CNmDPEaocKrYMiSyP3DU3cne3cpLiD4EHwxBc8+AEheHzGuO84l7c4xw8oQi6nPbbFXO4zzvnBLd9cDlAVd2sxHOxz7SfedFvqI7WfH72prPi45OIJ7xmeH2kUA0JPoDBqr7w9Ru2e4jUJo/Yx19rtrAyZmOZ71f4iCB4ETzuCBz8gBE+gyMUPyF8uxw8osVxOeyw/uPl8JFC8gtb4jSvsgB984k03ZjHaecOPSnoUxYAOFgO8PyRaKPC17nUVI14ptP4Op8fmmPTXK2DtMbl0oTTaCsGD4EHweFccNZ5lcYpXFunUsMJQHfID8jlnoz029VzOCzh86BJ+cAMIwL1mtt+15x13XQ6DtVuOWyLpVdELFEkVA2IUQeoYtbdUoGht1VUdXZdaoTVGvLa4Im/GP3sck+vACqwF86d2thpLWvEDQvDkLXj4tT5sYqZ41fTCssKw/oHI5SHj3FeK6OYLOCheAQTlt67Q/teed9x3cxisLT9+J5mdF7UYEGg+TDHA0/bZtAxSaG1tTKELrWaPzTH5r2fiXrjhzuEET/NzjeBB8IQRPPIU5wie+IIHP6CAN5nHSYDHXE57bCK5nPbYcpt36wc3gES428z2/e/zjr06h8GaTQ5k9i+SNseoPWQxAKP2yvMAjNpniNXevBFzW7tu341zewCsV8AauGJn/xPBvAQPb+9B8HRH8NAeGyrOw8f42g92d4VhIu2x/rMkKwxrjIn22DJfgzkLwDrucIX2vO6Teay8kiTduuKvJb0kfDFA6RUDrMVCUfxiQNmHQ9zrMN13SKll0Fq4DjNumlqhNcKYFmz0mNweAoP1J3cPLSPj1/rQigjB0yXBQ3ts/DinPdarBu9re2xvVhiax61pjw06Z6lwIIpX0Ducbi/M9vrv8469Lpch2y+P313m/ipOMcA6UAzwvPKllZZBqzDUFgp81sJ1GDO/iXYdZtw01UJrhOswGGbng7WeB5Y5t7Mz/IDCBW6mggc/oNA6BMHTSoz7jnNfKQI/oCi53PcKw1zaY3kBR4Q5Cz+4AQTgJnOD/X7wyaN/msuA7edHbypnX5BsTnBhjH9QgOc8Ru3tx2qMeO25N5sV2RWw1luB5UylvgCCp/73ww8IwZOP4KE9Nn6c0x4b9PAh49x3bOawwpD2WH/x0Msf3ADK4Uw/LCaGL7ruYxkVr0xO8wb/IGc7V7vj8A/yUgyI2jJYddVVrAJFled/RG+22Ndh1k3xZpNc3i2EZZzo8QNKWIzjB5Sp4MEPKH6c0x6LH5C3CKI9tpVcXlpERszl3ZqzULyCROa3l86ds/qFP/jIm27JatjLj32npD8OXgxIwaidYkDF+QtG7dGuw4ybUmh92EQp3xVY+53ztS3ktEnUiWBUwdPuRBDBg+DxOnRWGOIH1OD74QeUcC73lt5oj421WrzRvnrZHgtQOvb+cTgaHPCdj7z5nqyGfcsxe0l6d1BhnHUxIMCYMGoXRu2hnmcdMGqfPVbz9cAarh7uaM6H4PF1LhE8cUU9giem4OHX+jbj3NelpD02aC7va3used5JDu2xAfbFD24e4xygBczZe6/7xLF/K7mswtFuPfrRKty/ShoGKwYEvZNTLAZU3STFVVeKOyZr4TpEj9fQsRpgTNbSdZj9nx+b2/PhdyuwbGDbN5sIInhaEzy+BQF+QJEUR7cET9DYxA/IW3DgB+TzkUB7bJUx8QKO+gfijYPQF0xaJWevu+7jx/1NdsWrG187Xzb4N0lbBRHGSb21LYb4rmPUnnvxKtWWwaqx2rc3YpY4RrpvxNzCfr5k05xy7cM8sNx2QWZ3sSaCCB78gLouePADoj226dHwAxLtsbFzuc+5fYfaYyvEOcUr6AtOutm5wYuv/fhx/5jlF5iY/zGZnuNXGOMfVG6XGLXna9Qe6LrhzVZ+N1NTj80p1f6+gFVMX8DCDwjBg+BJRPBUOBB+QLPsi/ZY31/E376y8QOS3/NEe2y6sZndanFPu6F4BbExfXNk9pxrP37097Ic/vJjjpfT64MUAzBqz6sYgFF73Osw46YUWkvH6zAvI/fftxC6Ytu2BA+/1iN4EDxtCh78gMofEj+gYHGelR9Qz1YY0h4b9FHpd70nbxyELPnUsHB7/+CTx92R4+Dt5mNeJnMf8i6MMWpvuRhQ50GAUXvU6zBrvEa8DqV22WKh1cb8wfLywfqdibuT27YtwVN70pXDr/X+H5MIHgSPaI+NHeM+4xw/oKYHoj02Yi5vMCbaY/OYs1C8ghb5rZkdfd0njzs/1y9gvzjhqXKjf324pvJSDAgmclMtBlTdBKN2jNp9xGqAMaVp1D77H1ymBSw5t/1DM8C8/YDanQgieBA8CJ5U4pz2WPyAUs3lPtNbmu2xMQdAe2y42AQIyHeHI3fENZ869ue5fgH75Z/toMHURZI29SaMkyoGxBDfdYzaWypQtLbqqvqzPn+vqzrxSqG1dqxapi2EKmy7rARPhQNRvMpD8HTRD6iLxSsFi3Hfce7rq9IeGzSX99IPyDrfHpvWCzhoj20nzgFmuG2dfXg4ci+85lPH5Fu8uvP1izRY81VJO01/Z+Ef1HhMGLULo/aym/JGzPG7mXX/j84p/z5sBZa2C3KC8QNK7ZGbrOCJJcbzbY9NUPD4jk3aY71dAdpj64+O9ljRHutzzlLhQBSvoNM43W6Fvea6Txx3cc5fw2zJUMvnflbSbnkUA6puyqqrhsUAT/ORBFddBZqz1o/XFtvzZvxzi/dP7Xi1HXPKwQNJWjJ5/lxJmyN4PA0LwYPgQfC0FOM+45z22PK5nPbY+HHuKzPSHhs0l/ODG8BanD4310099bpP5l28kiTdsuUHJR284V2FUbuXYgBG7cKovWy8RrwOpXaZsFH77Al6K/vZ/vNyScETkrRq/ubbmckhePADQvDkJXg6U7zyE0qiPRY/IP/fL7VcXj3O4+Ry2mODx3kW7bEAG3CbmZ1w3SeO+2IXvowtP/ZvZfozL8WAoHkR/yAPYjXudZhue4zaPcRqgDHlaNQ+O05Dt52kX+SQhweStNoNtgtzomfaA35A8QWPr6+K4ElJ8MQ6NcEFT8f9gGKdJPyAmp1zVhjmkctZLV5/dBSvICJmcv+yZvXE0677ZEeKVzcfc6JMk42FK/5BJZJT7sWrhv5bpT4eY9WVdWDVlWcvt1YKrVW82Wpeh9Fgh1xy8YQkDWxqW3uYn3tYxYEfUKcED35ACJ4k4pz2WNpjPeZyXsDRQi4vrYijPJlZLQ7QiBsKszf94JPHXtaVL2S3HPcayT7UWLTiH5RAMSC0dk1t1VXNMeHNFuBZnHB7q7m8Clim4Q5hlmogeLojePADKp9LEDzx49zXo4P22KC5vHftsYEiN4cVhrm0x0b5wa3r7bEAv2OlnJ2x2QPzT1v2j69b1ZUvZTcf80rJ/kF6yG6FYgDFAF8iBqP28ZtSaI0Tr4NsjNzXvoXQ2XZeTgaCJ7LYjil4fA0OPyAEz4aTOfyAEotN2mMTi/MMVxjmkMtpjwXwyVdkduK1nzjupi59Kbv1+H1VFJ+XNMQ/KNdiwNiEH/c6TLd9SkbtbVwHb/GKN1vtY7hi+1zy8sS6ieG2DsGTpOCJJerxA0LwxItzVhj6DA7aY+uPjuKVOrbCsMVcXvFAFK+gK5jTj1XYSZ14u+Ajv9stx++poviSpHkUAygGBBsTRu0eYjXAmHpXaM1nBdZg3f+3DYIHwRNW8OAHhODxGeO+41ze4hw/oAi5nPbYFnO5zzhnhWG+uRzA3eqk4zbfZsXTO1m8uvnYPaTiPyXNx6jd0/aNjNo9GoRj1P6IWMWoffyQO2LUPmtKt8xWYElbhpkIInjiCx7zuDV+QKkIHn6tn2WU+AH5e4DiB5RQLq8e53FyeZdXGMYpXrVS0KR4Bf74tUlnLJh//4evPvfklV38gnbzMS+T079LtlGtuw7/oASKAaHnOBi1h3k2483mWTiX376YbkFTmkys+15byIWYWiF44gseX1+VX+tTEjyxTg0rDIUfkK9vRnss7bFNj9bX9ljeOAhpcp+TPmbz5p123Qdf95uufkm75bgDJft/ks2nGEAxwM8TA6P28ZtSaG09Xl1mBSzntFktkYLgQfBEEzz4AYVN6hSvml5Y2mPrH4hcHjLOfaWIbr6Ag9XiAGP5rTn7xMTU4OxrPnXMr7r8Re2WYw+Vis9KmtMk/+dXDAgwJozahVF7qHjFmy3QmLY2mxw4N1mknqtnaCFE8CB4UhM8JY6G4BF+QGWPwwrDoLkcP6BEcjntseU2Z7U4wAY43S7ZJ0dmH/rhx4+/u+tf124+7gip+KeHtBHFAIoBXseEUbuHWA0wJgqtD99+qJ9es4Wk5H+omFgyef7ce6WN8QNC8CB4EDxBYhM/IG+xiR+Qp6vOCsPKY0qrPdbnXJHV4gDr4/5Pzj662QPzzlv2j69b1YdvbLccd7RUfELrXm6VZzEgqtANlMtYdRVsTBRaS2xCoVWDwTbKoYD16zlbbD5Hhadzjx8QgidVwUN7bPw4pz3W6wQbPyDxAo7Yudzn3KpDL+CocCCKV5AJI0lfM7NPXvfJY74qud4Ej91yzLuk4j3S792AS91p+AdlVgxoYUwYtc+wKd5snidY8ubN5kbbSPpR6nl7Yv6EbTGygLmiDcHjYXQUrxSmeIUfUE8ED+2x8eOc9th8c3lDnRAkl/uMc9pj883l0HFuc9I/j4bD837w0TfduPafjuvFFzdbMtTyLT4q6ViKARQDghQD2oqNh29PoXXMn3tm1D7d9g//z0Lb5pC/J0Yjt5kGPiZNCJ5WBU+j0ObXegRPqoKH9ljaYxOOTdpjvcUmL+Dw+UigeAWzMpLTxXL61GZbr/jqssnJqb6dAFtx1MZavuALkg6sm/PzKwYEGBP+QaJlMFS80jIYfEzTfdS5LN5EOKGBbYLgQfDkKHjCJNiZ/hk/oPhxTnssfkDeIoj22FZyecmjRS9e8YMb9BF3jZz9yxyNvvC9j5+woq9nwW46entNua9IehbFAIoBXseEUbuHWA0wJgqt5WPVtFUOeXzCuWKRmUPwIHgQPL6HzgpD/IAafD/8gBLO5d7SG+2xsdpjG+0rhx/cKF7B9PxIzi4YTg3+5ZpPHfPzvp8Mu+2Yp2hkF0p6DMWABttj1N406YfZnkJriU0otM76cafNc8jlE1a4hbPaFiJ4EhL1CJ6Ygodf69uMc1+XkhWGQXN5X9tjzfNOcmiPDbAvXsDhMc4B1rLSpMsH0oVTKr76w08cfwOnZN39cvOxe2hk/y65zUvfXfgHZVYMaGFMGLXPsCnebON3k6Q32xY55PMJ59wiq3jCETytPX7zEjz4ASUneILGZg4rDPED8ieAaY/lBRzBc7nPuSM/uEFnuUnSJZK7dOWDE1/7yaffcC+n5BH3yy3HHC3ZRyXNoRhAMSBiMSDOOaLQOubPGLVXKLTmsQKrkC1ysSaCCB78gLoueComKlYYhopz2mPLzwFZYdhaLm+8Ne2xqcxZKF5BRG4wuSuddIUN3JXXfexNP5IcQTDdvfKzE+dp/oMfl/T6Onk+v2JAgDHhHyRaBkPFKy2DwcdUPVYzWYFl2rCFED8gBA+Cx28cdFbw0B4bP85pjw038Y8R5wEfqrTH+svlQVeLe9oNxas+cLek65z0Xyb3LTcx58r//sjr71x/k6M5S9PdK7e88VHS6n+T3HMpBlAM8DYmjNo9zbcotLYfq9NulMcKLDlbKLleCh78gBA8+Qge2mPLnw38gMptjh9Q/FxOeyztsanOWaBlHpT0cyf9UOauNacfTrmpH/zPx0+4mVNT41659bgXqSgukLQtxYCa22PU7qMY4H97Cq0lNqHQ2qDQmscKLMktii94Evu1HsGD4BF+QO3FOX5A+AF5iyDaY1vJ5SWPRnusKF71lrsk3eWk2026Uc5udHI3jKy4URNzbvzBlstv1eRkwWnykGduOeZoFUUJvyv8g/IsBrQwJozaZ9gUb7bxu8nOm21zMznn0p5kTEhaEEzw5PJrPYIHwYPgaSnOaY/FD6j8mEz6jZPukHS35O5dl5Huc86tMbORCt0jmZx0f+FsdTqP2kfoUud5+lLUv6AzDsVV3d/sHyiKAF/Ejftn5+E8Fs1H6xqd2A0/RQErlbv6PklrnNNI5u5Ze22K++UG95vTr4aaumuqGNz1xLu2vOuCCw4dccbCYneduIkeWP1JSYdTDKAYkEgxwN/2FFrH/Bmjdk+F1gn95OCF0n8m/TKQCZnmy4lf65MS9dUTKH5APs40fkDx49zXV6U9ttx8MFk/oBWSbpDTDWZ2gzS4fWDFnTZwdw5kv1rjRr/aeOPH/mrZ5J5TyDQAyIkfcAqCY8uPfYFWPvg5OfeYqnOY/IoBAcaEf5BoGQwVr7QMBh+T71idcJtJSryA5TQfP6DkHsXN7uMgwh4/oKCHDxnnvmOT9lhvV6Bn7bF3yelaFfqRc7rBCrthMLAbHly48oZrJo95AAkGAACVHk8mp1uOebPMzpTc+JZBigEUA8psj1G7h1gNMCYKrYpSaC2mFqae+yfMNN+lK3h8S28PN2NoYY8fEH5A3iKI9tiKY6I91k8ud9JtZrpGzq5xbnD91MD96HunH86r3gEAwM8z9JY3PkrLJz4rZy+hGFBze4zawxcDWHUVIFZbHFMfCq32CH/0BJlwD7UQtix4Qgt7/ICEH9C0/5yvH1DcODdfoSTaY+O1xzbaV/kYv1fSVSZ9a2DuW6PVdu23P/Kqezbc7AgUFwAANH+iLT/m5TL9g2RblhNkLYvvqMWAEp/BqF0YtZfdFG82z2JYGXizpV/AkrP5D7cHxQ+oxg7xA0pXjOfpB9R8NyHaY83zTmiP9TemuC/guEfSd53cpSNzV963aOK7108empBhOgAAdBH7+dGbap47Q6Y3qczrMCgGUAxovxhQfnsKrWP+jFF7nEJrBiuwJDffy5fHDwg/oIZXoGd+QF6jlfZY0R5b7ZtVYY2cvmmFvmrSxd85+8j/pRUQAABiYrccfaDkPinpUVXnLfkVAwKMCf8g0TIYKl5pGQw+ppixOhhl0EIozTf/gmfWE4MfUChhjx9Q+TxEe2z8OPeV4mmPLRfn9VcYOulXJi2V01fmrVn9n8s++Lrf/H6DV6GkAAAgznzgF8dtrmFxmqSjKQZQDPA2JozaPcRqgDFRaFX7hdYMVmCZbK7k8AMKJrYrfBo/oGBnufG+smmP9RzZLRVpK31J2mOn+edaY/qRSf8uDb5y9cKffE+TkwXSCQAA2sJuOXqJZB+TtDXFgJrbY9TecjGgjViNEa8UWtOI1yDnKIsWwgn8gJoJ+1iiHj+gloR9Vu2xrDAsOybaYyVJt5jTv5tzF3zn9COuQC4BAEDb2M3H7ijZRyW9YvyTDf+gPIsBLYwJo/YZNsWbbfxueuTNZsphBZaGfusT+AHFFfUz/BU/oCrfzNuBaI8NGefyFudZt8eO3cPYfd0t01dM+udvn3XEN/CzAgCAFLDvHz1H27rjJXuPnDahGEAxIPtiwCO3p9A65s8YtbdeaDUtSP1ZMSFpgB9QG8LeV8jhB1Tu+ZniCsP022O9RW4OKwxzaY+t92vmajn7DxvpH+cv2vHryyb3nFr7z0eimAAAoP0Zwy3H7CXTh+X0lDpz8vyKAQHGhH+QaBkMFa+0DAYfUyqx6qZ7wV9aTEg2EVrU4wfUNFhDi/q1H8QPKHCcZ9ge26sVhp5jM432WLfczD5rA/vod8541S1IJAAASAlbfvxOsqn3SzpKjmIAxQCPY8Ko3UOsBhgThVYlXWg1y6GAVbGFED8g/IAajilhP6AxH6Y9Nm6Mz/DXTq0w9PXsXe+PhaTLJH1q3sbbf/H3q60AAADSwG5+60bSynfIRu+Qyv7iTzHAv46iGBC0GNDGdfAWrxRa04jXyIVWpywKWINQygo/oFDC3mfFpvd+QCUPT3tskAls1b+ywnCaf/7dH+8w6VMTg9HfXXH6q3+JPAIAgNQwm5zQ8tuOkB54t6THVnoI4h+UWTGghTFh1D7Dpnizjd8N3mzr2Cj158jEuv/nXdh3o3gVSKonZGYdcwAJ+QF5ifHYcR40NmmP9RabcVcYmiTdJOmDqze+7++umTzmAeQRAAAkN9MwOS0/7k+0/Lb3SfoDigEUA3pSDGg5Xim0phGvWRVaO7QCK6iZtafd0FJVeUz98gOKcnjPE4zQcU57rOcJeqDJ8jT/7PTfrtAZO/5izgUXXHDoCHkEAAApYsuP21vLi9Ol4lmeBFYmxYAAY8I/SLQMhopXCq3Br1sOhVaXhweWSWNsE/EDwg+owbVr2Q8oyIEoXoWMc18pwmfxqqUi7bR7cFea2enfPvPwr0guxSV9AAAAsluO+yOp+ICs2JNigO9iQItjwj8ocrxSaE0jXntSaLUs3kKoQrMZueMHhB9QQDFePznP9M9x3jgYI8bDx3mAa5fYCkM/YZvGCkNzdpEbDf/26rMP+97afzkCdQQAAOnNCpYfs4/MvUMq9qIY4Gl7jNrzLAaEug7e4pVCaxrxmlShNQsPrIrVKPyAQgn78KJ+7Qc77gfkKSfFaXCrdquwwrDKmNJqj21yWPdt54p3XnXGkUuRRQAAkCJmkwPdetuBssFfyewP8Q/y9BmM2oVRe9lNaRkcvxtaBsfjJpQ4Mxew8APCD6jxZCZUgvY4dFYY+roTG27d9fbYWnF+vcneffWZR1yANAIAgBSx65fM1aZbHKblK/5Sck9a+xCjGEAxgGJAvHil0JpGvHal0GpZFLCKpieN4lWzZIsfkI8z3Z03DmbZHtvTFYaBJs43ydmpO9445x8wZwcAgBSxW07YUm70BpneImmHRoKMlsGWiwGzfIaWwTRjtXa8UmgNfv/kX2hNv4BlUuEaCvsYoj68sA8gVvED8pykPSYa2mPTXWHY3/bYuyT767kb7/B3yyb3nEIeAQBAcjOJW497toriaGn0KpkWpFsMqPwMFv5BIYoBHsaEUbuHWA0wJgqt6mihdZj6c2jCPXLU+AHhB9TgamfxxkHaY2mPbXo0vw+oQoV9bjhnzinfOvXQO5FHAACQEnbn6xfpwXmHS8VxKmy39V9eTjHA2/YYtXexGJBAvFJoTSNesym0pl/A0sNbCGmpwg+owfcL7Ac0zT+Hb/OieDXLKGmP9fFFvjlwgzdfcdZh1yGRAAAgJeyW43eTiqP1oF4l2aL1C1cNBBn+QZkVA1oYE0btM2xKy6BngStaBjcgCw+sNTN/B4pXzQft4cP99gOa4Z/jvHEw1qmhPVb+22MD7Mtj8epWM/vLq8884l8kl+LFBgCAHmLLj99JxeiVcu7VUvEsigEUAygGpBCvFFrTiNdeFFqzWIH1IH5A+AE1vYl6+8ZBD6OjPVZh2mNbW2E4K2tMOmtRMfX+S8569f3SkaglAABod0b8i+M217BYLLmjZMVecs55F2S0DLZcDKgzuaZlsPXxYNSeSKxW10IZF1ozWIFlWu39a9NSVeP84QdUPmfxxsG4cU57rI/2WCf9QHJvuOqMw7+PXAIAgDaxm9+whTT3ALniMMn2ldyc/IoBdeaX+Af5LwZ4GBNG7R5iNcCYKLSqh4XWQerPrwlpugIWfkCVR4kfkO8vMsMeOvrGQdpjW4rzKC2IayR3zm8WDP/m+slDVwsAAKAF7BfH7aKBWyxXHCTpJZLN2dDXimJA0DFh1N63YkCkeKXQmka8dqDQ6ix5a5O1LYS+BF3yxSuv04BmOSCIsDeP90dLxSvzfJPn8sZB37FJe6y3K9Awzq8ejoo3fuvsV/0I6QQAAFFnqjY5odvu+COZHSRzL5fsSQ9/d1NQwYd/UGbFgBbGhFH7DJvSMjh+N7QMBrwfCiXOhGSrf//rS5wGt2r3C35AVcZk/q9CA1HvM3fxxsG4Me4zznvZHrtSsnfveOOcsy644NARMgoAAILPoX924jxtPNpdhV4iZy/S8ttfIGnh2r/W0SQUAygGUAyIF68UWtOI194XWtNfgWXOPejMg/zED6jG1v31A6r2rA3/xsHOFK+8ZZ8022NjDqBu8cqcvuOKwZFXnXnYz5FTAAAQCrv16AXSxLM0shfIaW9p6gUqtFHzOQstgxQD2ioGRBoTRu0BdA6F1mDbx43X9FdguUKrZ3uLO35AvkX4LB/uhx9QxfwVvngV89QEb481zzthhWG1hO/caavvvmfymk8dswZpBQAA3h7vPz96U200Z1dptJtssKtU7KbCPV2yObPbWOEf1H4xoMUx4R8UOV4ptKYRrxRaG3wmgxZCZysbnQb8gGp8p976ATXPX7X36bPBrScrDHMpXrW2wvD3OGlF4ey1V59+xMXILAAAqP0UvvXoBRoMdlHhHq9i8DSp2E1yz5SznWWFW2v7YZKNM1+nGNDamDBqpxgQJF4ptKYRr53PrVmYuN9fe+T4AdW48r30A6qZw7rzxsE8ilc+03Gv2mP/Y81wzRu/e+pr7kJ6AQDArE+PFW/bWMXKrWS2o5ztInOPk9MuMnucnNtFpu31kHOiM/2uYJVaMSDAMzjtYkCJz2DULvyDym5Ky6DnSb460zJoajs2cjBx37CAhR9Qs+CO5QdkEQcQ5I2DvveVaPEq2CmaJtHFjPNKX7Kb7bGrzOwvrj7zyA8hyVoSgr/4i80lSXNXbaqBG2g0mCtp43XCbxMNBkPOEoAkZfguiamx/5BAEhptJg2cBjZfchupKJyc20xOQ8ltpcK2kmwrucE2km0j2VYaPbDR7z/vHvZYceMLIBQDKAZQDKi+PYXWMX/Gm43cuh4ZFLBM98tFuJdK5Xr8gFoU4zNvEeIh5Nv3ygJsHqw9lhWGZceUbnus+z8V7pCrzzrsfxDGntO2TU7ojt8+WuZ2lga7yLSTpK0k21YDbSXTlmv/W1tJa9YVqIZrL83g4XtygV6XCpDdXSWVneil1Nbian6HmMUA5x72LLZ1//2w8+jW5SJZszElUQxISmBRDKAYkE+sppZbY1+HpGI1xdyaXKE1wV+L1mdCA93fTATjB1Ruk/74ATXLZeGLc7THhoxzeYvzVNtjTXbRcGBHXnHGkXcjjBuc87tO3EQPzt9Vg2I3SU+TtIukXXT7vY+WBhO/O+cu7LUH6PBdFlhcBZhEYyYs/INyLQa0OCb8gyLHK7mV3Nrp3Ppg6rObtSuwIgt7/IDUZT+gBrks/BsHu1G8ChS5OawwbLc91iR3xtULfvpOTU4mv7w2qSi7+a1baI57vuR2k7nd5Gw3rdEuGhSOswMQf1ZCMYBiAMUAn/FKMYBiALmV3NqZ3Lo69RnO7zywWvEDCjFhww8o0E3m6+aY6Z/DF69inhpWGCrMCkPPF7NC8epemV531ZmH/xvCuMQZu+Pt26mw3eWKF0hub5meqYca/BzLqACCzoMqb0pbS/vFgDrzTvyDWilQYNQuWgbJreTWmLEaPbfmsQLLnCLcAKGFPX5APgM6/hsHfeVUn1eD9thym3S+PfanzumVV55xxPWI4xnO5R3HL5Qt2EdWHCi5PVQUj1v7BxZYAUS8EykGNNke/yCKARQD8iwGBNJC5FZya09za/oFLHPuvmo3AcWrRuWSjvkB+TnT3XnjIO2x6lp77IWjlcXh3/nIq+5BHD/izNx20mM1GO4r02IV2keyeRIFK4CW7sjEBBZtLRQDKAZQDKAY0H5updBKbq2cW9MvYLmB/caKsKI+vLAPMAFMyMw65gBivnGw9klJtHgVPDZpjw11k02Ps08/ePe9x17zqWPWII7Xnd3lf/5EDUZHyOmPJT0VU3WAhOYtQYoBASbRmAkL/6BQ8UqhNY14xZuN3EpuzTi3pu+BVRTFb9z67x73rgVpqVLX/IA85TULen/Wy1usMCx3NlJsjy15NCvztYv3XHX6kZOIY8nu/PMdNBotkWyJNHq+WGYFkMrdSTGAYgDFgGjxSjGAYgC5ldzai9ya/gqswWAw+wqshkqS4pW65gfkKbeFN5KneBUyzuUtzi3iAErE+YPm9PqrTz/y872WxbdOLpC770/l7CiNRi+RNKBuBZDMHVpjU9pa2i8GVH8O09bSUoECo3bRMkhuJbfGjNWkcmv6Bazh1Og3U4NhEGGPH5C65gfkKbel+MZB2mPjx3ly7bF3m9khV59xxOW9lcV3vP0JstEbZPe+UdKWFAoAEs7lFAM8PlsoBlAMoBiQdDEggP4ht1JoJbdOy/2pz4QmVk/M/c2gGAUR9kEncPgBBUqWPm+W6f45TvGqlYImKwwrjymV9liTbtTQDrj61CN+3Ds5bEuGuv0xB0j2ZhXFXpJjqRVAmndrYgKLthaKARQDgmxPoTXNYkCyuZVCK7nVZ6y6e1OfDU28cNWV9141948KaZ0RFi1VNUKm035A8le88jln542DIRJjL1cYmn6sqeHeV59x6PJeSeFfv2NTrZ46TrfrzZJtT3EAINm7NfCENcAkGjNh4R+UazGgxTFRaI0cr+RWciu5dYP9u/RXYA0mJycLSff4EvVhhT1+QFGFvfxcO2uyL4pX/vbMCsNpcNcOJ4Yvvvrc/hSvbMXbtrHb3japNVM3SjpVEsUrgHTv2AgTVvO7fSvFAKswVFOaK1ks4HWLVQywCpu2cB1KTegiXIfgxYAG3yGZYkCVeA0cS+RWcmufcmth96U+M5pY939/I9NmPoQhfkDqih+Q/L7yrzvFq+CxmcMKw0yKV7PFuTl9Z+hG+3/r1MPu7oUMXvG2naXiJMneJKeNkgx/AKgprmKJmdDPWNpagm1Py2ACxYDQc2daBsmt5Nao9083V7RmUsAy+5XkHut1uoUfUOUxpeIH5POwtb+ZBdicFYY1zl9n22O/VTwwOujqj7zqns7L4NtOeqw08W7JjpTckMIAQPJ3LcWAJtvjH0QxgGJAnsWAyh+j0Np+rJJbO5dbnculgOV+9fs3pOMHVG5r3jhYLteFN5KneNVsUtK39lgzLZu38XDxsjMOTz5BN4qCW0/ZSkN7m8y9RbL5FAUAsrhzExNYFAMoBlAMCLI9hdZ+FAPIreTW7HJrkUkBy7lf1ev5DC3qfQt7edoRbxwsl+vivHEw/AMgRpwHuHY5tMcG2NfsxSv35c1WbbLkojMPeLCz8veO4xdqtOAEOXunzG1CQQAgizs38IQ1wCQXM2FhJtyWwGpaDGhxTBi1R45Xciu5ldxaaf/ZrMBScWeyEzr8gLwFe2/fOOhbWtAeW3lMiaww/PpmqzZZctFHulm8Mlsy1IpHH6NC75azrSgIAGRz91IMyL0YUOrjFAPSiFeKARQDyK3kVnLrLIIieXuVdQUsu0u/7yFMRNjjB+RX3Ia4eWb7Z944GDfOaY+dLcaddOXGxZpDOlu8uu2U3XW7Piqn51IMAMjmzq2xKW0t7RcDqs8raWtpqUCBf5BoGSS35pNbKbQmkVsH9uvUZ0/rCliu1gos/ICUvR+Qr7O8/h46+sZB2mNbivOGGcDpO84W7H/JWS+/v3Py9463b6eieLekN0oaUBAAyObupRjQZHv8gygGUAzwroEotPY8t1JoJbfKpDVTyb+dfUKSBk6/Kpq89Q0/oMATsvofCFK8Ms8JJZc3DvqOTdpjvV2BmeLcST+w1cMDrjz35fd2Svra5ITuuOfNKoq/lYTPFUBed3BiAotiAMUAigFBtqfQSjGA3EpuzS23bvLgb1OfRU1IUlEUv5Ib1Dsl+AFVHpP5Ok81RX2Iw/LGwTZi3Gecd7I99merbbjf9849NPmlsJW+721vfapuv/czktudQgBAVndv4AlrgEkuZsKirSUVgYV/UJ7FgBjxSm4lt5JbPZ2jVW6nq1emPptauwLLBrcXrsZXxA/I38jimlk3uIlm+ufwbxzsTPHKTyiJ9thZ4/wGWzPc83vnHrqiM9LXJie04r5T5OzdkuZRDADI6g6mGJB7MaDUxykGpBGvFAMoBpBbya3k1hrbJ98+KK0rYLmR3aaBq/F98QOKL+zDr3KqnvvCF69inprg7bHmeSc5tMcG2Ncsxau7BkO3/xVnHLq8M9J3xdueptvv+4ycPYdCAEBWd2+NTWlrab8YUP05S1tLSwUK/INEyyC5NZ/cSqE1jdw6Y1xkUcAaSNJFkwfcI+n+EJerTuDgB9Rs4/hvHPR1H/tscOvJGwdzaY+Nt8JwVWGDl19x6mE/7YT0tSVDW3HyX0l2jUTxCiCzO7jGhNUq7j9AW0vjlSyevkOrAqvKc9YUTWBZC9dhxk0jX4dSk7YUV7JEvKdNgVay1PgOyRVaya3jd5NioTX34lWquXUGnH6Tw+xq4mH/e4Wkx8UX9vgB+RW8IRL/bP/cnTcO5lG88pnSOtcea07ujd8+80+v7IT0/dVbd9Ttw89J9hIKAQBZ3b01NmdlgOeHiVh1FbIYEPE6lPozRu2supppU3IruZXcWj63Wha+wb9zbnfSbe0Ie1+iHj+gIG8c9L2vRItXwU7RNA/0mHFe6Utm3h7r5N5x5RmHfa4T8nfFyQdranAdxSuA7O7eaptai6tG1htH0/13oa0lQYEVdNVVigKr6qqrFgsUNtucNuKYklh1teFcN41iALmV3EpurZRbTXfkMNOaeJj6u22spg28KiWWqO+ZH1D9Mfn2vbIAm4cwbfd6/Vhh6DM4Zo5z9/dXnnHYmdlL35+dOE+L5pwhuRMlOQFATndwghPWqptgJoyZsI9YDVQMaOM6JFcMaDRRDlcMaOM6kFvJreRWv7nVudtzmG1NPGzst42vDeAHVGVM6b1x0FceDF+c68wbB3MpXrW+wlC149yki+Yt2Pa47KXvHW99vEaD8yU9k0IAQFZ3b41NaWtpvxhQ/dlKW0tLBQqM2kXLILk1n9xKoTWN3FpDMJrdmcOs6+EeWLfFEfU+hb153LpzfkAeHgLT/XP4Nw52o3jlLZSUantszAHMsvLqh/MWDA5dNrnnVNby9/a37ysr/lVOm1MMAMjq7qUYEOR5QTGAYgDFgLrzQAqtPc+tFFrJrXVzq1NeK7A0kwdW0n5AvsbZPT+g5jfWdP8cvngV89TQHqswKww9X8xZile/scHglcsmD70va/l7+ylHy4qPPSIfA0Dad26NzSkGUAygGJBdMaDVeKUYkHUxgNxKbs0ttxaZtRA6c7+0GYUpfkBlx5SGH1DTB4HHM2Shr0aX3ziYYvHK5/Ox0QrDQs5edfVph/5ftvL3xsn5WnDvJ2V6DcUAgKzu3sAT1gCTXPyDRFtLKgIL/6A8iwEx4pXcSm4lt7aaWweWl4m7Fe4mDQw/oNqDS8MPyPeBrcm+En3jYB7FK58pq3srDE2avPr0w7+arfxdfvJOmrjnP2TuWRQDALK6eykG5F4MKPVxigEUAygGUAwgt5Jbe5Zbp/IoYA0e+h93bbPlLSaNwgn7AJNH/ID8fRHzfFISLV4Fj82WirSVLkQmxasZTdvNffnqBT95f7by9/aTd9XQfZviFUBWd275RGdKuGUwd4HV8DuU+niMYoB1oK0l9+KVzTxHyqplMPfiVR9zq8fr1lputQ7k1sD3j7VwHZrl1kJP2+JXOczIflfAuuaY56yRdGv9Ex5D2OMHFLN4VfubWYDNeeNgjfOXYntsyaPNvM+frR4MjtLkZJGlBF7xtpfK3OWSdqAgAJDNnVtjwtqSmJlxly1OolstBlR5nqZaDAgUS1GLAVUEVqqF1oj3dLBiQI3vkFyhtQu51cN1o9DqIbcGun/yLbSucO6CUQ6zssEjvtZNFK88Tm1be+Ogr2d4eCN5ilch41ye4txn8apRnN/nnB1yzemH/jZLCXzbKX8i2VclbUpBACCLu1ZptrVkVAwwigEUA0IXAyi0BisGWAvXodViAIVWcmuvc+vyXGZnE4/4sr/ED6gNYe+zeNXlNw6mWLwKFLmJrTD0kv8bxrmZO+GqMw6/PksZvOKUt0g6R4/40QAAkr1ra0xYAx6j7IQ1qvCuK7AiniP8gzzFK/5BwceEUTu5ldxKbm01t9otuczQ1itgDczdZC7/VSnhRf3aD6ZgZt3sJpvpn+MUr1opaLLCsPKYUmiPdU4XXHXGYf+cnQQ2Od1+8jmSTqIgAJDNnUsxIPdiQKmPUwygGEAxgGIAuZXcSm5dp7byXIFVqPiFS0rU+xT2nfQDanCjeR46bxz0tT6s4dadbI+92bnimOwksMnp9lM+JOlECgIAWdy1NTZN0eOipUl0a8WA6nPF9IoBKQqsALGUfDGghTFZC9eBYkCE3EqhNc9YTTG3Riq0WqYrsJz0i3REffUJSc/8gOTrLK+/h+68cTCP4pXPS9nJFYZT5nTYFacdeXdWMtjkdMcpH5V0PEUBgCzuWooBTbbPyky4b8WAFAUWhdZkigHB53XkVv+xSm4ltwbIrQOXZwGrGNpNg8IlMjT8gGK+cbD2SUm0eBU8NnNYYZhJ8WpMnL/v6tMPvyorGWxLhrrj0X8v02spCgAkf8fW2JxiAMUAigHZFQNajVeKAb0rBpBbya255VbLtIVwtHrBLwcTK01SzSoWfkC+gjiLNw5agM1542CN89fN9lgnXbnDjcP3ZSWFbclQKx79GTkdRWEAIPk7NvCENcAkF/8g0daSisDCPyjPYkCMeCW3klvJrdnl1mIqmxVY670Ra9nknqucdHu7wh4/oGzeOFjhQBSvmk1oetge+1sbFUdecMGho2yksE0OdPtO/0zxCiCLOzbChNXza7RbKQZYhaG28Fp5a+E6tFIMsAqbtnAdxg65xdfKWwvXYbrtkykGVInXwLFEbiW3kltTya2mTR7MZgXWBq90N1fHBws/oAhfqOEDYqZ/jvPGwWr7S7F4FUg45dAeG2Bf44q0TjrlqrOP/IVy4vZ7zpbcERQGAFKm6oQ1lpip+nDLfSVLw+9Q6uOpFQMCj8lauA5ZFgNauKcpBqRZDGicWztaaM0ut1Jo9fCdb3M7Xb0yl5ncBgUsFe4X1YPMlwzGD6i3bxz0XTbJ4Y2DubTHRl9haEuvPOOwT2cliVeccqrkTqI4AJD0nVpjwtqSmJlxly1OolstBlR5dkYSxtbSdZhx05YKRd6KAR6/g7VwHWaa56VQDBCF1jC51cN36HShNVZuDRRLvfoRy27MaTY3scG/OLspvqj3Key76QdU/yEx2z/zxsG4cU57bIkYf0A2eJPkUlw6N/13WnHKWyT9BcUBgGTv0hqbYybs+QEhzIRTKgZ4jiWM2oVRe9lNya3kVnJrcrnVXN4FLCf3Cyv1ZfEDiizs5aMo08XiVfOEEyvOfX3VTrfH/uVVZx7282xk8W0nv1bSuRQIAJK9SyM8PzATbr8YEGlMmAknEK8YtacRr+RWciu5tTO5daC8C1hmuqnuOwgbTy5z8APKpXhlnm/8XN446Ds2aY/1dgVKxPnVVy34yUezkcUrTj5Ycn8vxc2YAMCEtTfFgFIfpxhAMYBiAMUAciu5ldza4DrkXcAaSj8fVQy2XvkBeQ4gC1F94Y2Dfr4b7bH+jjZ+nw86Z2/S5GSRhSy+4+RnqnCfW5syASCxO7TGprS1tF8MqP68TK8YkKLA6nDLIMUAigHBcyuF1jRyK4XWoGOyQVYFrA1M3O/cZusbJK0JL+zxAzILdQPO9M/h3zjYmeKVn1AS7bGlVxi+98rTj7g+C2l850nbq3BfkrSQQgFAcndojQkrRu3jd4NRe7TrMOumGLWHKQZg1J5GMQCj9uDXDaP2FnNrVWEbcUyFbshpprdBAeuaY56zxjTTl8APKMIXavjAmOmfwxevYp6asKbtvnaXWXtsgH2VLNL+36YrNzsrC2m84m0bqxh8RdJOFAoAkro7KQYEKwZ04a1tNb5DcsUACq3l4jXiPZ1SMcBauA7kVnIrubULuXW1nrL58pxmfIPp/9H9eMYE6UUG4wcU/42DvuoTPhvcevLGwVzaY1taYeiseMtFHzngweTlsU0OJPuszD2LYgFAUndn4AlrgEl09AlrXYGVUjEg0piCFgPqxmtKxQCp1WKAtXAdkiwGqAPFAHIruZXc2npuNf3cuQtGyoiJ6b+a/SSMqPcp7DvtByS/xavuvHEwu+JV46273h6rr1x55pEXZpEtb7/3/ZJeQbEAICXwuGhfXHkYE/5BHmI1UDGgjeuQXDGg0YQ3XDGgjetAbiW3klu7lVvlfprbzG/aApZz+onNYGyKH1AMYd9SC+KsH2m/eBXsFE2TXGmPjRKbqwfDwSlZSOQVb1ss2TsoFgAkc1fW2BSj9vaLAdXnghQDWhoTxQCKAbkUAxrnVgqt5Na2YjWF3Fr8JLcZ4PQrsJx+st53xQ/Iy76CFK98+15ZgM1DmLZ7vX60x/oMjrJx7kznXHHqYclX/e2Otz5ehf2zJEfRACCJu5JigHdxlaLAiiSMkyoGpCiwKLQmUwwING8jt5Jbya19zq2DbqzAGqwe/G8xUQg/IH/BZAFaEYOYtlc4UGfeOJhc8cpvkKTYHuukFVOrilOTl8k3Ts6X3fMFSZtRNABo/Y5kwkoxgGJAH4oBrcYrxQByK7mV3Nqj3GrKroA1rYn7xZMv+7Vkv8IPyM/3Mwt1Q870z+HfONiN4pW3UFJ2Kwxbbo81p7d/5yOv+v/bu/N4Pe667v/v73VOkrbpRqnebQWkldo2p2mE9mZpC7ZaRJBKLTTIIt4ugP7wVkEEblEJytICiiyilEUERWlQwAKF0iU25yRdiEBp0o20QKH7mj1nme/vjyaQ5FzLLN915vV8PLy9beeaM9fMXJ/5ft+d+cym5Cvk/ps/RNN2IAU0E85zgkUz4TQmWDRqrzWWo1E7tZXaSm1te22dHcvuEcLekNnoTW4m9q4Sgtb3A3JUQ/2HVyF3Tcim7U62Mpc7DB0fzIqPx65bc8FL/jX56fLdr3+lpN8iOACi/xoDDFgdv0Y7yoDVphsGlPp4oNeZ2wjHYeCiqYYBkV4rbyMch6TDANuCMIDaSm2ltiZcWx8xyy69N7dR4eAAS+bm5hPgNr9x0G0/IG/nZe11ujwaHXnjYDLhlctxoPvHY62xb5ZMmCco6+67H77hOKn4O4IDIOovseKANdRkpurFK/fm1w2/g7c7WQgDCAMIAzoTBjSurS0NWqmt1NZmtTW7u6+kIQGWkW5OOryK/sbBEn8t0BsHbZN1JfrGwTzCK5elqDN3GE6uveBlX016ymxXjGts7pOSOYAAAYj2S6wxYI00mRm4ykiDaKuMHmsJNDFOKgwIdRx8hgEOt4mgdf53yL5/UIq11WcYEOE3TW2ltrqorUbrcxwhjg+ZAt9c/6VbnptZt6wfkJs/257wyvukKFLT9koHomVvHNxj+T9Pvires2WFpKcSIACRanTlRWkm7CcM8H1NpJmw9+NQ6l/TqJ1G7dRWaiu1taO19YYcR4oDA6xZjd08psL7j4x+QC7qqfXxNaovzhsHa+y/Tj0e+6W1737pfyc9db7ndafK2jcRIgBRfoGeB6weBpTBB6wpTrBsjY/nfmdAihOsOoOR3O+6arhNSZyrIc5Xaiu1ldoarrbmFLSadgVYdm6/jRrbNiNpQfhJ/YB/6yO8itwPqPk56r+RPOGVz/Nczs7zxB+PtbZn/iLpqfPdr18saz8haYwgAQj+CyQMyD0MKPVxwgDCAMIAwgBqK7WV2ppEbbUz385xxDiwB9aqFWfOympjnKFq25tZt/mNgymGV57O3MRCWjd10dcdhvaitee/5BuJ18O/kXQsQQIQuqZ2rccFzYT9hQE0E04jDKBRexphAI3aqa3UVmrrQA+aJavvynHk2Bvx72+udRA62g/Izw900D8OE15FaXDOGwcrb1Naj8fOM2dUvCXpKfTdr3u6ZF9JmAAE/eXVGLC2oVG7zwFrqG3yGQbUnWClFAZEOA7OwwCH20Sj9vnfgUbt1FZqK7U1bm3N8u4raVSAZcxNYSf2KfYDKvnXXN+KbD1sOm8cdHV/WMOlO3eH4eem3vUbyb6m1a5fsVAyH9PoQB+Aq7qc5IC1yn9tTXXAGjDg8xYG1PgOyYUBvBHT8SBFrXojpo1wHKit1FZqK7V1b1n2v5KG9MCSJGOLG6wx1X5wjk/t+P2AIjVtH7qG9rxxMI/wyuWh7N4dhr3CvCfpKnjYlj+TtIRQAQiBHhf+JlgB9xH9gxydr/QP8r5NNGqntlJb8z1Xk62tLXgjprXtDLCKsbHrTVE4u0DQD8jFn21PeOV9kpTDGwczCa9qn+dWV0y+5yXXJDuV/uEbjpOZeyOhAhCoLhMG5B0GlPo4YQBhAGFAuHOV2kptpbZSW2tsk9E3cx1NDn1k5uHDf+JGSdN+J/UuJ/ZZ9ANqcL5a779h3jjo6zzv5uOxtmfflexU2q7oqTf3UUn7ESwAXn9tolF7KmEAzYTTCANoJpxGGECjdmortZXa2snaOqeZhe3sgbXu1afMWOnGpgeDfkAu6qv/RvKEV0O2ksdjK6/HSNevveCllyZb/e7e9AoZnU64APhEo3b3A9ZQ2+QzDKg7wUopDIhwHJyHAQ63iUbt878DjdqprdRWamuatfUWs+zSrbmOLEc2LTbSt5rWqkr/ljcO9vnHYd44WP2H7Go1iT6CWLfGeTvP83o8tjDmAsmkeHBl7/3/DpQxbydcAHzWUJoJ+xmw0kw4jTCAZsJ+JlgNvgON2qmt1FZqK7W1zPLrch5hjo9awMhcv3c05Or2lg72A3JVY2uvM8wDbpWuX6m/cZDHY+v67qL9j7go2cpXHPAmyR5FyAB4r/QlB6we/0bZAWvQiXfdCVbAfUT/IEfnK/2DvG8TjdqprWWWz+quqwDHjUbtZSaqmdfWAcsb842cR5njo7928S3JOJ7Yd7MfUL3zljcO1inEju4Pa7h0hx+PNfrAqhVnziY5tf7BGx4nzb72x3UNgNNaTBiQdxjgZYJFGJBnGBBxguXsXA20TQSt1FZqK7U1l9pqinYHWAvGet+amat6iy79gNwM/1v6xsFkwyuXh7LTj8dut9Pjn0i36s29WzIHEDQALmU4YG18fSMMIAwgDCAMIAygtlJbqa1Z1Var6blv5jziHNkD65I/e959kr2r0XngZWKfVz+gOueW7+tPtKbtridNObxxsEOPx1rporXvXf5gklPsu1/3dEkvJmwAHNdh7wNWmgmnEQbQTDiNMIBG7TRqp7ZSW6mt1NYax8Ha281Jkw/lPOocL7nctyQdST8g/+N93jhYvxgnG1412KYcH4/tqfjHZCueMRfI8uwg4PVCNnRRelz4GbD6veYFO27ZhwGOzyX6B4n+QdRWaiu1ldrqcJt65n9yH332Si73rea7rcP9gCrVW/9vHGxNeOXmVBKPx7oLr4x0/dS7Xn51klPte/7k2bJ6FqED4L4GlxuwRp5gBX+zUIoTrOotIfJ/a1uKE6yqb22LOMGyw8aYAbcpibe27XG+JhUGdK228kbMNGqrVf61NfJdVzbCcZCSnKdVUe4OLGuubxYRdLofUIWxrP/wKuSu8du03dXq0n3jYKid5PLx2MLoQwlPuP+Cxu1AjGsePS7cT64cbBP9gxycq57CgBjHIbkwoOrH6R9EbaW2UluprSOXN71uBFhzmvvW2IibtegH5OEcrr1Olw+4deSNg7k8HhvtDsNSthTbin9Lcrp91588V1bPJHgAnF9w0h6w9r8gEQYQBhAGEAYQBlBbqa3U1q7V1hlt2ZT1Gwilko8Q2uKgmyXtqL776AdU/jxuzxsHswuvGi/N47GPLmY+dc0HXr4pyUpntILwAWhYe70PWGkmnEYYQDPhNMIAGrXTqJ3aSm2ltlJbnZ5L3zanrNuW+4i0VIC1asWZszLa4GKXd6kfkNedkmh45W0X9SnMNuLuH/rhjj4ea03xiSSn3Xe/7lclPZUAAqhbA1IcsGbU48LJADTVMKDGd8i6f1CqYQD9g7yFASn0D6K2UluprfnW1uhB6x6fKfLvfyWVb+Iua3V9tV1IP6Bytdd63yXRmrY7PX6ZvHGwu4/Hblz7rpdel2aZM28mhAA8X39p1J5xGBBom2jUXmKVNGonDCAMGLk8QWvA2kqjdn/jgBhBq722DaPT8bILmn3eREg/IBfns/9wrjVvHMwhvGqwTVk/Hvvo0v8qGR+/oGbf9c4/faZUcPcV4OriFXXAWnUR+gfRP8jFuephm2gmLPoHUVuprdRWamvgc3V8rBV3YJUOsKzVt4wpsxvpB1TufPb/xsF2hFfOTiW5bdruauNs0A3wdYfheFF8JskK1yteRxABtHzA2vhaRhhAGEAYQBhAGEBtpbZSW1tdWx/UcVfe0oaRaukASwumr9fsQquh76GnH1C5c9p/eBVy14Rs2u5kK3N546Djg+nt8Vijb6z+m5dvSG4afu+fHqui+FUCCSDXAWuJzyQ/YE1xghVoEJ1UGJDiBCtiQBEtDKg+Hgt23LJv1E5tpbZSW6mtQz5utMYYJfe0TB2le2Bd/mfnPiDp9rweqYrWD8j9HvLRtN3B1mX3xsFkwiuXdS7u47FG+rc05+LFH1epcUB30UzY34CVZsJphAH0D4o/waJ/ELWV2kptpVF7tNpa2Mm2jForTe6sMde5KTzDD0Lu/YCGr6E9bxzMI7xyWTK4w7DfCW3n7EXJTcfveO1hsvpNggkg9oDVw+CNRu2iUXuV8zWlMECiUTthAGFAieUJWgPWVoJWf+OAhIJWq9VtGblWvDvBXuftnBj1oYz6ATndKYmGV94nVJGatlc6EN194+CPGa1e8zcv+15yp9CC3qskLSacAGKHAY4Hb1HCgCr/tTXCINpGOA4jrttRJjN7LZpq0BopoLARjkOtMCDQb5qgNZHaWmVTU62t8v+bzjpoDVVbAxwH77W1wXcY/fEd2m/xuraMXscr7qtr/U3sW9IPyOU3sx4W542DNfYfj8cOXLQw/5HclNzK6B79DuEEEGty5WnwRjPhphd9f2FAjOMQNQyougjNhGnUTm2ltlJbqa3Raus15thLdrZlFFspwDqgsOu29czsjz8XKLzKqB9QxW/m7A8RXg3ZyoTeONi2x2Pt+OyXk6tq97zuFyQ9iZACyGHAWuIzNBMWzYTLLkoz4fhhQPUxGI3aqa3UVmortdVrbW1N/yup4iOEF684e5ukGwfutVY1s27zGwdTDK88TdASe+Ogm/qVzB2GN649/ze+k97xN68kpAD6/YDpceFnwEoz4TTCAPoHxZ9g0T+I2kptpbbSqD292trrboC1y3U0sy5bj8OEVzbQruGNg2rR47HN/6yR/VJyU/Q7/+RwSecQVgAhB6weBm/0uBD9g6qcrymFAVL+/YMIAwgDPIcBWdVWgtY0aitBa83aOqf9xte2aVRbOcCyVRq5l1mb59Cl+sTe+jvHa6/TZXemNr9x0DpcmjsMRy06Z3vJBVga029KWkRgAYQMA2jU7n0QTaP2PovSqD3PMCDQNhG0JlJbq2wqjdqj1LG+5yr/EatFtXWd+ZnLHmnTyHZclXeluc7UanY3f03uwqtIj1QNXUN73jiYR3jl8lByh2GJWv7IzKZNU+nN1c3vpPlYKxD8x+B5cuVp8EYz4aYXen9hQIzjEDUMqLoIzYRp1E5tpbZSW6mtydXWK9o2wq18B9am/3XE9ZK2N5tXt7IfULMTO9HwyvsEK4c3DmYSXoW8w9AaXbLuwlfPJHU23fknJ0v2BIILILW7rkr8DSf/tdXBd4je46LqgDX3CVaqj7VUHV/lPsFK9ZHBGt8h+0bt1FZqK7WV2uqwtpre5W0b5VYOsNa9+pQZI11ff2Lfzn5Ajb6Z9bA4bxyssf/c3uXU5sdje4VSfHxwOcEFuo0eF/4GrPQPSiMMoH+QnwlWg+9A/yBqK7WV2tqW2pp1o/a+prVt85q2jXbrNHFXYe219APq94/9P+ZFeDXiwuS4lPB4bL81WM2Y8csSnLu/kAAD3UWPC38TrJQGrIG2if5BJVZJo3bCAMKAkcsTtAasrQSt/sYBmdZWY9eYU9Zta9uId7zm52o2cueNg+XW6SodTDG88jRhS+yNg25O22Qfj735uncvvzupM+Hu1z9Nsj9DiIFuoseFnwGrwm4T/YMcnKsetslGOg7JhQFVP07/IGprArU1iXOV2kptjVRbi/b1v5JqBljj1lw3Z6qfMG3tB+R2zhHmAbfSm5XDGwcTC6/a/niskVYnOH9fLiOgY2gmzICVMIAwQImdr4QB1FZqK7WV2ppEbbWmdf2vpJqPEF76luffLOnhKjuwzf2AeONgvSLu6P6whktbp+dkFx6PtYkFWNbKyBQvIsxAt9BMuPZ3oJlwhDCAZsJphAE0aqe2UluprdTWuLXVhqqtm7Vza82n5tJWK8CSMVZG/1N2B7a9H5CbeUdibxxMNrxyeSjzfeOgn0HYoH+897+0Y72rkqpi97z+qZJ5AoEGuoEeF/4GrPQPSiMMoH+QnwlWg+9A/yBqK7WV2tqW2tqZoNWsMqesS+qN8a706n7QFrq20UFtTz8gr+d5tKbtridcObxxMJPwKu7jseaHV5//ku8mNp9/LqEGuoFG7f4mWCmFAYG2iUbtaYcBNGonDMghDMiqthK0UlsjHIdYtdUUX2nraLhuE3f1ZK6zQ3dsN/oB+fxDvHFwxA+/9lnj9th16/FY+9/JVTFjCbDQAfS48DNgVdhton+Qg3PVwzbRTFj0D6K2ZltbadRObaW2zv9Hc8VX2zoirh9gjc9eNzc3Vm/Xt6gfUPPzveXhlZMtrH6h8nCDX98PtfHx2GHrssam1f/qzj85XNIphBtoL5oJM2AlDCAMUGLnK2EAtZXaSm2ltiZcW281S9dsbOvIuPYjhJf++Tl3SPqh34l9+v2Amq3TBvk61a6Djm8bso5XktgbB0PtpJCPxw47z23RW5NUBRvTc5rUMSBtNBOu/R1oJhwhDKCZcBphAI3aqa3UVmortTVubQ3WqH2Q1j4+qKYTP2vNVL+d2Z1+QE3W6fIBt468cTCx8Cq9Owxd1fmBf3Dn7KbNNyY2v+fxQbQQPS78DVjpH5RGGED/ID8TrAbfgf5B1FZqK7W1LbW160GrUWsfH5QaBlimZ6f23Znd6gdUd53x3ziYXXjVeGnr9Jzs6OOx31534auTeZuFtSt6kp5N2IF2oVG7vwlWSmFAoG1KJQyoPdagUTthAGFA9DAgq9pK0EptjXSNS6e2TsuOpdez2KHxJh8uZKZ6P9qJ3esHVO8j8cMrb7toz6LuevWub4HL5I2DfgZlg/7x8PUY6ZtJVa/7tp4k6ScJPNAe9LjwM2BV2G2if5CDc9XDNtFMWPQPorZmW1tp1E5tpbaWXXC1mVi1pc2j5UYBli0Wf0tmyxbJHhhyAJ9KP6AAf37IQi7va+rYGwczCa9SezzWGn0rqeo1Z0+XIfJAG9BMmAErYQBhgBI7XwkDCAOordRWamt2tdXoi20fNTd6hHDVijNnrew17s6brPoBOftDrXnjYA7hVYNtyvrx2JFrGL2uwphvJlW9jD2N4AP5o5lw7e9AM+EIYQDNhNMIA1rQqN3SqD2NMIDaSm2NUVtTbR2QVaP2AcubL7V95Nz47V3Gaqqj/YAqrrPN4ZXLWMVl03ZXG2eDbkDIOwwrnYXbiusTq18EWMgYPS78DVjpH5RGGED/ID8TrAbfIdswgP5B1FZqa7tqq4PjRtDar7beaJZcdWvbR9DjTVdgZaaaP6aVXz+gauu0Qb5Opeuix6btTrYylzcOOj6YyT4ea7Xxmg+8fFMyU/8fvOFx0tzjCUGQJx5rabQ8j7U0DAM8Lp/snQGRfj/RztXqY6pgxy37u64cn0vUVvl/BCvz2moTODeorbnU1ou7MIpuHGAt0tjVOzU7J2ms3n7Psx9Q+Q+7fMCtI28cTCa8clkjs388Nq27r8bnnkkIgjzR4yL+gDXFCRb9g/IMA1KcYNE/iNqaaW2lUTu1ldra7Fw13QiwGj9CeMmK522SdIOLoKDZxD5sP6Byfz7+GwfzCK9c/rTzbNqe/uOx5ubEQoBTCUKQl6qPtUR8hGToRYQeF/n1D/J8LtkIxyGZMKDKYy0RftM2wnGIEgZkVlsttbX6463UVmortXV4bTUPaP2Ra7swou65WImVnawXFGTbD6jER+KHV94nY5Gatlc6EJm8cdDPRW/QP66+TUbF7Wmdf+ZkAhHkg0bt7gesobbJ54C17gQrpTAgwnEoNWaiUTuN2hOurUmHAdTWNGor/xErjdqa03/Esl8yy1fOdWFU7STAMjJTPgb0yfYDcv/nRxQLB1Mm3jhYaZtChldZPB6r3sZkogArI2mCUATpo5mwvwErzYTTCANo1O5ngtXgO9CondpKbW1BbVW44+Cttjr4DgSt5WurMZ14fFBy0ANLknrWTBWVi4WLSb3LOu7/ThnCqxEXMcc/8bpN2522AnBynsd/PLYYN7clU7Xufe3Rkg4mHEHaaCbcaHmaCTcMAzwuT6P2RM7V6uMoGrVTW6mtidZWGrVTW5vV1p1aOH1pV0bYTu7AumzF2d+30h2uDlj6/YCGrdNVt/AUwytPk7vE3jjopva16vHYmcdvHLsjnXOn93OEI0hbis2EM5lgZdfjwvFxSH2ClWz/oADHIbkwIMX+QWpB/yBqq9dtSuKuqwRrq6it1NZGtfVr5thrknlbvPeZoMN1rXF/wFwWhkH/OEx4ZQPtGt44qEbhlQ10bmZxh+GPP/K9lSuXp/NMdWFOIiBBmuhxkc6AlUbtaYQBNBP2/pumUXuatZVG7aJRO7WV2hqothr9Z5dG284CLGM05WI9WfQD8tG03cHWZRdeNV7aOj2wvHFwoHQeH5QkUxBgIUH0uHA/YA21TT4HrHUnWCmFARGOQ6lBDo3aadSecG1NOgxoQ20laE2jtvIfsRKorbMaH+9M/yvJUQ8sSeoZO1lYE2BiH78fUJVtCtX3Ko/wyuWh5I2D5a4Dze8wNFIyDdx3bdGJhCVIBz0u0hmwNvgO9A9yGAY4PpdSegQr9rlRKQwI8JumfxC1ldpKbaW2xq6tV5njVt3fpZG3szuwHnP8zuslba574DLqB1R6PSGbtnudnOXwxsFMwqsc7zC0ssn0v7J2xbikowlNkEx9rDxg5a1t8SdYCb+1zUY4DtEmWLy1rdbYibe2UVuprXnWVt6ISW31UVut/WzXRt/OAqyVy5fPWZlr6hzszPoBuVucNw7W2H9u73LK+o2DI68Fbs5za+19yVSsux9+nBzeOQo4v8hkEwaE2qYqm0qj9iTCABq1ZxoGBNomGrVTW7MIAxKsrTRqp7a6r62FFpgvdG0E7rKJu4yKqaoHL8N+QCP/EOHViIua45983abtNuAG5Px4bM/00gmw1OPuK0RGj4t0Bqw0ak8jDKCZsPffNP2D0qytNGoXjdqprdTWqLV1rTl+6s6ujcSd3snQk50sZJxNxusXiUH/OMwbB6tPJFytJtFHEOvOscr8W+v4fMolvAryeOyj5qx5IJ3zqffENM9zdAM9LtxPriJsE/2DBixK/yA/YYDfcVN6LxUIcb5SW7tRW2set6x7XaVYWx1+h2xeKpBibe2zsLGdevvgbk4DrP01tmar7E7JLip1GII+UhUmvAo1tc7ujYOJhVfW/VFocI67vCa4D46tnbk3oZrFHViIgDCAMMDx8jQTJgwIHgZEmmBRW6mt1FZqK7XVR221Uq9z/a8kx48QXrzi7G1Wuq7UYciwmfWoNfLGwfrfLUx45fJ636LHY0ec5wsXjqfzCKEhwEJoNBNutDzNhOdfX2kmPGJQQzNhGrVTW6mt1FZqK7V1xDZNmonJ73dxZN5zv0J7pZuJfZr9gBptres3DiYbXrk8lPm+cdDPAG7QP/Z2h+Hs5PkvfTidLME+kUAFAU84z/WYZsJBtolmwg7CAA/bRDNh0aid2pptbaVRO7WV2hq3thpd1NXRufMAy8qsGj7/9HBCBOwHVHtxH32vXE/UcnjjYCbhVWvuMDR6QDLpNJ0yOoJQBf7RqD2dASuN2tMIA2gm7P03TaP2NGsrjdpFo3ZqK7U1sdpqNKdidmVXR+nOA6ztB+9YK2ln/Um9yxrPGwfr/KiSDa8abJMN8WcqnecuwyuPdxhaJdTAXZLRYwlX4FdqA9a6E6yUBqyhtsnngLXuBCulMCDCcSg1mEnxsZaAv2mCVsIAwoDMayv/ESuN2tqh/4hV6Eqz9Jp7ujpSdx5grX3d8u2Srqk3qXc5sffftL014ZWTLewzIHNcAuo2bbcBNyDU47GN1lXt8ditycQKdsW4rA4lYIGnM0z0uPA1YKXHRZTJzLwxA/2DRq+mw/2DkgkDQh0Hn2FAqNqqcL/pVMKA7N8yyH/ECnLc2l5bjT7T5RF7z9N6r6z3sbzeOBgqp/DbtN3V6tJ942ConRTy8dja53nlP293JlOt7n3osZIMQQvcIwxotDxhwPwBK82EMwwDCFrTCAOordRWaiu1ldo6xIzGZj7X5VF7z89Ke5d5ndjn8sZBB1uX3RsHEwuv0nvjoKtrRJjHY41608lUq2KcxwcR7oc2dIKV0oA11DZV2VSaCecZBnjYJpoJi0bt1FZqK7WV2kptdXYcjLnUnHBtWi1eAhv3sdJZHXh1T5sekXRIq/oB1f59dCS8ary0y6btKYZX+T0em9QdWFaHc/8VnNZAr5MrTwOloI8JpDpgbXRB9jdgjXEcooYBVRfJ/RGsEOdroN901o9geQoDYhwHaiu1ldpKba2q6Pbjg5KnO7BWrThzVtLlofoBtTG8cryLhv7ArMPVOv1wJm8c9HOBHPSPwz4ea41JJ8Aa02ECovwe6XFR7qvR4yLYcRi6KP2D/IQBNGpvbW0NXsdo1J5fbaVRexq1tatvG/6RHdq5/b+6Por31QNLVuarzk8Q6zhssB4W99G03WmYkskbBzMJr9r+eKwpEroDS/ZAghc0rn/0uPA0YKXHRZTJzLwwgP5Bo1dDo/b4YQC1NY0wIFRtrfEdaNTuobY6+A78R6zAtXWeL5tT1j3S9dH8uK8Vz80Ul4yNO3zeJ4F+QNU+mugbB3MIrxpskw3xZ3avsgN3GCZ1B5bVQgIYOL+IOB2wOt6mVB4TcD7B8j1glf9tSmpyFfnccDYGyr0fS/WxUbDjln0YQG2ltlJbqa1dq619V9H5xwclj3dgXfX2c+6QdJPbItLvH4frB+S3uAxajfVyfNIIr1xunA26ASHfOFh7pzh4PNYYpdPE3WgRJRveKx7NhEtuKs2E0wkDaCacRhhAo3ZqK7WV2kptpba6OA59bVOx+EuM6T0GWLsO11fcFJFB/zhsPyC3gcuI1Xhu2u5kK3N546DjgxkyvKr9zVxlZ7aYSSeDMNyBBX+DN3pceB6wNuxxkcSAtWv9g1INA+gflEYYkFlttdRWaiu1ldqaem0dxvyXWXbpVsb2ngMsY+1XmhcRx6eCj6btDrYuuzcO5hJeRXvjoKvxTezHY41VKgiwkPWAte4EK6UBa6ht8jlgrTvBSikMiHAcSg1cutY/qKvNhAkDCANyCQP4j1jU1pxq6wg9w+ODu3eFz5Xv99DCVTLa7CI6mb+G9rxxMI/wymVZcNm0PcXwqmV3GKbCWB4hRMZhAI3aK20TjdqHhAE0ah+9GoLW+GFAhOOQbW1VuN80jdqH1NaAx8FbbXXwHaitgWtrKQ9pwYGXMMZ/lNcA65IPPG+nsfpqrYOZYD+g0RfFBCdykZq2VzoQmbxx0M8Fc9A/DhNe2ZC7pvmuXUDJBmGApzDA+QSrwXdIacBqIxyHqGEAQWsaYQBBK7WV2kptpba2v7aWXu1F5thLEnozfFw933+gMPpCa/oBDS00DqZbvHGw0jaFDK+c973K8vHYyIwZo2TD7QQrpQFrqG2qsqk0E84zDPCwTTQTFo3aqa3UVmortZXa6u44VEpUPsk4/8fGff+BRdr55WktnC39t5LuB9RvIcKrRnujZt8r63R9I/6a9fZFBqwhxTsMgVT5nlx5GigFfUwg1QGr76KU4mMCKYYBVRfJ/RGsEOdroN901o9geQoDYhwHaiu1ldpKbfVno05cu5bx/o95vwPrqyuWPyhpsvnvKsU3DqYYXnmaGCbWtN1N/UjrjYO1dwrhFTqLHhe1vwM9LiKEAV3rH0QzYX/nKo3a0wgDaNSeX22lUTu1NWZtrcHYTxnDzGxPvRB/xBj7hWa/q3b1A+KNg/LzxkHHRS2LNw4m/Hgs4A89LvwNWOlxEWUyM29M0Ib+QT7DAImgNYUwIMJxyLa2KtxvmkbtQ2prwONAbaW2uhjwFvoXxv17CxJgFdLnnV4Hap9XLvsBtfmNg9bh0rxxsNx53q7HYwGf1/JuhgE0E/Y2YKWZcIZhAEFrGmEAtZXaSm2ltlJbPZoyS9dsZOy/tyAB1qoVv/ZdY/SNeqdGe944mEd4VX3sUOnf8sbBPv+4XY/HAv7QTLhRsaGZ8MBrZn5hgIdtopmwaNRObaW2UlsJWqmt7n4PDRnzKcb+8/VC/SFbmJXVz7X2hFfeJ3WRmrZXOhCZhFe8cRBIsMbl1uOi74CVHhdpDFjpH5RGGED/oDTCAGortZXa2q7aWmVTqa1+vrMTOzQ9fhFzgPmCBVhjvdnPaN8GZB3qB9StNw66vcsp6zcOjhzzENICeQ1YS06wkg4DIgyi6R80YFGaCScZBtConTCgVm0lDEijttKondoas7Y6c7F58qqHmQfMFyzAumzFC2+T9D/lfmPt6gfUrfDK1Qce/ZANuAE20Ov5CK+AnMMAelxUvp7QP2hAGECj9tFfjaA1fhgQ4ThkW1sV7jdNo/YhtTXgcaC2Ulu94fHBQXoh/5gttHL0NaFd/YD89r1yOVGsOYYo82+tswNac32Rwqsgj8c2XJzwCkmimXCj5WkmPH/ASjPhDMMAgtY0wgBqK7WV2kptpbYGZXSfdmz/CvOB/oIGWEXRu2jQTTVt7AeU3RsHEwuvrPuj0H8J6/vg+/lmw/4Q4RXyRTPhRgWGZsIDr5P5hQEetolG7aJRO7WV2kptJWhNoba2IWj1xfybOWXdDHOC/oIGWFe97Vdvl3Td4FORNw7WuXA4uj+s4dIum7YrWNN2az3sq8h3GBJeIU80E04nDKCZcBphAP2DvJ9L9A+itlJbqa1Z1tYqm5pqbZX/33RWjwzuobA8PjhEL8Lf/Pf+pwrhVZ0fo3W4WqcfzuSNg34upoP+cbsejwXi/cZo1F7uqxEGEAYMqvuEATRqJwyoV1sJWqmt1FZqq0/mRrN06uvMDQYLHmAt6BX/Kmm28WS8k/2AMnnjYCbhVfg3Drqa18d/PBZwVtPoceFpwNqGHhc1jhvNhEeskqCVRu0xa6vPMCBUbQ34m6a2UluprYnV1hBDY/tx5gfDBQ+wLl1x7r2yuvTHp4zL8Io3Dta6ONb+abu9y8mG+DM/qg0+LqjD/jFvHASaD1hpJuxngtXgO9BMOGIYQNCaRhhAo3ZqK7WV2kptbX9tDWJahf0kc4ThYjxCKGv0yTY2s/YaXjn7ubls2u6qFrgMryK9cdD1ugiv0Go0E240YKWZ8PwJVrZhgIdtolG7aNRObaW2UlsJWlOorTRqr8b8p1m25l7mCcONR/mrvUO+oOLhhyUd6ntiHyqn8Nv3ytXq0n3jYKid5CW8ct33qpOPx6IbfE+uPA1Ygw4OUw0DGhUdfwPWGMchahigxM5X3+dqiPM10G8660ewqK3UVmortbWLtTX4OPlC5gqjRbkDa9WKM3cYmZVufmcuH3DryBsHEwuv0nvjoKvrS7vuMAS8/FicDlhp1J7GgJVmwvEnWDQTplF7rNpKo3ZqK7WV2kqj9ho2amJqFfOF0Xqx/nBh9anm5zVvHPRRFMKEVy5rscvwKp83DhJeIQ/0uPA3YKVRe5TJTNAwQKKZcAphQN0JVkphQITjkG1tDfibprZSW6mtidXWaMPlDxvDZK2MaAHWf//1CyYl3ep6Uh9tYm/dn8Xumra72s583zjo5+I66B/7D6/aVK/RZjQTbrQ8PS7mXxNpJpxhGEAz4TTCAGortZXaSm2ltiZqWoX9Z+YN5fTi/WljjdVHXZ930Zq2O/2RZPLGwUzCq/BvHHQ1z0/s8VjA+wQrpQFrqG2qsqk0E84zDPCwTTRqF43aqa3U1tTDAILWRssTtAaurREZfY7m7eX1Yv5xOzb+cUk7XU2MWvPGwRzCqwbbZEP8md2rDPTGQdtkXTk8Hgv4GLyl0uOi74CVHhdphAH0D0ojDKB/UNXxW7DjQG2lthK0Zlxbq2xqqrVV/n/T7bzras9tpnl7BVEDrFUrzr5f0uddTOzbEV65/Pm5bNruauNs0A0I+cbB2jslh8djgWzDgJITrKTDgAiDaMKANMMAEQbQqD2V2krQSm2ltlJbadTuyEYtWXMlc4jyetE3oDcgcUy0H1DIpu1OtjKXNw46Ppghw6va3yyrx2MBlwPWiJMZZwNWh9+BRu3zvwPNhEeskqCVRu0xa6vPMCBUbQ34m6a2UluprYnV1qTG0BfSvL2a6AHWFSt+7Uor3TL6HEysH1AObxzMJbyK9sZBV2Mj/43kCa+Q8IW3xoCVHhd+JlgNvgPNhCOGAQStaYQB9A+itlJbqa3U1vbX1qRMa06fYC5RTS/+Jhgr2Y8OPwcT6weUbHjlsuxap/UhvfAqnzcOxn08FnA9wUppwBpqm6psKo3a8wwDPGwTjdpF/yBqK7U19TCAoLXR8gStgWtrYow+T/P26npJHLvegn+StL2b/YDiNW2vVHAyeeOgn4vtoH/sP7wKuWtC9XZDG9BMOJ0wgEbtaYQB9A/yfi7RP4jaSm1NLAwgaG10rhK0BqytiTLmI8wpqksiwFq14uz7TWH+xflpyxsHa+y/FN84WG5h532vrIc91MnHY9EuhAGEAYQBXs8lwgDRqJ3aSm2ltlJbA9TWGMcheG1NlNHNOmHycuYV1fXSOYi995W9ChBeDdnKhN44aJ2ub8Rfs96+yIA1tOeNg4RX8DNgDTWZ8TlgdbhNNBOe/x1oJjxilTQTplE7tZXaSm2ltlJbvU0g4/ogzdvrSSbAuvKvf3W9pMucnKTJh1euJ5U1xxtl/q1tvOcari+tNw7W3imdfDwW7UGPi0bL0+Ni/oCVZsIZhgE0E04jDKC2UluprdRWamvmNmvh7CeZX9TTS2ljjCne13hin0U/oA6/cdDxRSOLNw5aD4t3KqRFXPS4aFQ06HEx8NqXXxjgYZto1C76B1Fb49VWwoA0aitBaxq1lUbtAX3UHHvNJuYY9SQVYF35V+d+WbI3ufqJtPuNg9bh0rxxsNy43n8jecIrpINmwumEAfS4SCMMoH+Q93OJ/kHU1qC11WcYEKq2iqA1idpaZVP5j1g+5/FZDLDHzD8yz6ivl9bmGGtkPxBzYp9HeFV93FHp3/LGwT7/OMU3DhJewd+1lTCAMIAwwOO5RNAqGrVTW6mt1FZqa4DaGuM4BK+tWfmiOWHyFuYa9fVS26ADxxZ+QtJ9lX8myfcDite0vVIByiS84o2DjjaL8AqNBqyhJjM+B6wOt4lmwvO/A82ER6ySZsI0aqe2UluprdRWamu6c3jXQ237QeYbzSQXYF284uxtknl/pdOYNw7WKANu73LK+o2DI8dLvHEQXUCPi0bL0+Ni/jWPZsIZhgH0D0ojDKC2UluprdRWamsLh9o36MQ1X2PO0UwvxY0an575gKSHCa9GFCfXZaBm03YbcAO8vHFw6Bpa+sZBwis0nmClNGANtU1VNpUeF3mGAR62iUbton8QtTVebSUMSKO2ErSmUVtp1B6V0XuMYQLWVJIB1mUXLH9E0j9W+z21vR9Qum8cdFLrYoVX1mXBVj5vHASqDhpoJux5wEqPizTCAPoHeT+X6B9EbQ1aW32GAaFqqwhak6itVTaV/4jF7GSeO2Ue/jfmHs31Ut2w6TG9V9L2ENO3ZkW5/I/YSfSQWHhl3R+F/ktY3wffwTerOODijYOIizCAMIAwwOu5RNAqGrVTW6mt1FZqa4DaGuM4BK+tuTPvNxPrp5l/NJdsgLVmxbn3GqOP+5zYZxdeNV7aZdN2BWvabq2HfeXjjYMV/hDhFeKhmXCeA1aJZsIphAEl/gbNhEWjdmortZXaSm2ltrpZfyts1sz4h5mDuNFLeuPm7LslTfuY2OcRXrn8vef7xkE/F+JB/9g6/POu0kHCK8T6ndDjwt8Eq8F3oJlwxDCAZsJphAH0D6K2UluprdTW9tfW1vioefKqh5mHuJF0gHXF21/4Pcl81MfE3usEMYc3DmYSXoV/46CrTCDM+x8rXesJrzqOHheNCgQ9LgZe5/ILAzxsE43a1c3+QVb519bIYQCN2gOGAQStjZYnaA1YW1tlRj37PuYh7vRS38BirnibpG0DZuSJTewzCa8abJMN8Wd2rzJ4eNWeNw4SXqHWoIFmwp4HrPS48DPBijSZGbjJ9A/qTv+gKptP0JpnGBCqtopG7UnU1iqbyn/E8vOd2zYMN/9ilqz5HvMRd5IPsFa/44V3GWP+IYvwytlP1WXTdld1xGV4FemNg67XlWh4xTUDhAGEAXmGATQTTiMMoFE7tZXaSm2ltiZXW2Mch+C1tWWM5lTYC5iPuNXLYyvHz5e02elUzsddKdbxShJ742ConeQlvAr2xsEGi/sIaeXhPEcGaCac54BVoplwCmFAib9BM2HRqJ3aSm2ltlJbqa3+5445D8fNSrNs6mZ2hFtZBFirVpx9v5He3+QHkd0bBxMLr9J746CrcRRvHETrrpY1Bqz0uPAzwWrwHWgmHDEMoJlwGmEA/YOordRWaiu1tf21tcUDcmveyW5wr5fNlo6b90j2ofQm9R7Cq8ZLu2zanmJ4lc8bBwmvEPpaWX2CldKANdQ2VdlUelzkGQZ42CbCANGoPdfaSqN2glZXtZWgNY3aSqP29Ifk9gtm6err2RHuZRNgrVrxaw9b6e2h5nZ1BvjW4WqdfjiTNw76uTAP+sf+w6uQu4bwqvNXSdGovXFRiDeZSS4MoH/Q6E3ueNDqZYJFo/Y8w4BQtdVnGBCqtopG7dTW4cvTqL09jN7BTvCjl9PGPjA+9wFJtzb7OXXsjYOZhFfh3zjY7DDVPBpeir/f8KqgSiaPMKD2NhEGRAgDaCacRhhAo3ZqK7WV2hqxtvIfsUSj9la72Jy45jp2gx9ZBVjrVyyfNtKfxZ/YZxJeNdgmG+LP7F5loDcO2ibrSvSNg94fjyW/ShjNhPMcsEo0E04hDKg7wUopDIjwm6ZRO7WV2uoxDOhQbY1xjaO2Rq6tXRqg279mN/jTy22DV73thZ+VzOq4E3tXP12XTdtdbZwNugEh3zhYe6ckGl75r70UyKSvjZUHrPS48DPBavAdaCYcMQygmXAaYQD9g6itLa+tMY4DtZXaSqP2mP6Tu6/86uW40YU1ry99mfTctN3JBDSXNw46vsCEDK9qfzPrYfHkm7YTXqWNHheNCgE9LhpOsFIKAzxsE2GAaNSea22lUTtBq6vaStCaRm2lUXuOMYVs76/YDX5lGWCtfvuvXSvp38JO6ucP9p1ED7mEV9HeOOhmXBWikTzhFfyix4WDQhBvMpNcGED/oNGbTKN2GrXnVFvl/zhkHQaEqq2iUTu1dfTcj0btbfXvvHnQv16uG14Uer1kNoWZ1M//kYf6CYcJr1yOQVyGV21+42CK4RXSRRhQe5sIAyKEATRqTyMMoFE7tZXaSm2NWFv5j1iiUXuHGM2pKOh9FUC2Adbqd7zwLmMV6CSJ17S9UrHK5I2DfgaVg/5xmPDKBto1bQxp4XLAGmoy4zMMcLhNNBOe/x1oJlxigpVSGBDhN02jdmortdVjGNCh2hrjGtep2spdV2kN2e3HzElrb2JH+NfLeusXPObvJH3L78SeNw66LHDO+15ZD3vI+j4aib5xkPAqtSthjQErPS78TLAafAcatUcMA2gmnEYYQP8gamvLa2uM40BtpbbWOW6EV75sUW9sBbshjKwDrFUrzpw11vzBXj/H1odXLmuMdTcOKfPXrLcvMmAN7XnjIOFV19DjotGAlR4XhAGEAfmGATRqTzcMoFE7tZXaSm3FfMa+xyxZfRc7Ioxe7l9g1dvPnbTSJ/xM7D1MRhNr2u6kLib2xsHaOyXR8Mr7uUl4lVitoMdFowlWzMlM/eKQ6YCVoDV+GOBgm3gjZka1NcBxyDoMoLZSW8V/xApaWyHpXo2Zv2U3hNNrOChUkgAAa1lJREFUxbeYm3ujrB7kjYPVtsm62k+jlggYXtX+ZtbD4pm9cZBLVmw0E669TTQTjhAG0Kg9jTCARu3UVmortTVibeU/YolG7Z0fv/+5OX5qM/shnFYEWKvfufw+2eK1TieSrQ2vXNZ4l28cdHXd8t9InvAK7k9omgnnN2CVaNSeQhhQd4KVUhgQ4TdNo3ZqK7XVYxjQodoa4xrXqdrKXVeJ26D7Fv4TuyGsXlu+yFXvOO+TxurzuU7sw4VXvHGw3DpdpYMphldIBz0uGi1Pj4v51y4atWcYBtA/KI0wgNqaRhhAo3ZqK7W10XEjvArH6PXmzFWz7Iiwem36MrMLF7xGMg81mkxGatpeqbBkEl6FfeNgmPAqSqBJ0/aWosdFox89PS4IA3IIA0ZOsDoaBtConTCA2kptpbZmVFvRZ6L7eTMxdQk7IrxWBVhTK15wpzHFn8Sf1Lt6dNBtaJH1Gweth03njYNcuuJc8USPC18TrICDaJoJZxIGSDRqF43as6qtAY5D1mEAtZXaKv4jVtDaij52qBh/Hbshjl7bvtB/v+28f5J0SZMffhrhlcua4zK8itS0fegaWvrGQcKrFqKZcO1toplwhDCARu1phAE0aqe2UluprRFrK/8RSzRqxz7eZZZddTu7IY5eO7/W+KslPRx1cprYGwed1MnE3jhYe6ckHF5Zn+cm4VVENBPOc8Aq0ag9hTCg7gQrpTAgwm+aRu3UVmqrxzCgQ7U1xjWuU7WVu64yc4fmFr+L3RBPKwOsq95+zh3WmFeGndinG165KVkteeOg9bA4bxyE8wErPS78TLAafAf6B0UMA+gflEYYQP+g1tRWGrU7CAOordTWiL8fwqt4jH2dWXbpVnZEPL22frHVb3vhZ430iTATe+twaZdN2xWsabu1HvaVj6btFf5Qa8IrLmER0eOi0Q+dHheEATmEAe4utiJoJQwgDKC2UluprXFqK0rs0i+biTWfZUfE1Wvzl1u0c9sfGOnmoUXA9cS+o28c9HMRH/SPw7xxsNr6UgyvPBxCeJpg0ePC34CVRu1+JlgphQESQato1O4kDAhVWwMch6zDAGortZXaGra2ooTN0tjvsRvia3WAdel7XrF1rle8TNL0sCKQ7BsHMwmvOvvGQUcxR7PBS/mLHZcyxTiqngasNBP2PoimmXCfRWnU7i8MoJkwtZXaSm2NWFv5j1iiUTuGMvozs/SqO9gR8fXa/gUn/3r5Oln7l34m9R7DqwbbZEP8md2rDB5etadpex7hVUGV9DZgDTWZ8RkGONwmmgnP/w40Ey4xwUopDIjwm6ZRO7WV2ppYGEDQ6r62ErT6+c4oz1yr9Uf9A/shDb0ufMmrFq5/t6RL3PYDctm03VUNchleRXrjoOt1JfzGQX/XG+68Co8eF42Wp8fF/N8v/YMyDAPoHxTsOFBbG4QBHa+tMetYlNpadUxL0EqjduxjVqZ4tVm+co5dkYZOBFhasaIo5na+zMpsdPP7TveNg6Em417Cq66+cdDp8fN0hyEcT7BSCgMiDqLpcUEYQNCadxhA0JphGEDQSm2ltna3tqIyo782E2u+yY5IR68rX3Ty/Jc9JKtzJW1zFj0kFl6l98ZBV2Mw3jhY6aLXeAtd7/O2oseFvwlWwEE0zYSHTLBSCgMkglbRqN1JGBCqtgY4DlmHAdRWaiu1NWxtRWVG67R9xzvZEWnpdenLrn7Hi66X7Ctd3jdTf2mXTdtTDK/yeeNgO8Irl5e0PT5NC6yIA1Z6XHgfRNNMuM+iNGr3FwbQTJjaSm2ltkasrfxHLNGoHRVs06xeZk5ZN8OuSEuva1/4qncs/7SV/j5uQpDvGwf9DEAH/WP/4VXIXROyabuTreTa6GDAGmoy4zMMcLhN9LiY/x1o1F5igpVSGBDhN03/IGprTmEAjdoj1FaC1jRqK3ddtYrRG82yqZvZEenpdfFLP7TQvk7SpM+JfaU24ZmEV+HfOFgzX2h2NLxcOPJ44yDhlfsBKz0u/EywGnwH+gdFDAPoH1S5DtM/iNpaKwyQCFoj1bEotbXqIJT/iEWjdozY15drydTfsx/S1MkAa/2K5dML7dg5km71MbF3GZcM+ys2xJ/ZvcpAbxy0TdaV6BsH8wiv4H6CRRgw/E8TBhAGJBYGOJ9gNfgOBK0RwwCCVmortZXamnNtRUMPaG7u/xjDTk9Vr6tf/PJ3nvvAXG/uuZLur3SRdlzCnL9x0MMGhHzjYO2dkmh45T1U8dG0nXLdYIJFM+E8B6yBtolmwiVWSTNhGrW7CAOordRWaiu1lUbtqDHwN/Z3zLJrfsCuSFevy19+zdt+faMxvRdK2uliUp/EGwcdXwhChle1v5n1sHhX3zjIdTLwgJUeF94H0TQT7rMojdr9hQE0E6a2UluprRFrK43aRaN21GfebSbWfIH9kLZe13fAVW9/4VWS/b2mk/okwqtobxx0dY3z30ie8KrZed4N9LjIc8Da53ymUXuEMKDuBCulMCDCb5r+QdTWnMIAGrVHqK0ErWnUVu66arFrZB76C3ZD+nrsAmn1O5Z/whq9zW1UMuTf+nghXrTwKp83DrYjvHKJ8MrNgJUeF34mWA2+A/2DIoYB9A+qXHvpH0RtrRUGSAStkepYlNpadeDJf8SiUTsqeEhjc79uJtZPsyvSR4C1y+Tbz/sLWf2d24l9vm8c9DMgHfSP/YdXIXcNbxzMFY3aG/2QadROGJBDGOB8gtXgOxC0RgwDCFqprdRWamvOtRUOFerp5eaEq7/LrsgDAdYeVr/zRa+TKf6pSq3K642D5RZ23vfKethD1vfRaPMbBwmvmk2waCac54A10DbRTLjEKmkmTKN2F2EAtZXaSm2lttKoHU2ZPzNLpr7MfsgHAdbeJ7A94hbzSiv9Z0pvHLRO1zfir1lvX2TAGtrzxsE8wqtqitb/5ulxUXub6HERIQygmXAaYQDNhKmt1FZqK7WV2hqjtsLx3P+zmph8F/shLwRY+1i5cvnc3Ha9XNKq+iXNbdN2JzU1sTcO1t4piYZX3kMWmra736f0uMhwwNrnHM6umbDnbUqpUXvSYUCE3zT9g9IMAxrX1paGATRqj1BbCVrTqK3cddUR39CO7b9pDAcjNwRYfax97/Lt04umX2Csrq5ecgK9cdDxhSGLNw5aD4vzxsEOXlrpcdFoeXpcNByw0j8oWEBB/6D5yxO0eqitPsMAiaA1Uh2LUlurDjb5j1g0akdN98iOvcCcsm4buyI/BFgDXLPi5Zv2m91xlpWuLF9yeONguWue/0byhFcjLvidvLRa0ai94Y+XRu2JhwEErX4mWA2+A43aI4YBBK3UVmortTXn2gpPtqmnc8zSq+5gV+SJAGuIS9/ziq3bF+3/fElXjC5rvHGw3BgtxTcOphheyc+x63R4VWV8QTPhPAesgbaJZsIlVkkzYRq1uwgDqK3UVmortZVG7XDEaE693svMkqmr2Rn5IsAaYd2Ks7dtW7T/2Vb6WqWilEl4xRsHHW1WS944SHgVYuBDj4tay9NMuM+iNBP2FwbQTJjaSm2ltlJbqa0xaiu8TQgK8yqzZPXn2RV5I8AqYd2Ks7fN7dALJH3V75Q/8zcOjrzu8cbBOgM5R/eHOb+E53CdosdFjgNWiUbtKYQBJSdYSYcBEX7T9A9KMwxoXFtp1J5vGEDQ6r62ErR2dWSdNaM3m6WTH2dH5I8Aq6S1712+/aFF+lVJn/ZTr1yGV5HeODh0DS1942Cy4VXXr6H0uGi0PD0uGg5Y6R8ULKCgf9D85QlaPdRWn2GARNAaqY5Fqa1Vx6n8RywatcOBD5qJqXeyG9qBAKuC9SuWT0++87yXy9i3DixODd446Kb+RQqvrOMinssbB12HLjRtb74PadTebMBKo/bEwwCCVj8TrAbfgUbtEcMAglZqK7WV2ppzbYV3xn5cE1N/xI5oDwKsGr+CyXe8eIVk/0hS0TwFcPlePpdvHHQ1XnMZXvHGwVqD1dpnTW4XYBq1+5tgpTRgDbRNNBMusUqaCdOo3UUYQG2ltlJbqa00aoePqYH5Jy1Z80pj9pmzI2sEWDVNvvPF75c1L5K0vWnNCtW03Vp36yo3XvP/FsTWhFfOLn9dvvPK94CVHhfeB9E0E+6zKM2E/YUBNBOmtlJbqa3UVmprjNqKAD6hEyd/l/CqfQiwGpg8f/nnrIrnyOreupPukG8c9DNYHfSPrcM/7yodTDG8cnkIXYZXuVyI6XGR54C1z/lKo/YIYUDJCVbSYUCE3zT9g9IMAxrXVhq15xsGELS6r60EreHnYHDH/Ls2HEV41VIEWA1NvfMlq+fGzFNkdG3VAhkyvAr/xsGaWUSFNYa6ZGT3xsFOhVdVB6z0uPAzwWrwHWjUPmBR+geVO1fpHxTsOEQLA0LVVp9hgETQGqmORamtVQeW/EcsGrXD4fzgQ5qYfJlZvnKOfdFOBFgOrH378h+OL9r281b2E2ULnrs3Dpb4a8HDq/a8cTC78Krx0jlcjGnU3viHSqP2xMMAglY/E6wG34FG7RHDAIJWaiu1ldqac21FwDnCBebENa/hzqt2I8ByZNWK39oxdf6v/5ZkXi1pZljRcxdeRXrjoOt1JRpeedtFe14sXa/eJvUlfVyYKo6RaCac54A10DbRTLjEKmkmTKN2F2EAtZXaSm2lttKoHZ4Yzcnq982Ja97Ezmg/AizHJs9ffqGk50m622/RixReBXvjYIPFffS9cnr8MnnjYHLX6KLibqHHRXID1lIfp5lwOmEA/YPSCAPoH0RtpbZSW6mt+dVWBDKtQi81S6f+kV3RDQRYHkye/+LLjDEnGenL+xbW9N446Op6yBsH6wzukg2vckWPi4QGrH3OURq1RwgDSk6wCAMIA3IIAxrXVhq15xsGELRSW3OprQjoflnzHLN06iJ2RXcQYHmy+p3L71t9/vLny5o/ljTtbqzjMrzK542D7QivXF4OXTZtb8m1mh4XnidYDb4DjdoHLEr/oPhhgNTNZsI0ancfBkg0ao9Ux6LU1qqDSWorjdrh2LfUs6eYpZOr2BXdQoDllbGTFyx/ny2K06z0neZ1MVKvqsjhVchdE7Jpu5Ot9PHGwazDK8KA4X+aZsLphAEErX4mWA2+A43aI4YBNGqntlJbqa0511YEtlI7dpxqlqz5HruiewiwAph610u+Prvf7Mky+rBqv6yv3MLh3zjYLH8ps0br5g9U+1QObxwkvKJRe9YD1kDbRDPhEqukmTCN2l2EAdRWaiu1ldraxaAVwRjNydo/18TUi80p67axQ7qJACuQa1a8fNPUO3/994ztPUvSLT5qY/jwqj1vHMwjvHI55GhJeEWPi/QGrKU+Tv+gdMIA+gelEQbQP4jaSm2ltlJb3ddWcddVe9yjwj7PLF3zdmM4UF1GgBXY5AXLJ4udvZ+z1lwgac5VwfbyxkHX60o0vPKeskRq2l7pQOR0GaDHRUID1j7nJc2EI4QBJSdYhAGEATmEAY1rK43aqa0Bf9PUVtGoHQH8l8ZmJszSNZeyK0CAFcHa9y7fvuZdL35TIfssSRuaFlQv4ZXrvlfWw+K8cbDG/sv8Ak2PiwqroVF7/DAg4mTGWRjg8DsQtM7/DjRq91BbfYYBEo3au1Rbqw4gqa00aodjO2TNH2ti6hxzwrUPsDsgEWBFtfaCl6xZsP//WmaMXi3ZB+oUVOuj5vpo2l7hDxFejRgcuL4MZ3XdJgwoN2ClmXAaYQBBq58JVoPvQKP2iGEAtZXaSm2ltuZcWxHYdSqKp5qlk+/jkUHsiQArslUrzpydPP/XLyymx37WGPN+/eixQpfhVT5vHGxHeOUSTdt/rIgzmYk2YK07wUppwBpom2gmXGKVNBOmUbuLMIDaSm2ltlJbadQOj4y2S+ZN2nDUM8xJa7/NDsG+xtkFaVj73uUPSvqjZ7zp3z7Rs3q/pNOdByCNxnP+w6uQ1xveONjma7fvxwQiD1id/TBCPNbi+8ed+yNYnsKAGMchuTCg6sdzfwQr1TCA2kptpbZSW3OvrQg4hL9KY+aV5oTJW9gZGIQ7sBKz9vyXfGPqgpc805jesyV9Y+DvO/gbB11dd112Z2rzGwcJrxyedA4nWPS4oJmwyzCARu1phAE0as+vttKondoa8DdNbRWN2uHZ3TL2t3Ti1BmEVxiFACtRk+e/+LKp/W8+xRizXNJeP+RQbxy0TdaV6BsH8wivXA5BuhJe0ag9yCCaZsIDFqV/UPwwQKJRewphQKja6jMMkGjU3qXaWnXgSG2lUTucMdou2Qu0aPY4M7HmE/S6QhkEWClbsaKYPP/XV07tf/MJu4KsjSHfOFi74CcaXnkPUCI1ba90IFobXnUxDKCZcBphAM2E/UywGnwHGrVHDAOordRWaiu1NefaioCD95XqzS0xJ655kzn2mk3sEpRFgJWDXUHWjoc2nWCtWS6r65xdCFz3vbIeFueNgzX2X1cu1jQTjj9gDbRNNBMusUqaCdOo3UUYQG2ltlJbo9UxL7WVoBVJuUSyTzMnTi03J1z9XXYHqqKJe0bWXfjqGUkrJa08/Y2fPr2w5o2SfkWScTn3b9S0vcIfIrwaMVhwfVmutXFFor8GmgkH2SaaCTuYXHkKA2Ich+TCgEYXFH9hQIzjEDUMoLZSW6mt1NbcaysCDN0vU694s5lYey07A00QYGVq8oKXTkqafNrrP31Sr2deZ6QXS3Y/N9fLFN84mGJ45baqN5oPjPq31tkBTWtfeZlgRRxERxuwVj8HCQMIAwgDCAP81lbCAGortZXaSniVOSvZL8mat5qlU19nd8AFHiHM3DXveen1a9/1kv+z04wdIdlXS/Z/ml0zw4RXURqc88bBytuU3v1XNGr3s49o1D56UZoJ+wkDaCacRhhAo/Y0wgBqK7WV2hqutsIbYx6R7IUyvRPNiWvOJryCS9yB1RLrLlj+iKQLJV142hs/PWGt+Q3JvlLSYY2umbWvF7xx0MfFNuQbB/MeBnDXVa0Ba8yJ957LZx8GOD6XUrkzIOr56vvOgFTDgKqLphgGUFuprdRWamtKtRX+ht/2f9TrfVizB/yrWXbpVnYIfCDAaqGpC166XtKbTl5x8V/tt33z863VeZJ9nmQOGF722/PGwTzCK5fXX5fhlW13eEWPC/FYSyoTLB5ryTMMCHG+0j+I2kptDVdbCVq7E7TCg/tlzEoZ+0mzZM3V7A74RoDVYutWnL1N0kWSLnrGay/af2xs9qxC9jwZc46kgxpfABINr/zK5I2DnQyvCAP8TLAIAwgDCAMIA6it1FZqK7U199oKZ4y2y+qLkvmUzENfNRPrp9kpCIUAqyPWvnf5dkkXS7r45BUXH7Boy6ZnS+aXrMwvyRRP8j2e4I2DQ7bSdXjVYJu6E14xYCUMIAwgDCAMoLZSW6mt1Nb211Y4YXSfpK9K5r/0yNwXzalrt7NTEAMBVgftujPrC7v+R6e/6V+PKQqdZa3OkvRsSYe6DBEIr4ZsZeOm7a6u6y0Or5IfsKY4waJ/UJ5hQIoTLB5ryTMMoLZSW6mt1FYeGey4QkbfkLWXyfS+qCWTa4xJ8P1O6BwCLGjy/Jfdpl0N4M8776KxO4+ZPb4o7MmSTpN0uqQTJJnh1w5X3cJTDK9cSveNg/lhwMqAlTDAy/I0EyYMoLZSW6mt1Nasaytq2Cnp6zJaK9Ob0tjYpDlu1f3sFqSGAAt7Wbly+Zyk9bv+55OS9Mz/d9FPzMzMPl3GPtVIJ+rR/zlGUm/URSXU5Sa7Nw4mFl7Z2Acw+wFrihMsHmtJY4LFYy15hgEhzlf6B1Fbqa3haitBK3ddYQ8zkm6VtF7GXKNibq32O3SdOfaSnewapI4ACyOtfufy+7Srf9buf/aM1160vx3feULPmiWF7IlG5ngrPdFIT5D0mHrXyTa/cdA6XNpl0/bcwivCAD8TLMIAwgDCAMIAaiu1ldpKbc29tmIvxjwi6fuS/Y5kNqiw35YtNmhs0800XkeuCLBQy66m8P+z63/2ctobPnbQtNn/CWZu7ok9ax6vnn7KWv1ET3qsZA6zKh4jmcNkdZh+9DZEBxcp59c5l32vXG1noDcOJjlmKLTnk6yjt5sBK2EAYQBhAGGA+/OV2kptpbZSW5Xg+doZWyQ9JOnBH/1vo4dU6F4Z8wNZfV9jxXe1YO775thrNrG70DYEWHBu6l2/s1k/fgxxqJNf9eEF+x924IGS0c7p3oGyxQJJWjCug+cKjVX6w0Z69I5Yh0zf/299M5X/bOl/U31TRq/LmN59WZx0NBMW/YPKLspjLfHDgH0+k0YY8Pvq9a7TTJUa6/h64+PC5Xz5mUS/WuDvbBI4zDMtPs5Ox0CRvrdJ6DdtIh/rmeg7MMMZurGatQ9LkhbMFpoZf0SSNPbQVu6cQtcRYCGqdRe+ekaP/tcD7fG/gZrzVMIAmgkPWpRmwmmcr4kGrYVuNUd/eh0FFQAAIF0EWADyRI8L8VhL2UV5rMX9udpwm7Jt1A4AAIBYCLAA5IcwQPQPKrMozYT9nK9dDFoBAAAQGwEWgLzQTLgFYQB3XQXdJoLWhucrAAAAUkCABSAPRephQIRtolH7gEVp1D56NfRmAwAAQF4IsABkhjCARu2DFqVRexrnaxuCVgAAAKSGAAtARnhkkEcGBy3KI4Puz9WG20SjdgAAADhEgAWgpegflEYYQKN2b8fB6/lKo3YAAACkhQALQMsQBqQRBnDXVdBtImhteL4CAAAgdQRYAFqERu3etolG7SMWoTdb3r3ZDOUTAAAgcQRYAFqCMCCdMMDT8jRqT+h87WLQCgAAgJgIsABkjkcG8w0DeGQw/rnacJuybdROeAUAAJAbAiwAGaN/UJ5hAI3a0zhfCVoBAACQDwIsABkiDMg3DOCuq/jnaojzlbuuAAAA4BYBFoDM0Kjd2zbRqH3EIjRq705vNgAAAKSGAAtARggD8gwDaNTeaHkate+9PMEVAABAJxFgAchEoWqvuueRwTTCAB4ZjH+uNtwmGrUDAAAgAQRYAFqG/kFphAE0ak/jfCVoBQAAQDsQYAFoEcKANMIA7rqKf66GOF/bFLQaAQAAIG0EWABagEbtaYUBVRalUfvo1dCbLfr5CgAAgOgIsABkjjAguzCARu0Jna8ErQAAAMgDARaAjPHIYPwwoOJneGQwkXN1n88QtAIAACBxBFgAMkT/oNKfoVH7iH9No3aCVgAAAOSAAAtAZggDsgsDuOvK07ka4nztWNAKAACAZBFgAciIrTg3pX9Q1DCARu0VVsMjg9HPVwAAACSNAAtAvggD0g0DaNSe0PlK0Or86wIAACA4AiwAeeKRwYBhQJ1AgEcG45+r+3yGoHXIuTpLTQUAAEgcARaAvNA/aP5naNQ+4l/TqJ2g1eX5CgAAgBgIsADkgzCgZWEAd12lcb4StAIAACB9BFgAMkf/oPhhQITjMHIRGrXzyOCgRQmvAAAAckSABSBThAF5hgE0ag+yTQStAxYlvAIAAMgVARaADPHIoPv11wkEuOtq9GoIWqP/prnrCgAAoBUIsABkhP5B+YYBNGqPf64G2iYatQMAAMADAiwAmSgkGcKA7MIAGrWncb4StAIAACBvBFgAWoj+Qe7DAM9/o+zyPDIoHhkss2jF9VvzFLvxhUZZm+3/j+da8B3YpobmWvA1Mz0OtnjATFz1DcZlAOAGARaAFiEMSCIMoFF7mG0iaB2waI2/YfSu8nd4phq0mtL/ON2gNcBdtpXP114LaqsZvUoTubbaBM4NL7XVfkXScxmfAYAbBFgAWoJHBp0vT6P2kqvhrqvo5ytBa0LnK0FruUWprd2orQAAlwiwALQA/YPihwEetolG7aI3m6/zld5s3rcpiXOV2kptzam2AgBGIcACkDHCAMKAjoQBpT5OGEAYQBhAbaW25llbAQBlEGAByBSPtbifXKU4weKxFh4ZjBUGlPhM8mFAhG2itra0thK0+ttPAICyCLAAZIYwgDAgwD6ifxBhgNcwwOE2EbRSWwlaM62tAICqCLAAZIQwwPnyNGonDCAMyDMMiHq+UlvLLUptpbYCAFwiwALQUvQPch8GeNgm+geJ/kG+zlf6B3nfJhq1U1uprQy3ACAgAiwALUMYQBiQaRhQ6uOEAYQBhAHUVmprnrUVANAUARaAFuGxlnKL8lhL/DBgn89kGQaEOF95ZLDcanJ/ZJCgNY3aStDqbz8BAFwgwALQEvQPIgyouDz9gxIOAyKfG07CAIfbRNBKbSVozbe2AgCcIcACkDnCgDQmWIQBhAGEAV6WJ2hNs7YStFJbnddWAMAoBFgAMsZjLe7DAA/bRP8g0T/I1/lK/yDv20SjdmortdXzuQoAKIsAC0CGCAMIAzINA0p9nDCAMIAwgNpKbe1GbQUAVEGABSAzPNZSblEea4kfBuzzGRq1RwoDSnyG/kEiaPVxrqZYWwla06mtAICqCLAAZIT+QYQBhAHhJlgErWmcr/QPorZSW9tVWwEAdRFgAchEIckQBhAGEAYQBrQrDIh6vhK0UluprWFrKwCgCQIsAHnhsRYHYYCHbaJ/kOgf5Ot8pX+Q922iUTu1ldrq+VwFALhAgAUgDwVhAGFAJmFAqY8TBhAGEAZQW6mt3aitAABXCLAAtACPtaQxweKxFhq1xwoDSnyG/kEiaPVxrqZYWwla8xwHAABGIcACkDn6BxEGtDUMSHGCRdCaZxiwz2fozUZtpbYmVlsBAGUQYAHIFGEAYQBhAGEAjdoJA6it1NbcaysAoCwCLAAZ4rGWKNtE/yDRP8jX+Ur/IO/bRKN2aiu1NcHaCgCoggALQGYIAwgDEggDSn2cMIAwgDCA2kptpbYCAFwhwAKQkdwnWDzWkmcYsM9naNQeKQwo8RnCABG0+jhXU6ytBK15jgMAAE0QYAFoIfoHdSMMSHGCRf+gPMOAEOcr/YOordTWbtdWAEBTBFgAWoYwgDCAMIAwINI+olE7tZXaSm0FAHhDgAWgJXisJc8wIMUJFv2D/Jyv9A/yvk00aqe2UlsTrK0AAFcIsAC0AGEAYUCsCRZhAGEAYQC1ldpKbQUAhECABSBzPNbifoLVxcdaCAMIAwgD0g4DaNRObc2ptgIAfCDAApAp+gc5+QzNhEX/oLKLErTGDwP2+Qy92ait1NbEaisAwCcCLAAZIgwgDCAMIAyItI9o1E5tpbZSWwEAURBgAcgIj7XkGQakOMHikUE/5yuPDHrfJhq1U1uprQnWVgBACARYADJRSDKEAYQBESZYhAGEAYQB1FZqK7UVABAbARaAFuKxltGL0KidMIAwgDAg99pKo3Zqa8zaCgAIjQALQIvQPyjPMCDFCRb9g/IMA0Kcr/QPorZSW7tdWwEAsRBgAWgJwgDCAMIAwgBHy9OondpKbaW2AgCSQ4AFoAV4rCV+GJDiBItHBv2crzwy6H2baNRObaW2JlhbAQCxEWAByBhhAGGAqwkWYQBhAGEAtZXaSm0FAKSMAAtApnisZfQiNGonDCAMIAzIvbbSqJ3aGrO2AgBSQoAFIDP0D8ozDEhxgkX/oDzDgBDnK/2DqK3U1m7XVgBAigiwAGSEMIAwgDCAMMDR8jRqp7ZSW6mtAICsEGAByAePtUQOA1KcYPHIoJ/zlUcGvW8TjdqprWWWp7YGrq0AgJQRYAFoGcKAToYBpT5OGNCNMCDE+UoYQG2ltrartgIAckCABaBFaCZMGEAYQBhAGBD/fKW2Ultzqq0AgFwQYAFoCfoHxQ8DUpxg0T8ozzAgxPlK/yBqK7W127UVAJAbAiwAmSMMIAwgDCAMUGLnK0ErtZXamnZtBQDkiAALQMboH+R9MpNlGBBom3hkMIHzlUbtaZyv1NZGy1NbA9dWAECuCLAAZIgwoJNhQKmPEwZ0IwwIcb4SBlBbqa3tqq0AgNwRYAHIDM2ECQMIAwgDCAPin6/UVmprTrUVANAGBFgAMkL/oPhhQIoTLPoH5RkGhDhf6R9EbaW2dru2AgDahAALQCYKSYYwgDCAMIAwIJHzlaCV2kptTbu2AgDahgALQMvQPyjPCRaPDPo5X3lk0Ps20aid2lpmeYLWwLUVANBGBFgAWoQwIPswwMsEizAgzzAgxPlK0Eptpba2q7YCANqMAAtAC9BMmDCAMIAwgDAg6u+H2kptjV5bAQBtR4AFIHP0D3I/uUpxgkX/oDzDgBDnK/2D0jhfqa3U1li1FQDQFQRYADJFGEAYQBjQiTAg6vlK0EptpbamXVsBAF1CgAUgQ/QPynOCxSODfs5XHhn0vk0ErZHO1RRrK0FrOrUVANA1BFgAMkMYkH0Y4GWCRf+gPMOAEOcrQSu1ldrartoKAOgqAiwAGbEVFqOZMGEAYQBhAGFA/HOV2kptdXkcAABdRoAFoF14rKXCanisJX4YEPHccBYGhDhf6R+UxvlKbaW2xqqtAAAQYAFoC8IAwgDCgHzDgKjnK0ErtZXamnZtBQDgUQRYAPJH/6CMw4BA28QjgwmcrzRqTyMMIGhttDxBa+DaCgDAjxFgAcgbYUCaYYCXCRb9g/IMA0KcrwStaZyv1FZqq8u/AQDA3giwAOSJZsKEAYQBhAGEAYmcq9RWaqvL4wAAQH8EWADyw2MtFVbDYy3xw4CI54azMCDE+Ur/oDTOV2ortTVWbQUAYDgCLAD5IAwgDCAMyDcMiHq+ErRSW6mtaddWAABGI8ACkIci8mQmWhiQ4gSLRwbLLcojg+7P1YbbRNAa6VxNsbYStKZTWwEAKIcAC0AmCAOSCwO8TLDoH5RnGBDifCVoTeN8pbZ636YkztVQ5ysAAOURYAFoIZoJEwYQBhAGVPk4QSu1ldoatrYCAFAdARaAFqGZcJ5hQIoTLPoH5RkG7PMZHhkcsCiPDEasrdslbZG1m2V0qKTFkhZ1p7YCAFAfARaAliAMIAwgDIgeBkQ9Xwlayy1K0OrxXJ2VtFHSjZJuljW3qFfcKDt2p2anN2npWY8Ys6KY9+krzxjXY2cP0sLeobJjT1BRHCeZn5XsCZKOk3S0ZHv511YAAJohwALQAvQPih8GBNomHhnsUhhQ7zMErZHO1RRra4Cg1Ra3SbpM0mWaNl8zT1718OCFJ/v+U3PmqllJD+36n9sl/fdef+Km0w5SseBpUnGWrDlLsk+RZPKqrQAANEeABSBj9A8Ksk30D3IQBnjYJoJWEbT6Ol+prUMUkq6Ssf+s8bkvmWNX3+f7SmeOn9qs3SGZJHvTaUepGD9H1r5C0tPSrq0AALhDgAUgUzQTJgwgDGhBGBDwfCVopbY2+hvfl8y/aU4fMUuv2Bjz6meOn7pT0ockfcjedNpxmht7iWRfIenotGorAABuEWAByAzNhPMMA2puE/2DHIcBIc5XHhlM43zlkUFHtfVqGft2Hb/qS8akl+KY46dulrTCWv2VbnzWebL2zZKWxq2tAAD4QYAFICOEAYQBhAHRw4Co5ytBa7lFCVobn6tWU+qZC8wJV1ycw9XRGBXSVZ+xVhdp/enPlzF/Lump4WsrAAD+EGABaCn6B7kPAwJtE48Mti8McH3cCFojnasp1lbnQet69Xr/1xx/+ZU5XvkevUts8mJJF9v1z3yBpPfq0bcYElwBALLXYxcAaBeb6ATLVthUqzTvZLFuj0O/z9gIx2HgohGOw8hN9vidR/2NqEFrguFVpV3r+VyyEY5DMrW1yqYO/Q7bZM1bZQ9/Sq7h1b7MxOov6ODZCcm+VVY7/R0HAADC4A4sAC1Co/bKy3PXVcQwoOoiNGqnUbuLc9XDNuV+R6vRf8maPzQTV3yvbVdF8/i12yWtsN9+1mdkig9JOsPtcQAAIBzuwALQEiHuZKm6fJW7rkJtU9UwIPfwqupdVxGOw8hFIt4JZiMch35/wyqB8Mo+elde9o8M5h5eOa2tOyT7x+aEK19glrQvvNqTWXrVjZqY/AVZ/bGkmebHAQCA8AiwAGSu6mMtqYYBAR7P8x4G1PgOyYUBAY9DqVUGOg6Vz9eAAUW2Qauncylo0Nrm2mpulbXPMEtWva8rV0tjZM3SyffJ2F+U0Q/rHwcAAOIgwAKQMfoHuQ8DAm2T1/5BFZcnDCi5qQStQY/D0HOVoLVZbbWf087iqWZi1Te7eOU0E1OrNT7+c5L9CuEVACAnBFgAMkSj9lrLd6ZRe5XNp1F78zDAw++HRu0DFqVRe/Paai4wS1ada5686uEuX0XNcavu14ajni+rDzOmAADkggALQGZ89w9KNQxo8B2y7B+Uahjg+FwiaBVvxCyzaKpBa1a11crY15slV7yJ6+ijzPKVc2bp1O9Jhn0CAMgCARaAjNCoPX4YUHObaNQ+YhEatdOofdCiNGp3UFvnZPW75oRVf8N1dD5z4uQFMvYPJRXsDQBAygiwAGSiaEEYQP+gNMIA+geVO199HzcatY9elN5sDmrrrKzONRNXfpzr6GBmYs0HJL1aNMUCACSMAAtA3ggD0g4DaNSebhhAo/a9lydobWNttbJ6tZm48r+4WI5mTpz6qIzezJ4AAKSKAAtAvrJvJuxhm6KHARKN2lMIAyQatVc4V2nU3tLaav8fd15VYyam3inp79gTAIAUEWAByBON2kWjdl9hAI3a/WxTlY/TqD3IcRi5yVnX1g+ZJasu4GJZw8TUn0hayY4AAKSGAAtAXmjULhq1l12URu0OwwA334FG7QMWpVG729pqL9EJP/9/uWDWY4wKLTr4N2S0jr0BAEgJARaAfNCoXfQPKhsG0D+o3Pnq+7jRqH30ovRmc1xb75HVbxuzgjfqNWCOvWSnCvtiSZvYGwCAVBBgAchDQRhAo/Yym08YMPpPE7QGPQ5Dz1WCVse1tZDVy8zEqru5aDZnlq7ZKKtXsicAAKkgwAKQGRq106i93+bTqN1DGCAatXs6X2nU7qe2GvtXZuLKy7lOumOWTl0ko4+xJwAAKSDAApARGrXTqN1VGECjdj/bVOXjNGoPchxGbnJrXoJxjY7/ibdxnfRg+44/lHQbOwIAEBsBFoAWolG7t22iUfuIRWjUTqP2QYvSqN1fbbWFbO8PjVk5x/XPPXPKum0yei17AgAQGwEWgJahUbv7baJ/ULlV0puNRu2DFqU3m+fa+o9m4opruf75Yyam/kuyX2RPAABiIsAC0BKEAV7DABq1pxsG0Kh97+UJWkessnVB6wMy43/JNTDIZfaPJe1gRwAAYiHAAtCKUXVaYYCDbaJRe5/Np1F7gDCg+negUfuARWnUHqi2vtGccPkDXAf9M0vXbJT0bvYEACAWAiwAGaNRu78wgEbtaYQBNGovd75GOA4DF6VRe8Daervu0T9zLQxox46/kfQwOwIAEAMBFoBM0ajd2zbRqH3EIjRqJ2gdtCiN2kd/Nafh2LvMmatmuR6GY05Z94hkP8yeAADEQIAFIEM0ane/TfQPKrfKSHeCRQ9a29Co3dNxo1F7xdrq7Dvfo4N3cvdVlEvw3HtltJ0dAQAIjQALQE6jZtGo3WMYQKP2DMMAgtZgx2HouUrQGr622r8xj19LiBKBWXrNPbL6OHsCABAaARaATBTuwgAate/9GRq1Rw4DJBq1VzhXadQ+YpWtbNS+r63qzf4j18WYl2TztzUOLAAAjRBgAWghGrWXCwNo1J5GGECj9nLna4TjMHBRGrVHrq2fM8dPbeZaF485afI2SVPsCQBASARYAFqERu15hgERjsPIRWjUTtA6aFEatY/+ap6Pg+l9iutdEpfcf2UnAABCIsACkEu1qjqjKxEG0D/Iz0S3ahhA/6DRq6FRu/fvXGpRerOVq60+fz+6S8c/9nIuiilcl4uLJO1kRzj9wQEAhk4JASCPIeBM5ckPYcD8MCCFRu2EARXPVYLWYMdh4KIErcnUVqtPG7NyjotifGZi7YMy+jJ7Ytgpawn4AMAhAiwAudhRKQxIoX9QEmGAWhAGeNgmGrWLRu1VzteAx6HUKjvRqL3/8j37H1wOk8LxGDrTMtPsBABwZ5xdACAPZnrvCU+KYUDVj+f+CFaqYUDVRXJ/BCvE+ep7H4U4X32fqx62yUY6DunW1s3auuXrXA9TujT3rpAt2A+DT98d7AQAcIc7sABkMkjefRs+jdrTCQNo1J5GGECjdqfbxBsxS25qlDdirjanrJvhgpjQpXnJ6rtkdDN7YuAe4hFCAHCIAAtAHgqzk/5BFZanf9CIVdKonaB10KIEreVqq8L9pn/0cXMlF8MkcVwGn8cEWADgEAEWgLwHgYQB88MAGrVnGAYQtAY7DgMXJWhNvrb2CLCSVBBgDT6dCbAAwCV6YAHIZYS8XTIeJlcNJ2RJ9LqS6B9U5l93vn8Qvdmcna/0ZotQW7fr+MO/ybUwQXPFlMb5b+J99XiEEACcllV2AYA8qlXvfj9hQIO7FZIJA+gflEYYkHz/oPDHoe/5GuE4DFw01TdiRroTLO3aeosxK+e4GKbH/NzaH0razJ7oo9BD7AQAcDglZBcAyGMQWNxHo/bUw4AIx2HkIoQBNGoftChB6+hNTSpovYULYcKsvZWd0IfRfewEAHCHAAtAHsbNvcEmlcMmWPQPGhIGtKF/kM8wINQ2Vfk4QWu03w+N2qvVVmt5013KTI+Asf9MiwALAJyWVQDIwU8d85Ck2fBhAI3a0wgDaNTuNAzwdRz6LU/QOmKVNGovda72DAFJyqwIGPspLAEWADhEgAUgC8asKCQ96G1SmXwYoBaEAR62KXgYoBaEAYG2yWvQWvd8DXgcSq0yYtCawiODVWqr0Xe4Eqas4Pj0Mzd+PzsBANwhwAKQk/to1J5zGED/IO/nEo3a+yxKo/Zym5p4bTWzD3IJTBrNyvva7172AQC4Q4AFIB/W3pl3GFBzm+gfNGKRLvYPolF7uUUJWkdvaiZB684FW7kIJmyMtxDOY7TdLLuU8xYAHCLAApBTxdoYZGJM/6AhYQD9g0avhkbtfr4zQWvt5XNp1D5smw4cJyBJmbUcn/mn8g/ZCQDg1ji7AEBGA+SNkkkgDFCzv5FEGFB10RTDAMXZpmjBVZ8wIOa5sefyyQWtAY9DqX8d8feTVdA65F8e85gtXAQTZhZskZ1jP+yNvmAA4BgBFoCM9DaOeM965mHArs9kHQZ42CYb6ThkHQYE2iYb6Tg4O199B60Rt8lGOg5+aut2Y1aSjqTM9jZLHKJ9EGABgGMEWADyMTb3Hc31CAMIA7obBpT6OEFrlG0iaPVZW+vsHIRUbLcyTCv2sZFdAABu0QMLQD7GFm+sOUNqGAbQPyh4GDBvEd7aRqP2QYvSqH30pmb/RswDrGXMmvaMoncQO2HfU9xwBxYAuL7csAsA5MIcdeE2SXc6mZDRqH1IGNCGRu0+w4BQ2+QtDKi/TQStIxahUbun2mr0nacdyFUwaQRY88xyBxYAOEaABSAvRjc0npClFAZ4u5Ml1TCgyp0sqYYBAQM+gtYBi/JGzPLna8DftM/aOjdOgJX0tdkQYO2t0H6PuY3dAABuEWAByIu16/IOA9SCMMDDNgUPA9SCMCDQNnkNWuuerwGPQ6lVRgxaU3hkMExtJSBJmiFg3Pv83WiOvWQn+wEA3KLbIoDcBsnryk2EaNSeThhQdREatdOo3cW56mGbaNQer7YWegzXv4RZcyi99vccqpj/YScAgHvcgQUgL8VciTuwfPcPSvWuqyqPDCZw19W8RWjUTqP2QYvSqH30pmbfqH348nbsGC6AKbNPYh/sOVbR19kJAOAeARaArJhjPv09SfeVmmClEgZkfycLjdrzDANqbhON2kcsQqP2SLX1Z7kCJqzg+Ow9WNE6dgIAuEeABSDHgeE3Rk7IaNQeMQygUXsaYQCN2htvE43a06mt1h7HxS/p6zIB1p4ndGG+yW4AAPcIsABkODQ016UdBkg0ak8hDJBo1F7hXKVR+4hV0qg9am01IsBKmTEEWD92uzlp8iF2AwC4R4AFIMOBcnFl2mEA/YPSCAPoH1TufI1wHAYummrQSm+2BGrrsdbKcAFMj11/xhGy9hD2xI/w+CAAeEKABSA/xYIpye4gDMggDBBhAI3ayy5K0Dp6UzsdtB6obz/rRC6ACTJzT2cn7Lk/7Gp2AgD4QYAFIL+x4dGf2CHp6qTCABq1l1gljdpp1D5oURq1j15NJxq1D6+tpjiTK2CCrOW47GXscvYBAPhBgAUgT0ZX0qg9ZhhAo/Y0wgAatTfeJhq1K6OXYBCUpInj8mP3aMnqG9kNAOAHARaAPM0WV8QNAyQatacQBkg0aq8dBoQ5DkPP14DHodQqadSedNBqdIa96LwxLoDpsDc+9bGydoI98aPT9zJjKv9IAAAlEWAByNNDB10jaXO8MID+QWmEAfQPKne+RjgOAxelUXu5Te1ko/ZRX+NQnXj3Mi6ACSnGz2Q+sSdzBfsAAPzhggMgzyHiKRfOSLqEMIBG7cmGATRq77MoQevoTSVoHarQOVwBE1IYjseexmcJsADAIwIsABmznws+CaVR+4hV0qidRu2DFqVR++jV0Kh9JGNfbq0M178ErsDrzzhQhkBxD7eYE67+LrsBAPwhwAKQr20zX5TsDhq1e5xUZh8G0Kg92HEYuCiN2sufrwF/07m+BMPao7X+madyAUxAMftrkhazI37kP9kFAOAXARaAbJmJlVtkdJn3iTGN2iOHARKN2j2FATRqD3fcnD0ySNAqU7ycK2AKF2G9jJ2w1zlKgAUAnhFgAch8vFh2wEj/oHzDAPoHlTtfIxyHgYvSqL3cphK01joOVsvtrc9dxAUw4qV3/RlHSPYX2RM/cocm1nyd3QAAfhFgAcjbggX/JaNZwoAAk1AatYtG7WUWJWgdvakErQ2/82Hauek3uABGZKdfI2mcHbGLMZ8zpvIPAgBQEQEWgLzHjI/75AOy+76NsOEklEbtI1ZJo3YatQ9alEbto1dDo3ZHf+NN9qLzxrgKhmdvOu0gybyGPbHXXvks+wAA/CPAAtAGH3MWBtCoPcMwgP5BwY7DwEVp1F7+fA34m861UXu5hX9GJ9z5Qi5/Eczo9yQ9hh3xI/do/VFr2A0A4B8BFoD8fffOL0nm7kYTMhq1Rw4DJPoHRQ0DGp6vAY9DqVXSqL0TQavRn1krw0UwHHvrcxfJ6I/ZE3vuFPsvZvnKOXYEAPhHgAUge+bMVbMy+hT9g3IOA+gfVO58jXAcBi5Ko/Zym0rQ6uc4SJKWaf3pz+cqGND0pldKOoodsedsauzj7AQACFRy2QUAWqEwH1PVtIgwYMQiNGqnUfugRQlaR28qQauf7zzv839rbz9jPy6C/tn1zzhMVm9hT+zJrDETqzewHwAgDAIsAO0YQh7zLzdLWlt6Qkaj9hGrpFE7jdoHLUqj9tGroVG7n7/R15O0ZfpPuAoGUPTeIelwdsSep7Dl7isACIgAC0CbRpLvLxUG0Kg9wzCA/kHBjsPARWnUXv58Dfibbnej9pKjWfNme+PTn8g10OPVdcMzn6Kefpc9sZctWqCL2A0AEA4BFoD2+O7d/yHpe0MnWNmGAR62iUbtolF7lfM14HEYucrIQSuN2vdePvxdV/uucn/Njf0NF0E/rFVPRfEhWY2xN/Zg9Blz/NRmdgQAhEOABaA9Y8kzV81K9n3zwwD6B43eZPoH0ai936IEreU2laDVz3Go5Fz77VNfzpXQgw2nv0HS09gR887pD7IPACDwfI9dAKBVw8mbfvsgLdr+fUmH5t/rytM2Be11lWoYUPXjufe6CnG++j5XI26TjXQcap2vgX7Tse+66m+L5nSKWTZ1M1dDR9fUG07935KZlLSQvbGXS82JU89hNwBAWNyBBaBVzPEf3yxjP0qj9jKrpFE7jdoHLUqj9tGroVG7n7/RyIEa17/aW5+7iKthc/YbZxwqYz4jwqt+p/V72AkAEB4BFoD2mdX7ZTXtZ1JJo3Z/YQD9g4Idh4GL0qi9/Pka8DdNo/Yqm3mydm46nwuhAwtmPyKro9kR81yvE6cuYzcAQHgEWABaxzzp3++Q7EfzCwM8bBP9g0Sj9irna8DjMHKVNGqnUXttf2TXn/pbXA3rszec/ueSfRF7ot/Ose82Jv5JDgBdRIAFoJ3Gzdslbc8rDKBRu59tqvJxGrUHOQ4jN5mglUbtjRhZ82G7/vRf5mJYnb3htN+U7F+xJ/qeWj/Qzp2fYT8AQBwEWADaOcR8wr/fKdkPdTIMkBreyZJqGNDgO6TSP4g3YpbYZILWbgSt3i2Qtf9hrz/1GVwRKxzF9af+gqQLxYueBgwu7NvMKetm2BEAEAcBFoD2misukLQlyMSYRu0VvhqN2oMdh6GL0qh99Go62qjdZh9e7XaAeubzdv0znsQFscRRvP70k2XN50XT9kG+o+07Ps5uAIB4CLAAtJY5duV9knkfjdpTCgPoHxTsOAxclEbt5c/XgL/pbIPW5FsB/aRsb7W94fRlXBWHHMn1z3iqevarkg5ibwwaVJi3cPcVAMRFgAWg5QPO7e+R7L3phAEeJsaEAepm/yArGrU3WJ5G7fOXb8ddV/0cIdkr7IbTns5Fsc+RXH/ac2V7V0p6LHtjoOu1ZPLf2Q0AEBcBFoBWM0d//mHJvNn5hKzT/YN8hgEOtqkzjdqrbD6N2sttKkGrn+OQhMNU6DIau+9zNG84/SWy+oKkA9gbw3aUebMxKtgRABAXARaA9jv6hI9L+rqTCRmN2j2HATRqd7pNNGovuakErX6+c3IWy9ov2BtOfWXXL4vWytj1p79Jsv8iaQEDhaEmzdLJL7IbACA+3jACoBuD9e+e9wwVvan5dS+1R7BKfCalu658/w2nYYD8b1NSva4inhsDFwl0HCqtJvBvOqW7rrx/76RHwP+i2cW/Z5ZdurVz18Nbn3awdo5/XNILGR2MPE/mpOJ/m4m132BnAEB83IEFoBtj0CeuXCvpU3tPxmjU7icMoH9QsOMwcFEatZc/XwP+pmnUng6rl2ts69fthlNP7NK10G545lO0c/wbIrwqe578A+EVAKSDAAtAhyregjdJeoQwgDDAeRhAo/Yhq6RRO43ak3W8CrPGrj/9Vda2e0xsv37yAnvDqW9QUayRdAwDglLuVWH+kt0AAOngEUIAnWJvW/5KSRemFQZUXSTFu64Udpui97qS0rzrSnHPVxvpOHg9X32fq4G2ieBq1Ih4nQr9nlk69fXWXfeuP/1kjdkPy+pkRgFVzgn722ZizT+xIwAgpcs1AHSItTK6ffklkp6TfBgwbxHCgO6EASnedVV1EYLWbgStrTIrYz6kMfvn5vipzdlf775xxqFaOPtWWfsH4qmLqq7TxNTTefMgAKSFAAtA59jbf/2JssW3JR0YJwwo8RkatYtG7WUXpVH76NXQqN3f926lO2XNu7R57kJz6trt2V3jbn3awdq54A8l+8eSHsvhrGxatve/zdLV17MrACAtBFgAOsnetvw1kj5IGEAYUGn5rB8ZbHHQGvV87WLQ2plR8n0qzIe038zfmmOv2ZT8de2m0w7SrPn/JPsGSYdxAOvuSL3ZLJ16BzsCAFK8NANAF8endkVPt2+4QtLPEwYQBsQNA2yNxQla45+r+3ymM0FrJ0fL90n6iHrmn80Jk7ckdz274fRlkv1NGfPbsvYQDlgj1+m+BaeaM1fNsisAIMVLMgB0lP3Orz9epvimZCv+l2r6BwXZJhq191mURu1+zld6s6H0yHmdCvMpLRz/V3PcqvujXb+uP/0xGtN5svYVkk7jwDixU0Ynm4mp9ewKAEj1MgwAHWY3Ln+hZD8bLQyYtwhhAI3aBy1Ko3b352qI85VG7S21Q9JVkr1cRe9yLZ38hs+G3/bKM8Z1+M6nyvR+Ucb+oqw5VdICDoPLnaw3mKVT72ZHAEC6CLAAMGbdeN6HJP2+l0ll1mFAhG3ikcEBi/LI4OjV0Kjd3/dGCQ9KuvLRO7R0s3q9m6QHv2Mm1k9XPkK3n7Gfts4eJ2uPk9Fxkn2qZH5e0kHsZm9Wa8NRZ5rlK+fYFQCQLgIsAJ1n7zhvf03rGklLCQM6HgZU/hiN2uOfqxG2iUbtKGdWsrdL+r6sNqunzVJvi2yxScZsk7UHSHqMZA7Uo2/FPUhGT5TVT0vqsfuCzYbu00zxZPNza3/IzgCA1Es2AED21vOWqKfrJB3QiTBg6L8iDAh6HAYuzl1X8c/VfT5Do3agdZd/ybzAnDh5MbsCANLHf90BAEnm2JUbZPSbNWeHu5bP6E4WW/M7uN4mL/2DMn9k0FpFD6/mbUKg41BpU0Pso0QfGbQ+jwPQIVbnE14BQD4IsABgF3PMys/K6D1h7mSxFdefYhjQ4DuU+niIMMB6DgNCPDLo+FyKErTaCpuaatAa4DfNXVeAO1ZXa+eOt7AjACAfBFgAsKej9f9kzVedTRKd3MniMwwItU0+w4Ca22QjHIehi6b4yGDubxls+B2yDFrr/A2gc+5RMXueOWXdDLsCAPJBgAUAezBm5ZwWLHiJpFsbT4yzCAMC3gnmLQyo8R2Sa9Qe6Y68gauMdCdY9KC1yiODqQathFfACNPq2eVm2TU/YFcAQF4IsABgH+anP/2QCnOOpM1ZhwEiDOgbBtgIx2HgopHuyBu4SoLW7gStQEdZ87tmyZqr2BEAkB8CLADowxy7coOsOUfSdP0wwOHkvk4YkEL/oCTCACn/u648bBON2kWjdqBzzjdLJz/FbgCAPBFgAcAA5kkrr5DMb6ls+kGj9kTDABq1j95kGrXTqB1oOasva8NRf86OAICM52fsAgAYMea97YVvltXb0goDqq4mxTBA/rcpqbuuIp4bAxcJdBwqrcb3PtrnMynddeX9ewNdvZDb/1Fv4c+biVVb2BkAkC8CLAAoM/a97UXvl7X/lzAgkzCg8sdSvOvK8blE0KpuBq1A522UWXC6mVh1N7sCAPLGI4QAUMbR5rUy+sJec0gatYtG7WUWpVF7uXOVRu3ujwPQeXdqbuzZhFcA0A4EWABQgjEr57S9t1wyX6JRe4phgESj9jK7kUbtNGoHOnPhfkTG/opZdtXt7AwAaElpZxcAQIVp5x3n7a+d9ouS/YWoj4VFDQOqfjy1/kGeHwuzEY5DqUVSvOtKiZ2vgX7T3HUF+J7hbJf0HDMxtZqdAQDtwR1YAFBlTPz4ldu1df9flYqKg2Lfb20LMfn2/da2mttkIxyHoYum2Kg99/Aq1UcGq56rlruuAP92SOZcwisAaOFcjF0AANXZb/3GYi3ecolknplnGKD6n6FR+4BFadRebjU0avdzbgCQtFPWvMgsnfwiuwIA2ocACwBqsrefc6jmepdIerr3iXpWd13lHgbYGoumeNeV4mwTQev85QmvgBB2SMU55sS1X2VXAEA78QghANRkjv78w9q6+CxZfc1rGECj9r0/Q6P2EbuRRu00agc6Z6esOY/wCgBaPv9iFwBAM/b2/7Ofik0XyepsGrV7DgO8rb/iZ2jU7ulcDXG+0qgdaNlsZrsKe45ZuuZSdgYAtL3kAwAas1eeMa7HP+Zjkl7hLwwIMfnmkcFyi+b+yCBBa57nKoB9PCyjX6VhOwB0AwEWADhi7Xlj2jj7D5JemV8YsM9naNQ+YFEatZdbDUGrn3MDwB7uVFH8sjlp7bfZFQDQDQRYAOCY3XjOH8ma9/avsTRqTyMMoFF7o+UJWucvT3gFhHSbTPEcM7H2O+wKAOgOAiwA8MB+59deIekjkhaGCwMaTtaTCAN2fSbru648bJONdBy8nq88Mgig1uxlnWbt88yyNfeyMwCga5cAAIAXduM5vyhr/kPSIYQBqYQBNGqvvTyN2iOcrwD2nrmYL2nMvsQcP7WZnQEA3dNjFwCAp3H2z3z+ctnZ0yT7vb5z2aweGcw9vKrwHX60aIqPDFo/33nUNtkIx6Hf8lYJhFdWslXO1zrHAUCf39KFunf8HMIrAOjw/IpdAACeh9zfPfdIzRb/IekZ7sMA1f8MjdoHLEqj9nKroTebn3MDwD5mJPsac+Kaj7ArAKDbuAMLADwzT/zPu7RzwRmS/Ujcu66qhFcB77rydidLqnddVQmvAh2HSqsJfCeYt7uuanwHwisgtAdl7C8TXgEAJO7AAoCg7K3n/L6k90laUH+SS6N2p8vTqL3CqujN5uc4AOjzU7pBY2PnmiVX3crOAABIBFgAEH5M/p1zT5Od+6ykIwgDfIQBNGqvvTyN2iOcrwD6+LTmFr/KLLt0K7sCALAbARYARGBvPfdx0ty/SzqNMCDCNqVy19W8RbjriruugE6blszrzImTf8+uAADsix5YABCBOfY/f6AfPHKGZN4qqRg+MU6xf1DV5W0LGrV7eGTQRjgOlb4ab8R0v34A/S+M+qEKewbhFQBg8KUCABCV3fiC56nQP0s6PHwYoGZ/I3oYYGssmtojgxHvBOONmPOXJ7wCYrhE073fNE9ZfR+7AgAwCAEWACTA3nru42TmPi2rZzaerNOofcCiNGovtyoeGfRzHAD0sVMyb9HE5LuNGXY3MgAABFgAkAx75RnjetxBfyGZP5M0Thjg6DM0ai+5Ghq1+/sbAPpYL9t7qVm6+np2BQCgDAIsAEiMvfmcp2qs+KSsjiMMaLA8jdorrIq7rvwcBwD9ZyD2U5o98Pd5yyAAoNLlg10AAOmx3/qlxTpgv3dL+r3+tbqL/YNSu+uqxGeSv+sqwjZ1ojcbgAHulLWvMkvXfIldAQCoigALABJmbz37lyTzcUk/1d0wgEbtjZanUfv85QmvgBhWamzm980J1z7ArgAA1EGABQCJs+vPO0wLd75Xsq9IKwzY9RkeGRzxr3lkkEcGgU67S9a8yiyd/CK7AgDQBAEWAGTC3vorz5Hp/aMKPbEbYQCN2msvT6P2COcrgPkzDfspzfX+yJw0+RA7AwDQ+LLCLgCAfNg7zz5AW/SXkl4vaaydYQCN2ht9hruuAp6rAAa4Tca8xkxMfoVdAQBwhQALADJkb33+M2TNRyRNBA0DKn+MRu3B9hGN2ucvT3gFhDYt2Xdpk32HOXXtdnYHAMAlAiwAyJS98oxx/dTBr5GKv5J0cN5hAI3aGy1Po/b5yxNeAYEvSrpKvd7vm4nVG9gZAAAfCLAAIPc5w83P/ynJ/q2MWe5nos4jg6P/NY8M8sgg0Fl3yZo36sTJfzGGHxUAwB8CLABoCXvr88+Q1Qe112OFqYcBNGqvvTyN2iOcrwD2MCNj/kELZ/7CHHvNJnYHAMA3AiwAaBG7/ryFWrD9jyTzZskekm4YQKP2Rp/hrquA5yqAPjOIz2nOvN6cNHkbOwMAEO7yAwBoHXvz2YdLxVtl9CpJ45Un9zRqH/GvadROo3agk66Xsa81E2uuYFcAAEIjwAKAFrM3/fJx6o39taTz4ocBNGpvtDyN2ucvT3gFhJoy/EBGf631R37MLF85x/4AAES5GrELAKD97C3Pe7Zk3iXp5wZO7nlkcMS/5pFBHhkEOucBGfNOHTD+9+boVTvYHQCAmAiwAKAjrJXRd37lRZLeJqufDRcG0Ki99vI0ap//GcIrIIRtkv2AZhaeb5686mF2BwAgBQRYANAx9sozxnXUgb8lU/ylrB7nLwygUXujz3DX1d7LE1wBIeyQMRfKmPPNktV3sTsAACkhwAKAjrK3n7Gfpvd/jWTeJOlwt4EAjdprL0+j9vnLE14Bvu2U9BHNFuebn1v7Q3YHACBFBFgA0HH2W7+0WIvGf1dGb5R0ZLMwgEbtjZanUfv85QmvAJ+mJfsJzc39tVl2zQ/YHQCAlBFgAQAenfrfefYB2jz3akl/KulIGrX72J4hn+GRwb2XJ7gCfNoq6SOam/0bgisAQC4IsAAAe0cBjz5a+LuS3iiV7ZFFo/bay9Ooff5nCK8AX+6XsR9Ub/aD5oRrH2B3AAByQoAFAOjLfv3kBTroJ18i6Q2SJgYsVWGFFZev8zfKLk+j9hof564rIGN3S+bvNHfAB82yS7eyOwAAOSLAAgAMZa2Mbn3er8jaP5X0rD3+TYWVVFxedZYv8RkatYtG7UCnXCdj/k7bt680p6ybYXcAAHJGgAUAKM3e8rynyRZvkHSOpN7oD8z7/5T9S+6Xp1G7aNQOdGJ0Pyerz8uYvzMTk5PsEABAey5xAABUZG/5lWNk514j2d+WzKH9F/rR/1N17W6Xp1G7eGQQ6MKo3jwiaz+uubEPmGVX3c4OAQC07lLHLgAA1LWr4ftyGf2prD3xx//iR/9PlbW5X55G7aJRO9D64fyNsvqweuMfMxOrtrA/AACtveKxCwAATVkro+8899mas38g2edJGqu4BjlfnkbtNT7OXVdAJnbI2JUy5kNmydTV7A4AQBcQYAEAnLLf+aXHa8b8roz9Hcn81Iil6/yFiv+aRu00agda4yZZfUzjM/9kTrj2AXYHAKBLCLAAAF5Yu6KnW9f+ggq9StKvSRrfZ4mqa6y4CI3aadQOtMIOSRerZy7UCZOXG8MPBADQTQRYAADv7Ibn/bTM3G/L6BWSnkijdh/bxCODQLsKp66W0cc0rs+Y46c2s0MAAF1HgAUACDcfsyt6umXyVKn3G7J6qaQDR83gSkzyqn/Gx/I0ap//GcIroKrvSfbfNWf+ySybupndAQDAjxFgAQCisDf96kHSzhdJ9rcknT7/mkSj9srLc9cVkONo/Iey5jOy9t/M0qmvs0MAABh0yQQAIDJ763Mfp7nZF0rmPEmn0ai9xvI0agdy8rCMvVi2t1L3jV9izlw1yy4BAGA4AiwAQFLsrb+4RLNjy2XsSyUdO3+Bgf9H2b/gZnkatc9fnvAKGGaHZC+Teiu1Y/tnzSnrtrFLAAAojwALAJAka2V041lPU0/nyphfU6En7bNE1TW6W55HBvdenuAKGDTS3i6rr8maz2qB/TzN2AEAaHJZBQAgA/aWs45RYc6W1XmSPbXaNYxG7e63Z9dnCK+AfT0gY78s9S7WmP0KoRUAAG4QYAEAsmPXn/UE9fTLks6W9BxJCwYsWWftFVfFXVfu1w9kN6K+XTIXy+hibdv+3+aUdTPsFAAAXF9uAQDImL3xFx8ra35FRs+X9DxJi3f9m6prqvSPnf6NssvTqB1IyQZZs1JWF5uTJtexOwAA8IsACwDQGvam0w6S9n+ubPECyfySpMNLfrLSP6ZRu8/vDSRrq4xZJdmLNaaLzfFTd7JLAAAIhwALANBK1q7o6ab/frKsOUvGnCXpWZIW7rPUkBVU/hd+lueuKyCm23a9OfCLWjz+NXP0qh3sEgAA4iDAAgB0gv3WLy3WguIZMvZsSS+Q7E/3X3DgGur81WbL06gdCG2rZK+U6V0s6StmYvL77BIAANJAgAUA6CR7y1knaHbul2V6z5HssyTtT6P2fZYnuEL7zUrmWsleLmMu1b3jV5szV82yWwAASA8BFgCg8+ztZ+yn7eOnS8VZks6S9JQfXyN5ZND9+oGoHn0s0PQu0/T418yTVz3MLgEAIH0EWAAA7MOuP+sJ6s3+gqw5Q9LPS3piiU/V+UsVP06jdqCGO2TNZerZy6UFl5uJVXezSwAAyA8BFgAAI9ibnn2U5uZOk+xZMjpd0pJ9lqi6xoof564roIK7JE3KmMskO2UmptazSwAAyB8BFgAAFdkNzzxSdsHpjwZaxemSWVLh00P/z5HLy/Xyuz5DeIV83SZjp6TepGZ7XzPLrrqdXQIAQPsQYAEA0JD99rMerzFzhmR+Xo8+cvikPksN/T8HrLnqllRfnuAKeZmV0bdUaI2kKY31rjJLVt/FbgEAoP0IsAAAcMze/As/pdniDPXM02SLp0n6OUkLf7zAyDXU+avVlye8QvoelrRWMmskO6W5xdeaZZduZbcAANA9BFgAAHhmb33uIs1ue4qsfapkniarp0s6esDSVddeb3nCK6Q3Kp1ToRslc516ulqyU1oydaMxKtg5AACAAAsAgAjsxrMO0c7Z/y2r02XsybL2GZIeW3Etqrw8wRXScZdk18n21slonQpNmpMmH2K3AACAfgiwAABIgLXqacMzj5d6T5Ps0yXzNMlOSBrvs3Sdv0B4hZi+K2u/qZ75hqTrNL7gOnPcqvvZLQAAoCwCLAAAEmW/fvIC7b/fz0rjSyQ7IWNOli1OkXREhbUQXCHkyHJOVt+T7IYf3Vk1V1xjlq25l50DAACaDTMAAEBW7M3P+CnN9k6SNSepZ5bJ6iRJx2ne3VqEV/DqblndIKMbJK2XKa7XI/q2OXXtdnYNAABwjQALAIAWsLc+d5FmtkzI6iRZLZOxS2W1TNLhJdfATsQgD0jaIKP1subbKsx6Ldh5gznh2gfYNQAAIBQCLAAAWsxef/pjJB2jMR2jQhMyWiKjY2Q1IWk/givsMivp+7K6TT2zQdJ6Gd0mmfVmyeq72D0AACA2AiwAADrIrp9YqLmDj9FY72dl9TOSfkbSMbv+9xMlLWQvtc4OSbdJ9jaZ3m0qdJukjSrsrZrZcZs5Zd0MuwgAAKSKAAsAAOzFXnTemJbe8XgVC35Gtjha0hMk/fSu//0ESY8TAVeKtkj6/q7/+YGM/YFs73YZ3aYxe5s5fupOdhEAAMgVARYAAKjEWhndfNqRmrY/LWMeL5kjZXSUTHGkrI6SzJGSjpJ0KHvLiRkZ3SuruyR7t4y5R1Z3yupOyd6hMX1POxf+wDx51cPsKgAA0FYEWAAAwAu75hn76yBzlKx+Ur3e4TLF4bL6CVn9pIw5XMYcLmsP16ON5g+VdIjmvUmxlaOv7bLmAck+IOkBGd0nax+QzAOP/vPiAUn3akx3akb3mmVr7uVsAgAAXUeABQAAkmHXn3GgZnYeogW9Q1UUh2isd6gKe7BM72BZe4BkFknFYx793/YAqXewjF2kQgc9OrIxB8jYRbtWd6CsFuz6/x8iqVdmEyQ9vPc/sQ+rZx7tdl9oq6RpGW2SNCfZh2R6c7LFJkkzUm+LrH1EPW2WNZtktVljZpNm7cNaNL5Js/dtMhPrpznSAAAAAAAAAAAAAAAAAAAAAAAAAAAAAAAAAAAAAAAAAAAAAAAAAAAAAAAAAAAAAAAAAAAAAAAAAAAAAAAAAAAAAAAAAAAAAAAAAAAAAAAAAAAAAAAAAAAAAAAAAAAAAAAAAAAAAAAAAAAAAAAAAAAAAAAAAAAAAAAAAAAAAAAAAAAAAAAAAAAAAAAAAAAAAAAAAAAAAAAAAAAAAAAAAAAAAAAAAAAAAAAAAAAAAAAAAAAAAAAAAAAAAAAAAAAAAAAAAAAAAAAAAAAAAAAAAAAAAAAAAAAAAAAAAAAAAAAAAAAAAAAAAAAAAAAAAAAAAAAAAAAAAAAAAAAAAAAAAAAAAAAAAAAAAAAAAAAAAAAAAAAAAAAAAAAAAAAAAAAAAAAAAAAAAAAAAAAAAAAAAAAAAAAAAAAAAAAAAAAAAAAAAAAAAAAAAAAAAAAAAAAAAAAAAAAAAAAAAAAAAAAAAAAAAAAAAAAAAAAAAAAAAAAAAAAAAAAAAAAAAAAAAAAAAAAAAAAAAAAAAAAAAAAAAAAAAAAAAAAAAAAAAAAAAAAAAAAAAAAAAAAAAAAAAAAAAAAAAAAAAAAAAAAAAAAAAAAAAAAAAAAAAAAAAAAAAAAAAAAAAAAAAAAAAAAAAAAAAAAAAAAAAAAAAAAAAAAAAAAAAAAAAAAAAAAAAAAAAAAAAAAAAAAAAAAAAAAAAAAAAAAAAAAAAAAAAAAAAAAAAAAAAAAAAAAAAAAAAAAAAAAAAAAAAAAAAAAAAAAAAAAAAAAAAAAAAAAAAAAAAAAAAAAAAAAAAAAAAAAAAAAAAAAAAAAAAAAAAAAAAICcGXYBAABg3JEVyy4AAAAMJAEAAGMCB6wtl7O89a1vZTwywFve8pZSO9EYL7uQoAwAALR3sAoAAPK4lg8LmFIIldavX9+ZccrExET0sGhQWOYgHCMIAwAA8Qa9AAAg3jW5X/jkK3TyFSSdd955jT6/YcOGbMYxS5YsaRTirFy50st2+QrO+oVhNYIwgi8AAFBvsAwAANxeX/cNolyFUE1Cp1HBUk7BEfY2KkhrEpS5CMMcBF+EXgAAdH2ADQAA18wSs2eHgVTVEGpQ8JRD4HTnnXfutY0nn3xy506wdevW7fV/H3XUUcmHMYMCsapBWJPwa9/Qq0LgRdgFAEDbBuMAAHT5WugilKoSRvULomKFUHfeeaeJGSbdddddrR6rHHnkkVFDlHXr1kULyvqFX2WDr7qBV82wi6ALAIAcBu0AALT5OrdnOFU1mCoTSsUKo3wET7HDpCVLlsz7Z3fffXfyY5kjjjjC9jkHom6T6+AsVBC2b+jlK/DaM+gi5AIAIJOBPQAAuV7HdodTIYIpH6GUqxDKdfC0O0jKITwa5MEHH6y87Ycddli2IcXuEM11cNY0CNv92KSP8KtO2FUl6KoYchFwAQDgc+APAECq16m6d06NCqd8BlNNAqmmIVSI0KlOKAQ/fIZtrsKwuuGX67u9qgZdnkIuAi4AAOpODAAAiH0dqnoHVZVwylUwVTeUqhNIuQ6hcgqcHnnkkb7b+vjHPz75bb/jjjv6/vNDDjkkm9DCVSB2xBFH2LrBV53Ay1XYVSXkqhNwcQcXAAANJw4AAPi81tS5i2pYSOU6oDryyCMrraNqKLVkyZLGYVSMEGrPMCmFAGnTpk3JjmcOPvjg6MHDngFajNCsafhVJ/SqEnb5CLlcBFzcvQUAQMlJBQAALq4pVUOqUAFVlTunqgRTTUIp32HU7uDJdegUM0A68sgjg2x3kyDqrrvuivajdB2g7Q7DfAdhdUKvOo82lg26XIRcLgOuknduEWwBANo/2QAAoOq1o8rjfiFCqrJ3T/kOp3yEUi6CKJeh074hUsp3RLXdvoGVy/CsSRjmM/iqGnZVvaOrbMh111131f5ugcMtgi0AQHsmIQAAyGNQ5SKkKnsHVdmAqmo45TKYahJI1Q2L9gydfAZOW7du9bLun/iJn8juB3Xfffc5X+fixYu9hhF7hlZ1w7A6wZePwKtK0FUl5CoTcDW5g6tMuEWwBQDo7OQEAMC1oGlQFSqk8hFQuQqnHnnkEVM1lKoaJu0OolyFUFUDp1SCpC1btiQ1pjnwwAOTCAPqhGYuQrEmwVfVwOuOO+5wFnSVDbnKBlyhwi2CLQBAZyctAIDu1P3YQZWrkCpkQFU1mKoSLrkIpMqGUK7DJ98h0uGHH+5t3f32mc+7m+6//36vP3TXAVrZIKzJPtsdXFUJvMqGXa7u6AodcNUNt0bdtTUq2CLUAgBkMZEBALS3vpcNq0Y9+lcnqCrTk2pUUFU2pAoZUJUNmpoEU6MCqaZBVJPgaVCo5OvRQQw2KDxqEpY1DcJGBV91Aq+qQVeVkCtEwFUm3PIdbNW9Y4tgCwCQ3AQHAJB/LW8SVjW5q2pUUJVCSFU2oCoTNtUNpoYFPHUDqapBVL/wyVfwtG3bNsYcjh1wwAFewoJ+oVLVEKxu8DUs8Koadh188MHWZcjVNOAqE249+OCDdkS9cR5seb5bi0ALAOB30gMAyKt2uwirqgZVox79ixlUxQ6oBoVAVYOpsoHUvkGUqxDKZ+i0Y8eOvus+5JBDOv8Df+SRR+b9s/32289rEOAiDNs3YKoSelUNvAYFXVVCrip3co0KuJqEWy7u2vIZbBFqAQCSnQQBANKu0zHCqiZ3VZUJqureTVUmqBoVPFUNqFyEU2WCKVehlKsQas/AiZApT/sGY65CsbrhV53Aq0rQ1TTkKhtw+Qq3QgRbd911V9BQi0cPAQBOJ0YAgLTqcpnAKlRYNequqsMOO8x5UOUqpAoVUI0Kp/YMpuqEUk0CqRgh1KA7rUJvR8763ZG1J993Z/XbjiZ/s2rgVTXoKhtyNQm4YoZbTR9FTCXU4i4tAEDjiRIAIG4NttZWvruqbs+qumGVj7uqmgZVVe6k6hccuQiomoRTdYKp3eGQjxCoX/Dk4u+MCrQwWtPAalAg5iMI2/236qy7btDlM+ByFW7FCLaa3K1VJdQi0AIABJ08AQDC1NyQd1cN61kVMqxyEVT5DKl8BFRVwikfd0ntGxpVXa/L0Onggw/2tu622jf82bRpk7d1l/j9Nvr8qPVWXV+VkGvP8GlYyFUm4GoSbjUJtjZt2hQs1BoWaFXtqdUk1CLQAgAMnEwBAPzV2ZCBVZ27q0KHVbGCKtchVdmAytUdU3UDqbph0Z6hUy6B00EHHRT8b27evDmLorRnSFQ3DCsbNLkOvKoGXWUDLlfhVoxgq+rdWqNCrbqPH4a6S4tACwCYWAEAPNXVUY8Eugis6t5d5bJnVd2wquyjf/uGSU3upqoaUoUKqOoEU1UDpd1hVIggas8QiTut3Nsd4oQKznb/vaqhV5mwyVV/LR8BV5lwy0ewlUqoVffRwyp3aRFoAQBqTbQAAM3q6Ki7rGIFVqPurgoVVlUNqqThYVWZu6lchVQuA6pR6ygb+PgMpHYHUD7WvXPnTsYgFS1atMj5pNxnCFY18BoVOrkIuR555BEv4VYqwVaoUKvOXVq+Ay16aAFABydeAIBqtbPOY4E5BVYhw6q6j/75CKrqhFRlA6oq4ZSr8MhVGOUreNp3vQceeGCnisqWLVvm/TMfgZWL9boMvVyGXE0DrrLhVoxgy1eoVaWnVt27tHwGWjWbwhNmAUAbJmEAgHK1supdVm0JrEKFVSGCqrp3U5X5XJmQyNWdUwcddFCtdbgIovZch+vAqYt3aLkOrPYMxZquu+7n99tvP9s06KoScpUJuOo2rh/1Od/BVpVQa9SbEAeFWlXu0ooVaO0Os6TygRZ3ZwFASydlAID+9bFqL6uqodWgput1AqsqjwMefPDBA5etG1iFDKt8BFUuQqqmAVWdO6bqhj67P9ckhKr7txcvXky1GWHr1q21PtcktNodftVZR9XPNL2jq2zANSiAqnvnlqtgK2SolVOgVbYpfN27swizAKAFEzQAoCbuGsV67mVV9S4rV3dYVQ2sXN5d5TOs8hFU+Qypqt45VTUgqhtKlf07roKn6elp52ORAw44IFoR2bZtm/N1Lly40MmkumwQVjWAqht2VVm+7p1cZcIt13dtlXkUsUmo1YZAa1APLVd3Z1XtnUWYBQAZTtYAoOt10PejgVXvshr2lsCmgVWsu6tihFUugirfIVWVgGrnzp2mSjA1at11wqiqwVPZUMlHoJWbsoFVlbCsbgg2KvSqEkJt2bKl0vJll20SbjW9a6tssFVm+ZRDLZ+BVkp3Z9E3CwAymrgBQBdrn8/QyuVdVr56WLkKrJrcXZVKWFUnqCobUpUNqKrcOTVsnVVDqTLB0aAQymfoND09bWLeUeXbtm3bnN1h1c+gdZcJv6psl4ugq+qdXGWWqxNujQq2Ugm12hpoVb07y2eYxZ1ZAJDwJA4AulTvhvW08hFa+exl5fIuqyaBVUphVYygqkpI1SSgKhtOjQqW+gVDTcMo34FTG+7Q8hlYuQjE+n1+VOBV5m8OC7nKBlxllksp2KoTajV5/LBOqFU20KrzyGHZtxxWvTvL16OGhFkAkNmEDgDaXONSCa2aPho46C6rHAOr1MIqV0FVmZCqSUA1LMhxFUyNj483DrNSKQY+QjUf/a7qahpazc7OWhd/c9g+aRJyjQqlXIVbVYOtFEItn4FWjLuzXD1qGDjMIsgCgBiTOwBoW22r84hgiqFVlbusqjwWWKWHVajAKkRYFSqoqhtSVQmoqgRFde+QchlGjfr7Xe2DVSbgcRma1Qm9qt7hte+yg7a/brgVKtiamZmp1HB+UKjl4vHDpoFWCndn+QqzmtyZRb8sAMhskgcAbapnvu62qtKIvenjga5Cq6Z3WaUYWIUOq3wEVYOCmroBVdVwqklQFLIf1vT0tNl///1bVbC2b98uyc/jhHUeAayzziE1ofTyZQKuUeuqc9dWmWArZqgVItBK6e6sMo8augqzyvTM4hFDAMhkwgcAOdexYXdbEVqVC61G3WWVQ2C1YMECb2GVq6CqTkhVJaCqEyS57onlM3iamZnJbgyzYMECL5PZ7du3NwrCXAVeZbeh7OOKTcOtqndsNQ21qjx+mFOg5evurDaGWdyVBQABJ34AkGvt8nG3latHBGOFVi57WQ0KrXwFVgcffPDAf7evUXdXuQ6rmgRVLkOqqsFSk8cOdy/fJIwaFTi5CLpSevTQxZ1Vu+/SGqRJIFYn9Cr7OGCTfVLm7q2QwVaoUMtXoDVqOVd3Z/kIs5o+ZljlbYa+HjEkyAIAz5NAAMilZlXpbeXrbqsmoVWVRuy+Qqs6jwaWCa183mHVJLDyGVZVDYjKNEivEshUDcr2XLZqeDQojCq7nq72uHKhbOg0KPyqGnpVDbr2XLZKwFXmb4y6c2tUsBUq1IoVaDW9O8tX76zYYZavu7J4vBAAIk8GASCHWuXjMcEqd1s1eUQw5dCq6aOBg0KrWIHV7n9eNrCqG1Y1Dap8h1RjY2Ol198vmBoWSoUKonZvQ5uCr91hyqi7rFz+rUH6bUOVoGtubq7yI4Flw61R2171jq0moVYugVaVu7PqPmoY886sJo8YVrkri8cLASDxSSEApFyjUg2uXD8iuHjx4to9rVyFVlUeDazyWKDvwMrF3VWxw6o6jxyWufOpSjjlMijyGT7Nzs6WXueiRYucF6idO3eWXnZ8fNxLs3bXAdigQKduyOUr3BoVWlW5W6tsqFX2Lq0tW7YM/HfD/rnUPNDKPcxK8a4s148XEmQBgKPJIQCkWJt8BFchHhOMebdVbqHVsKbrLgKrsmHVrolaqSBnWFjlI6gqcyfVviGVr4Bq//33r72OfqGTy3CpSqjli8uwat+QrMm6XQReZQMuV+HW7r/nO9TyHWjVuUPLdZi167rUKMzy0QA+xbuyCLIAIINJIgCkVJNCBVeum7K7CK7qhlb7fnZPTXtauQytht1lVaeHVdk7rOreXdX0zqoqYdWooKpMSNUkoKryyOGuUMDsMxmv/dlRmgRdPt5a2KSJepW7t3adg7bOuqsGXk1Drn5hT9Vwa1SwVeVurWGh1qjHD4eFZ/0+5yLQanp3Vm5hVoy7spoGWbvGDQRZABB7sggAKdSimMFVk/5WZR8TbHK3VchHBFMIrZreZeUjsHIVVo169M9XUFXl7qk9A6Yy4dGoQGrYOnwETPtM4J2vc8eOHV4L47CgZ1QAVia4qhN01Q24RgVbqYRaZe7SqnuHVp0eWk3uzkolzPJ9VxZBFgB0dNIIADFrUIrBVd3+Vq4fE3Rxt5XrRuyhQ6u6jwXuDpR8B1ZN7qzaM7xxEVSVDanKBlTDgql+n6sbRtUNmXyHX03UvUurTjg26G8NCrtGhVZVA6464VaTYKtsqOUj0HLxyKGru7NchllNe2a5visrxOOFKQZZhFgAUGLyCACx6o+1tm9wJe0dXvlozt7vUcEQwVWdpuw+7rbKPbSqc5eV78AqVFhVJqhqElI1CafKhFG+gqdYfbB8NGovE+Ts8Zutva5+Idew71Ml3KoabPkKtZoGWsMeORwUaOUeZrm+K6vNQVbdHln9QiyJIAsARk4gASB03al615Xv4GrXYLXyo4Ih+lulHlwNasQeMrSqc5dVzMCqSlg1qjfV7tCmaUhVJlQaFk7VDaX6bdvChQudFh9XwZaPoGp6etrZ3xkW8JQJufb9fN1wa9T2l31DYb8gKIVAy9XdWb7CrJmZGTvid+zsriyfjxe67JMV4tHCskEWjxUCQMOJJACErDmD7rry/bigy+bsqQVXdXtbhbrbKofQylVgFTOsGtVYfVTINCigqhpO7bkdVcKoKkGTyzcY+lKlYXuV0GrP0KvK55oEXHt+tkqw5TrUGnaXls9Aq2qYNWy9dcOsQcGU67uyXPfKihVkueyRdcQRR9gNGzb0G3/YPuMPHisEAJ+TSQAIUWtcPy7ou89V2bcKxnxUMHRw5eNuKxeh1fT0tNnzEcKyAVKZ9Q5quN40sBr1GOCwsGrUHVXDAqemIVWVcKpqD60621NVneCr6psDXQRKo/7uqECoTsjVb3uaBFtNQq2yjx/WuUNr+/btIx8JdBlmNXnMMMW7slIIsmI1e+8XZHE3FgAEnlQCgO86k9tdV2UfF1y8eLGz5uypBlex7rZq0tOqSWg16C6opo8EDgusmtxZVTWsKhMM7f57wwKqQeHUoO9QJZBqendVyF5YTR8rrBKOuWzWvjvgKrP9VYOtuqFWrEBr0N1ZscMsH3dldSXI2rp1a9+7tPpc170+VsjdWADgYWIJAL7qS4heV77vunL5uGCVtwqmGlzFvtsqRmgVMrByFVaNCozK3EnlqsF72UCqTPDUpD9Wk2CrSVDVr89VnfWXCbuaNmovG2z5DrV8BFqphllVHzGscldW3ccLYwVZLpu9++6PldDdWIRYAAiwAMBFeBXjkUGfd13FCq4GBVOj/n0uwdWou60GPSKYWmg1rIfV7OyscRVYVb2zatQdVaN6Z41a/6iAalBwVOcOrzYpc4dUlc/0C4eGhU6ug60qoZbrQKtMD61Bd2eFCrNc35WVU5BV562FoR8rTPFuLB4pBIA+k0wAcF1XXD4y2PQNgynedeXyccGUgqu6jwm6utsqpdCq7F1WdQIrn2HVoHVXfcthv79fJ5Qa9hnXbyt0qW4ANUi/z1V9g+GgcGtUsOUy1KoaaA0Ks4b93aph1qg7s5r0zKpyV1ZuQZbLtxb6fqzQd2+s0CHW7iCLEAtAV/z/glEDlUDdqZUAAAAldEVYdGRhdGU6Y3JlYXRlADIwMjItMTEtMDdUMTY6NTI6MzArMDA6MDCrd6kuAAAAJXRFWHRkYXRlOm1vZGlmeQAyMDIyLTExLTA3VDE2OjUyOjMwKzAwOjAw2ioRkgAAAABJRU5ErkJggg==;" vertex="1" parent="1">
          <mxGeometry x="730" y="370" width="50" height="54.8" as="geometry" />
        </mxCell>
        <mxCell id="28zKGiVwG6CiP2PjTaSR-23" value="" style="shape=image;verticalLabelPosition=bottom;labelBackgroundColor=default;verticalAlign=top;aspect=fixed;imageAspect=0;image=data:image/svg+xml,PHN2ZyB2aWV3Qm94PSIwIDAgMTk0LjAzIDE5NCIgeG1sbnM6eGxpbms9Imh0dHA6Ly93d3cudzMub3JnLzE5OTkveGxpbmsiIHhtbG5zPSJodHRwOi8vd3d3LnczLm9yZy8yMDAwL3N2ZyIgZGF0YS1uYW1lPSJMYXllciAxIiBpZD0iTGF5ZXJfMSIgZmlsbD0ibm9uZSIgaGVpZ2h0PSI0ODAiIHdpZHRoPSI0ODAiPjxkZWZzPjxzdHlsZT4uY2xzLTF7ZmlsbDp1cmwoI2xpbmVhci1ncmFkaWVudCk7fS5jbHMtMntmaWxsOiNmZmY7fTwvc3R5bGU+PGxpbmVhckdyYWRpZW50IGdyYWRpZW50VW5pdHM9InVzZXJTcGFjZU9uVXNlIiBncmFkaWVudFRyYW5zZm9ybT0ibWF0cml4KDEsIDAsIDAsIC0xLCAwLjYyLCAtMTQ4My4yNikiIHkyPSItMTYyOS4wNCIgeDI9IjQ3Ljk1IiB5MT0iLTE1MzIuMTIiIHgxPSIxNDQuODciIGlkPSJsaW5lYXItZ3JhZGllbnQiPjxzdG9wIHN0b3AtY29sb3I9IiNlNDQ4NTciIG9mZnNldD0iMCIvPjxzdG9wIHN0b3AtY29sb3I9IiNjNzExZTEiIG9mZnNldD0iMC40NyIvPjxzdG9wIHN0b3AtY29sb3I9IiM3ZjUyZmYiIG9mZnNldD0iMSIvPjwvbGluZWFyR3JhZGllbnQ+PC9kZWZzPjxnIGlkPSJMb2dvdHlwZXMiPjxwb2x5Z29uIHBvaW50cz0iMTQ1LjQ4IDE0NS40NCA0OC41NSAxNDUuNDQgNDguNTUgNDguNTYgMTQ1LjQ4IDQ4LjU2IDk3LjAxIDk2Ljk3IDE0NS40OCAxNDUuNDQiIGNsYXNzPSJjbHMtMSIvPjwvZz48cGF0aCBkPSJNODEuNjEsMTE2bDExLjE3LDYuNDRhMS4zLDEuMywwLDAsMCwxLjc5LS40OCwxLjI4LDEuMjgsMCwwLDAtLjQ4LTEuNzdsLTExLjMtNi41NGE0MC43OCw0MC43OCwwLDAsMCwwLTMzLjI0bDExLjMtNi41NGExLjMxLDEuMzEsMCwwLDAtMS4zMS0yLjI3TDgxLjYxLDc4QTM4LjUsMzguNSwwLDAsMCw1MS4xNyw1OC4xNnY3Ny42OEEzOC4zOCwzOC4zOCwwLDAsMCw4MS42MSwxMTZaTTYyLjA5LDc5LjE3YTMuMjYsMy4yNiwwLDEsMSwzLjI1LDMuMjVBMy4yNSwzLjI1LDAsMCwxLDYyLjA5LDc5LjE3Wm0wLDM1LjY2YTMuMjYsMy4yNiwwLDEsMSwzLjI1LDMuMjZBMy4yNSwzLjI1LDAsMCwxLDYyLjA5LDExNC44M1oiIGNsYXNzPSJjbHMtMiIgaWQ9InBhdGg4MDMxOSIvPjwvc3ZnPg==;" vertex="1" parent="1">
          <mxGeometry x="40" y="350" width="90" height="90" as="geometry" />
        </mxCell>
      </root>
    </mxGraphModel>
  </diagram>
</mxfile>
